<?xml version="1.0" standalone="no"?>
<!DOCTYPE svg PUBLIC "-//W3C//DTD SVG 1.1//EN" "http://www.w3.org/Graphics/SVG/1.1/DTD/svg11.dtd" >
<svg>
<metadata>
Created by FontForge 20090622 at Mon Mar  6 08:04:24 2017
 By deploy user
Copyright (c) 1987, 1991, 1993 Adobe Systems Incorporated.  All Rights Reserved.Futura is a registered trademark of Fundicion Tipografica Neufville S. A.
</metadata>
<defs>
<font id="Futura" horiz-adv-x="578" >
  <font-face 
    font-family="Futura Medium"
    font-weight="400"
    font-stretch="normal"
    units-per-em="1000"
    panose-1="0 0 4 0 0 0 0 0 0 0"
    ascent="800"
    descent="-200"
    x-height="468"
    cap-height="754"
    bbox="-163 -268 1113 995"
    underline-thickness="50"
    underline-position="-75"
    unicode-range="U+0020-U+F002"
  />
<missing-glyph horiz-adv-x="500" 
d="M63 0v767h375v-767h-375zM125 63h250v642h-250v-642z" />
    <glyph glyph-name=".notdef" horiz-adv-x="500" 
d="M63 0v767h375v-767h-375zM125 63h250v642h-250v-642z" />
    <glyph glyph-name=".null" horiz-adv-x="0" 
 />
    <glyph glyph-name="nonmarkingreturn" horiz-adv-x="289" 
 />
    <glyph glyph-name="space" unicode=" " horiz-adv-x="289" 
 />
    <glyph glyph-name="exclam" unicode="!" horiz-adv-x="321" 
d="M161 100q24 0 41 -17.5t17 -40.5q0 -24 -17 -41t-41 -17t-41 17t-17 41q0 23 17 40.5t41 17.5zM116 174v580h90v-580h-90z" />
    <glyph glyph-name="quotedbl" unicode="&#x22;" horiz-adv-x="439" 
d="M90 754h98l-18 -328h-62zM251 754h98l-18 -328h-62z" />
    <glyph glyph-name="numbersign" unicode="#" 
d="M217 718h77l-36 -194h124l35 194h79l-35 -194h92v-80h-107l-27 -154h101v-80h-117l-38 -210h-76l37 210h-123l-40 -210h-75l37 210h-100v80h115l27 154h-105v80h119zM245 444l-27 -154h123l27 154h-123z" />
    <glyph glyph-name="dollar" unicode="$" 
d="M333 349v-271q46 10 75.5 49t29.5 87q0 80 -105 135zM283 770v90h50v-90q114 -11 171 -116l-79 -45q-29 55 -92 74v-235q195 -85 195 -230q0 -82 -57.5 -152.5t-137.5 -81.5v-95h-50v95q-87 1 -153 62t-80 148l90 19q13 -66 45 -98q34 -35 98 -43v300l-36 18
q-70 35 -102 70q-42 46 -42 113q0 75 52.5 133t127.5 64zM283 472v211q-40 -6 -66.5 -35t-26.5 -68q0 -71 93 -108z" />
    <glyph glyph-name="percent" unicode="%" horiz-adv-x="708" 
d="M193 770q72 0 124 -50.5t52 -121.5t-52.5 -121t-123.5 -50t-123.5 50t-52.5 121t52 121.5t124 50.5zM193 710q-47 0 -81.5 -33t-34.5 -79q0 -45 34.5 -78t81.5 -33t81.5 33t34.5 78q0 46 -34.5 79t-81.5 33zM552 770l45 -26l-440 -760l-46 25zM516 327q72 0 124 -50.5
t52 -121.5t-52.5 -121t-123.5 -50t-123.5 50t-52.5 121t52 121.5t124 50.5zM516 267q-47 0 -81.5 -33t-34.5 -79q0 -45 34.5 -78t81.5 -33t81.5 33t34.5 78q0 46 -34.5 79t-81.5 33z" />
    <glyph glyph-name="ampersand" unicode="&#x26;" horiz-adv-x="692" 
d="M287 372l-9 -6q-64 -43 -88 -66q-49 -46 -49 -93q0 -54 43 -96.5t97 -42.5q73 0 173 100zM307 490l12 8q90 60 90 116q0 39 -24.5 60.5t-63.5 21.5q-35 0 -59.5 -22.5t-24.5 -57.5q0 -36 45 -94zM592 0l-82 102q-100 -118 -226 -118q-96 0 -163.5 63t-67.5 159
q0 65 39 116q28 37 93 84l47 34q-83 87 -83 165q0 76 50 122q48 43 124 43q72 0 122 -41q52 -44 52 -116q0 -57 -45 -109q-28 -32 -92 -79l157 -190l88 102l60 -62l-92 -108l135 -167h-116z" />
    <glyph glyph-name="quotesingle" unicode="'" horiz-adv-x="277" 
d="M90 754h98l-18 -328h-62z" />
    <glyph glyph-name="parenleft" unicode="(" horiz-adv-x="292" 
d="M161 809l74 -55q-86 -180 -86 -446t86 -446l-74 -55q-104 204 -104 501q0 299 104 501z" />
    <glyph glyph-name="parenright" unicode=")" horiz-adv-x="292" 
d="M57 754l74 55q104 -202 104 -501q0 -297 -104 -501l-74 55q86 180 86 446t-86 446z" />
    <glyph glyph-name="asterisk" unicode="*" horiz-adv-x="432" 
d="M184 754h69v-95l81 48l35 -59l-85 -50l85 -50l-35 -58l-81 50v-96h-69v97l-87 -49l-34 57l85 49l-84 50l31 57l89 -49v98z" />
    <glyph glyph-name="plus" unicode="+" 
d="M246 512h86v-213h213v-86h-213v-213h-86v213h-213v86h213v213z" />
    <glyph glyph-name="comma" unicode="," horiz-adv-x="289" 
d="M164 119l78 -31l-133 -267l-55 23z" />
    <glyph glyph-name="hyphen" unicode="-" horiz-adv-x="332" 
d="M57 358h219v-75h-219v75z" />
    <glyph glyph-name="hyphen" unicode="&#x2010;" horiz-adv-x="332" 
d="M57 358h219v-75h-219v75z" />
    <glyph glyph-name="period" unicode="." horiz-adv-x="289" 
d="M145 100q24 0 41 -17.5t17 -40.5q0 -24 -17 -41t-41 -17t-41 17t-17 41q0 23 17 40.5t41 17.5z" />
    <glyph glyph-name="slash" unicode="/" horiz-adv-x="551" 
d="M448 868l72 -32l-417 -962l-71 32z" />
    <glyph glyph-name="zero" unicode="0" 
d="M289 -16q-131 0 -204 139q-59 112 -59 254q0 143 58 255q73 138 205 138t205 -138q58 -112 58 -255q0 -142 -59 -254q-73 -139 -204 -139zM289 690q-90 0 -137 -117q-36 -88 -36 -195q0 -106 36 -194q47 -116 137 -116t137 116q36 88 36 194q0 107 -36 195
q-47 117 -137 117z" />
    <glyph glyph-name="one" unicode="1" 
d="M254 668h-131l52 86h169v-754h-90v668z" />
    <glyph glyph-name="two" unicode="2" 
d="M228 86h304v-86h-487l330 405q67 82 67 135q0 59 -44.5 101.5t-103.5 42.5q-57 0 -99 -40.5t-46 -97.5h-94q11 102 74.5 163t164.5 61q98 0 168 -64.5t70 -161.5q0 -87 -56 -155z" />
    <glyph glyph-name="three" unicode="3" 
d="M275 360v78q148 0 148 121q0 57 -37 93t-94 36q-51 0 -84 -29.5t-41 -78.5h-93q28 190 221 190q93 0 154 -54q64 -57 64 -149q0 -116 -96 -170q107 -51 107 -187q0 -103 -68.5 -164.5t-172.5 -61.5q-92 0 -157 55q-69 57 -73 147h91q7 -54 48.5 -87t97.5 -33q62 0 103 43
t41 105q0 71 -44.5 111t-114.5 35z" />
    <glyph glyph-name="four" unicode="4" 
d="M469 192h86v-82h-86v-110h-90v110h-372l462 676v-594zM379 192v311h-2l-212 -311h214z" />
    <glyph glyph-name="five" unicode="5" 
d="M528 668h-237l-47 -155l53 3q105 6 176 -77q66 -78 66 -187q0 -117 -80.5 -192.5t-198.5 -75.5q-71 0 -133 35q-65 36 -97 97l70 66q17 -47 66.5 -79.5t100.5 -32.5q76 0 129 54.5t53 130.5q0 73 -53.5 126t-126.5 53q-88 0 -141 -67h-18l116 387h302v-86z" />
    <glyph glyph-name="six" unicode="6" 
d="M379 770l68 -46l-201 -272l2 -2q36 18 74 18q91 0 156 -73q62 -70 62 -163q0 -103 -73 -175.5t-176 -72.5q-99 0 -175 71.5t-76 169.5q0 89 82 199zM290 68q64 0 112 46t48 108q0 68 -49 115t-111 47t-111 -48t-49 -109q0 -65 47.5 -112t112.5 -47z" />
    <glyph glyph-name="seven" unicode="7" 
d="M437 668h-390v86h543l-470 -770l-73 45z" />
    <glyph glyph-name="eight" unicode="8" 
d="M289 352q-58 0 -102 -41.5t-44 -100.5q0 -56 45 -99t101 -43t101 43t45 99q0 59 -44 100.5t-102 41.5zM53 210q0 63 31 112t88 69q-99 56 -99 169q0 91 62.5 150.5t153.5 59.5t153.5 -59.5t62.5 -150.5q0 -113 -99 -169q57 -20 88 -69t31 -112q0 -102 -68.5 -164
t-167.5 -62t-166 61q-70 63 -70 165zM289 690q-51 0 -89.5 -38t-38.5 -92q0 -45 40.5 -86.5t87.5 -41.5t87.5 41.5t40.5 86.5q0 54 -38 92t-90 38z" />
    <glyph glyph-name="nine" unicode="9" 
d="M213 -16l-68 47l201 271l-2 2q-28 -14 -73 -14q-92 0 -155.5 70t-63.5 162q0 103 73 175.5t176 72.5q99 0 175 -71.5t76 -169.5q0 -89 -82 -199zM302 370q70 0 115 47t45 111q0 61 -46.5 109.5t-107.5 48.5q-68 0 -117 -47t-49 -111q0 -65 51 -113q48 -45 109 -45z" />
    <glyph glyph-name="colon" unicode=":" horiz-adv-x="289" 
d="M145 100q24 0 41 -17.5t17 -40.5q0 -24 -17 -41t-41 -17t-41 17t-17 41q0 23 17 40.5t41 17.5zM145 482q24 0 41 -17.5t17 -40.5q0 -24 -17 -41t-41 -17t-41 17t-17 41q0 23 17 40.5t41 17.5z" />
    <glyph glyph-name="semicolon" unicode=";" horiz-adv-x="289" 
d="M156 119l78 -31l-133 -267l-55 23zM192 482q24 0 41 -17.5t17 -40.5q0 -24 -17 -41t-41 -17t-41 17t-17 41q0 23 17 40.5t41 17.5z" />
    <glyph glyph-name="less" unicode="&#x3c;" 
d="M545 498v-94l-384 -148l384 -148v-94l-512 207v70z" />
    <glyph glyph-name="equal" unicode="=" 
d="M33 385h512v-86h-512v86zM33 213h512v-86h-512v86z" />
    <glyph glyph-name="greater" unicode="&#x3e;" 
d="M33 404v94l512 -207v-70l-512 -207v94l384 148z" />
    <glyph glyph-name="question" unicode="?" horiz-adv-x="453" 
d="M301 345h91q3 -64 -47 -112.5t-115 -48.5q-67 0 -114 46.5t-47 113.5q0 80 65 120l121 50q65 28 65 82q0 41 -26 65t-66 24q-35 0 -60.5 -25.5t-25.5 -60.5q0 -10 6 -32h-94l-2 33q-4 71 52 122q54 48 127 48q76 0 128 -51t52 -126q0 -77 -54 -124q-32 -28 -124 -56
q-73 -22 -73 -73q0 -30 20 -51t50 -21q32 0 52 22.5t19 54.5zM230 100q24 0 41 -17.5t17 -40.5q0 -24 -17 -41t-41 -17t-41 17t-17 41q0 23 17 40.5t41 17.5z" />
    <glyph glyph-name="at" unicode="@" horiz-adv-x="800" 
d="M504 395q0 49 -28 76.5t-75 27.5q-58 0 -96 -49q-36 -45 -36 -104q0 -46 27.5 -80t72.5 -34q66 0 103 50q32 45 32 113zM528 506l14 62h71l-50 -257q-8 -42 -8 -55q0 -31 22 -31q36 0 72 60t36 132q0 124 -78 200q-75 73 -192 73q-126 0 -212.5 -91.5t-86.5 -221.5
q0 -135 94 -225q91 -88 222 -88q129 0 186 48l75 -60q-64 -34 -112 -48q-68 -20 -157 -20q-163 0 -275.5 112t-112.5 281q0 167 110.5 280t271.5 113q137 0 235 -87q112 -99 112 -230t-62 -212q-69 -90 -154 -87q-44 2 -54 62q-62 -62 -136 -62q-67 0 -117.5 54.5
t-50.5 130.5q0 95 56 164q58 74 148 74q78 0 133 -71z" />
    <glyph glyph-name="A" unicode="A" horiz-adv-x="703" 
d="M525 189h-346l-86 -189h-101l360 786l360 -786h-101zM486 275l-134 305l-134 -305h268z" />
    <glyph glyph-name="B" unicode="B" horiz-adv-x="535" 
d="M158 670v-250h24q78 0 114 23q48 29 48 103q0 73 -47 102q-36 22 -113 22h-26zM158 345v-261h72q178 0 178 133q0 128 -192 128h-58zM64 0v754h92q276 0 276 -207q0 -43 -21 -83q-23 -43 -60 -60v-2q65 -12 108 -67.5t43 -123.5q0 -106 -81 -162q-71 -49 -181 -49h-176z
" />
    <glyph glyph-name="C" unicode="C" horiz-adv-x="661" 
d="M621 719v-109q-83 74 -199 74q-125 0 -211.5 -90.5t-86.5 -217.5q0 -125 85.5 -215.5t210.5 -90.5q114 0 201 78v-111q-90 -53 -198 -53q-162 0 -277.5 113t-115.5 276q0 167 117 282t284 115q107 0 190 -51z" />
    <glyph glyph-name="D" unicode="D" horiz-adv-x="665" 
d="M64 0v754h156q183 0 298 -92q125 -101 125 -281q0 -185 -124 -287q-114 -94 -302 -94h-153zM158 668v-582h33q160 0 251 63q107 74 107 228t-107 228q-91 63 -251 63h-33z" />
    <glyph glyph-name="E" unicode="E" horiz-adv-x="521" 
d="M72 0v754h405v-86h-311v-211h302v-86h-302v-285h311v-86h-405z" />
    <glyph glyph-name="F" unicode="F" horiz-adv-x="474" 
d="M436 668h-271v-212h262v-86h-262v-370h-94v754h365v-86z" />
    <glyph glyph-name="G" unicode="G" horiz-adv-x="780" 
d="M460 380h299v-30q0 -157 -100 -261.5t-257 -104.5t-269 116.5t-112 274.5q0 163 114.5 279t276.5 116q89 0 170.5 -38.5t136.5 -107.5l-66 -63q-41 56 -105 89.5t-132 33.5q-126 0 -213.5 -89.5t-87.5 -216.5q0 -121 85 -213q88 -95 208 -95q90 0 167 67t80 157h-195v86z
" />
    <glyph glyph-name="H" unicode="H" horiz-adv-x="675" 
d="M158 450h359v304h94v-754h-94v362h-359v-362h-94v754h94v-304z" />
    <glyph glyph-name="I" unicode="I" horiz-adv-x="232" 
d="M163 754v-754h-94v754h94z" />
    <glyph glyph-name="J" unicode="J" horiz-adv-x="362" 
d="M209 754h94v-479q0 -132 -36 -200q-48 -91 -168 -91q-62 0 -118 33l47 80q33 -25 75 -25q71 0 94 73q12 39 12 130v479z" />
    <glyph glyph-name="K" unicode="K" horiz-adv-x="600" 
d="M166 427l320 327h123l-339 -339l345 -415h-127l-284 351l-38 -36v-315h-94v754h94v-327z" />
    <glyph glyph-name="L" unicode="L" horiz-adv-x="385" 
d="M166 754v-668h229v-86h-323v754h94z" />
    <glyph glyph-name="M" unicode="M" horiz-adv-x="851" 
d="M426 -16l-226 514h-2l-88 -498h-97l154 786l259 -594l259 594l154 -786h-97l-88 498h-2z" />
    <glyph glyph-name="N" unicode="N" horiz-adv-x="785" 
d="M63 0v790l566 -593v557h94v-785l-566 593v-562h-94z" />
    <glyph glyph-name="O" unicode="O" horiz-adv-x="828" 
d="M414 770q162 0 278.5 -115.5t116.5 -277.5q0 -167 -115 -280t-280 -113t-280 113t-115 280q0 162 116.5 277.5t278.5 115.5zM414 72q123 0 212 88.5t89 216.5q0 127 -84 215q-87 90 -217 90t-215.5 -89t-85.5 -216q0 -128 89 -216.5t212 -88.5z" />
    <glyph glyph-name="P" unicode="P" horiz-adv-x="495" 
d="M166 316v-316h-94v754h108q167 0 239 -57q65 -52 65 -161q0 -112 -78 -170q-69 -50 -186 -50h-54zM166 670v-270h30q200 0 200 138q0 79 -68 110q-47 22 -137 22h-25z" />
    <glyph glyph-name="Q" unicode="Q" horiz-adv-x="828" 
d="M808 -16h-114l-65 67q-97 -67 -215 -67q-165 0 -280 113t-115 280q0 162 116.5 277.5t278.5 115.5t278.5 -115.5t116.5 -277.5q0 -166 -118 -278zM508 284l119 -118q42 37 66 98q22 56 22 113q0 127 -84 215q-87 90 -217 90t-215.5 -89t-85.5 -216q0 -128 89 -216.5
t212 -88.5q82 0 150 43l-173 169h117z" />
    <glyph glyph-name="R" unicode="R" horiz-adv-x="543" 
d="M303 328l238 -328h-114l-222 319h-39v-319h-94v754h114q138 0 199 -35q47 -27 73 -76t26 -104q0 -82 -50 -141.5t-131 -69.5zM166 670v-273h30q200 0 200 138q0 135 -205 135h-25z" />
    <glyph glyph-name="S" unicode="S" horiz-adv-x="537" 
d="M482 656l-75 -45q-42 71 -121 71q-48 0 -85 -29q-41 -31 -41 -78q0 -67 105 -108l54 -21q90 -35 134 -82q53 -57 53 -145q0 -102 -69.5 -168.5t-171.5 -66.5q-91 0 -156 59.5t-77 151.5l95 20q-1 -61 41.5 -102t104.5 -41q60 0 99.5 43.5t39.5 103.5q0 55 -41 92
q-28 25 -89 51l-52 22q-77 33 -114 70q-50 49 -50 121q0 88 68 143q64 52 154 52q130 0 194 -114z" />
    <glyph glyph-name="T" unicode="T" horiz-adv-x="456" 
d="M275 668v-668h-94v668h-179v86h452v-86h-179z" />
    <glyph glyph-name="U" unicode="U" horiz-adv-x="669" 
d="M59 754h94v-445q0 -237 182 -237t182 237v445h94v-477q0 -128 -73 -209q-76 -84 -203 -84t-203 84q-73 81 -73 209v477z" />
    <glyph glyph-name="V" unicode="V" horiz-adv-x="640" 
d="M96 754l225 -558l224 558h103l-327 -794l-328 794h103z" />
    <glyph glyph-name="W" unicode="W" horiz-adv-x="1027" 
d="M90 754l211 -540l213 556l213 -556l211 540h102l-313 -784l-213 553l-213 -553l-313 784h102z" />
    <glyph glyph-name="X" unicode="X" horiz-adv-x="574" 
d="M237 395l-208 359h107l154 -275l164 275h107l-217 -359l229 -395h-105l-178 309l-185 -309h-105z" />
    <glyph glyph-name="Y" unicode="Y" horiz-adv-x="573" 
d="M240 328l-246 426h108l185 -322l185 322h108l-246 -426v-328h-94v328z" />
    <glyph glyph-name="Z" unicode="Z" horiz-adv-x="552" 
d="M162 86h382v-86h-535l382 668h-328v86h481z" />
    <glyph glyph-name="bracketleft" unicode="[" horiz-adv-x="311" 
d="M153 725v-834h98v-84h-190v1002h190v-84h-98z" />
    <glyph glyph-name="backslash" unicode="\" horiz-adv-x="551" 
d="M31 868h84l404 -868h-84z" />
    <glyph glyph-name="bracketright" unicode="]" horiz-adv-x="311" 
d="M158 -109v834h-98v84h190v-1002h-190v84h98z" />
    <glyph glyph-name="asciicircum" unicode="^" 
d="M33 308l200 446h112l200 -446h-94l-162 362l-163 -362h-93z" />
    <glyph glyph-name="underscore" unicode="_" horiz-adv-x="500" 
d="M500 -75v-50h-500v50h500z" />
    <glyph glyph-name="grave" unicode="`" horiz-adv-x="360" 
d="M76 690l83 44l125 -166l-44 -27z" />
    <glyph glyph-name="a" unicode="a" horiz-adv-x="556" 
d="M264 64q71 0 113 51q39 47 39 119q0 71 -41 119.5t-111 48.5q-67 0 -107.5 -49.5t-40.5 -118.5q0 -70 38 -118q42 -52 110 -52zM501 468v-468h-90v73h-2q-60 -89 -159 -89q-103 0 -166 76q-58 71 -58 177q0 100 61 172.5t160 72.5q101 0 162 -92h2v78h90z" />
    <glyph glyph-name="b" unicode="b" horiz-adv-x="556" 
d="M288 64q71 0 113 51q39 47 39 119q0 71 -41 119.5t-111 48.5q-67 0 -107.5 -49.5t-40.5 -118.5q0 -70 38 -118q42 -52 110 -52zM55 0v868h90v-478h2q61 92 163 92q98 0 161 -74q59 -71 59 -171q0 -106 -58 -177q-62 -76 -166 -76q-99 0 -159 89h-2v-73h-90z" />
    <glyph glyph-name="c" unicode="c" horiz-adv-x="441" 
d="M406 451v-116q-55 63 -134 63q-65 0 -110.5 -49t-45.5 -115q0 -72 45.5 -119t116.5 -47q73 0 128 62v-115q-58 -31 -129 -31q-104 0 -177.5 71t-73.5 175q0 108 73.5 180t182.5 72q71 0 124 -31z" />
    <glyph glyph-name="d" unicode="d" horiz-adv-x="556" 
d="M264 64q71 0 113 51q39 47 39 119q0 71 -41 119.5t-111 48.5q-67 0 -107.5 -49.5t-40.5 -118.5q0 -70 38 -118q42 -52 110 -52zM411 0v73h-2q-60 -89 -159 -89q-104 0 -166 76q-58 71 -58 177q0 100 59 171q63 74 161 74q102 0 163 -92h2v478h90v-868h-90z" />
    <glyph glyph-name="e" unicode="e" horiz-adv-x="488" 
d="M473 219h-357q1 -63 39 -107q40 -48 102 -48q85 0 140 91l76 -43q-33 -60 -90.5 -94t-126.5 -34q-105 0 -167.5 70t-62.5 176q0 112 57 180q61 72 171 72q107 0 165 -72q54 -67 54 -177v-14zM121 287h262q-8 54 -42 85.5t-87 31.5q-52 0 -88.5 -33t-44.5 -84z" />
    <glyph glyph-name="f" unicode="f" horiz-adv-x="275" 
d="M294 868v-91q-43 19 -60 19q-42 0 -56 -46q-8 -26 -8 -81v-201h124v-84h-124v-384h-90v384h-41v84h41v228q0 184 151 184q33 0 63 -12z" />
    <glyph glyph-name="g" unicode="g" horiz-adv-x="555" 
d="M263 64q71 0 113 51q39 47 39 119q0 71 -41 119.5t-111 48.5q-67 0 -107.5 -49.5t-40.5 -118.5q0 -70 38 -118q42 -52 110 -52zM500 468v-459q0 -133 -46 -199q-54 -78 -182 -78q-99 0 -162 57t-64 155h90q0 -62 38.5 -97t101.5 -35q77 0 109 50q25 40 25 122v89h-2
q-60 -89 -159 -89q-104 0 -166 76q-58 71 -58 177q0 100 59 171q63 74 161 74q103 0 163 -94h2v80h90z" />
    <glyph glyph-name="h" unicode="h" horiz-adv-x="523" 
d="M62 868h90v-463h2q43 77 141 77q166 0 166 -203v-279h-90v268q0 69 -17 97q-22 37 -86 37q-77 0 -101 -62q-15 -36 -15 -125v-215h-90v868z" />
    <glyph glyph-name="i" unicode="i" horiz-adv-x="254" 
d="M172 468v-468h-90v468h90zM127 745q26 0 44 -18.5t18 -44.5q0 -25 -18 -43t-44 -18t-44 18t-18 43q0 26 18 44.5t44 18.5z" />
    <glyph glyph-name="j" unicode="j" horiz-adv-x="254" 
d="M172 468v-736h-90v736h90zM127 745q26 0 44 -18.5t18 -44.5q0 -25 -18 -43t-44 -18t-44 18t-18 43q0 26 18 44.5t44 18.5z" />
    <glyph glyph-name="k" unicode="k" horiz-adv-x="462" 
d="M158 868v-576l176 176h119l-200 -194l220 -274h-117l-167 213l-31 -31v-182h-90v868h90z" />
    <glyph glyph-name="l" unicode="l" horiz-adv-x="222" 
d="M156 868v-868h-90v868h90z" />
    <glyph glyph-name="m" unicode="m" horiz-adv-x="767" 
d="M149 468v-59h2q46 73 124 73q87 0 135 -83q22 38 61 60.5t83 22.5q155 0 155 -202v-280h-90v265q0 137 -87 137q-64 0 -87 -59q-16 -38 -16 -113v-230h-90v248q0 67 -12 100q-19 54 -74 54q-104 0 -104 -172v-230h-90v468h90z" />
    <glyph glyph-name="n" unicode="n" horiz-adv-x="523" 
d="M152 468v-63h2q43 77 141 77q166 0 166 -203v-279h-90v268q0 69 -17 97q-22 37 -86 37q-77 0 -101 -62q-15 -36 -15 -125v-215h-90v468h90z" />
    <glyph glyph-name="o" unicode="o" horiz-adv-x="540" 
d="M270 482q105 0 177.5 -72t72.5 -177t-72.5 -177t-177.5 -72t-177.5 72t-72.5 177t72.5 177t177.5 72zM270 396q-66 0 -113 -48t-47 -115q0 -66 47 -114.5t113 -48.5t113 48.5t47 114.5q0 67 -47 115t-113 48z" />
    <glyph glyph-name="p" unicode="p" horiz-adv-x="556" 
d="M288 64q71 0 113 51q39 47 39 119q0 71 -41 119.5t-111 48.5q-67 0 -107.5 -49.5t-40.5 -118.5q0 -70 38 -118q42 -52 110 -52zM145 468v-78h2q61 92 163 92q98 0 161 -74q59 -71 59 -171q0 -106 -58 -177q-62 -76 -166 -76q-99 0 -159 89h-2v-341h-90v736h90z" />
    <glyph glyph-name="q" unicode="q" horiz-adv-x="556" 
d="M264 64q71 0 113 51q39 47 39 119q0 71 -41 119.5t-111 48.5q-67 0 -107.5 -49.5t-40.5 -118.5q0 -70 38 -118q42 -52 110 -52zM501 468v-736h-90v341h-2q-60 -89 -159 -89q-104 0 -166 76q-58 71 -58 177q0 100 59 171q63 74 161 74q102 0 163 -92h2v78h90z" />
    <glyph glyph-name="r" unicode="r" horiz-adv-x="351" 
d="M158 468v-76h3q36 90 128 90q38 0 74 -23l-41 -82q-22 19 -55 19q-109 0 -109 -166v-230h-90v468h90z" />
    <glyph glyph-name="s" unicode="s" horiz-adv-x="384" 
d="M323 400l-73 -39q-20 41 -60 41q-19 0 -34 -13.5t-15 -32.5q0 -33 56 -60q95 -46 105 -53q56 -40 56 -104q0 -66 -47.5 -110.5t-113.5 -44.5q-53 0 -97 28q-47 29 -65 77l77 35q33 -60 85 -60q29 0 50 18.5t21 47.5t-33 51l-88 47q-46 25 -65 45q-25 29 -25 73
q0 57 40.5 96.5t97.5 39.5q88 0 128 -82z" />
    <glyph glyph-name="t" unicode="t" horiz-adv-x="240" 
d="M165 384v-384h-90v384h-49v84h49v179h90v-179h88v-84h-88z" />
    <glyph glyph-name="u" unicode="u" horiz-adv-x="512" 
d="M58 468h90v-259q0 -141 108 -141t108 141v259h90v-269q0 -100 -47 -155q-51 -60 -151 -60t-151 60q-47 55 -47 155v269z" />
    <glyph glyph-name="v" unicode="v" horiz-adv-x="445" 
d="M88 468l134 -292l135 292h101l-236 -484l-235 484h101z" />
    <glyph glyph-name="w" unicode="w" horiz-adv-x="718" 
d="M86 468l136 -298l138 324l137 -324l136 298h102l-238 -484l-137 313l-138 -313l-238 484h102z" />
    <glyph glyph-name="x" unicode="x" horiz-adv-x="489" 
d="M195 254l-168 214h106l111 -151l121 151h109l-172 -214l201 -254h-105l-154 190l-149 -190h-109z" />
    <glyph glyph-name="y" unicode="y" horiz-adv-x="484" 
d="M201 80l-214 388h105l158 -297l147 297h101l-379 -736h-102z" />
    <glyph glyph-name="z" unicode="z" horiz-adv-x="495" 
d="M177 84h304v-84h-479l317 384h-263v84h438z" />
    <glyph glyph-name="braceleft" unicode="{" horiz-adv-x="334" 
d="M48 271v73q75 33 75 151v182q0 55 31 96q28 36 54 36h78v-84h-40q-21 0 -27 -19q-4 -11 -4 -43v-184q0 -119 -76 -172q23 -14 43 -45q33 -53 33 -126v-184q0 -32 4 -43q6 -19 27 -19h40v-84h-78q-26 0 -54 36q-31 41 -31 96v182q0 118 -75 151z" />
    <glyph glyph-name="bar" unicode="|" horiz-adv-x="570" 
d="M328 786v-1000h-86v1000h86z" />
    <glyph glyph-name="braceright" unicode="}" horiz-adv-x="334" 
d="M286 344v-73q-75 -33 -75 -151v-182q0 -55 -31 -96q-28 -36 -54 -36h-78v84h40q21 0 27 19q4 11 4 43v184q0 73 33 126q20 31 43 45q-76 53 -76 172v184q0 32 -4 43q-6 19 -27 19h-40v84h78q26 0 54 -36q31 -41 31 -96v-182q0 -118 75 -151z" />
    <glyph glyph-name="asciitilde" unicode="~" 
d="M478 334v0l67 -50q-67 -122 -152 -122q-41 0 -115 51t-90 51q-42 0 -92 -82l-63 45q41 60 63 81q43 42 90 42q42 0 86 -26q14 -9 67 -50q35 -26 53 -26q25 0 46 24q10 12 40 62z" />
    <glyph glyph-name="Adieresis" unicode="&#xc4;" horiz-adv-x="703" 
d="M525 189h-346l-86 -189h-101l360 786l360 -786h-101zM486 275l-134 305l-134 -305h268zM247 955q25 0 42.5 -17.5t17.5 -42.5t-17.5 -43t-42.5 -18t-43 18t-18 43t18 42.5t43 17.5zM458 955q25 0 42.5 -17.5t17.5 -42.5t-17.5 -43t-42.5 -18t-43 18t-18 43t18 42.5
t43 17.5z" />
    <glyph glyph-name="Aring" unicode="&#xc5;" horiz-adv-x="703" 
d="M525 189h-346l-86 -189h-101l360 786l360 -786h-101zM486 275l-134 305l-134 -305h268zM352 985q38 0 64.5 -26.5t26.5 -64.5t-26.5 -64t-64.5 -26q-37 0 -63.5 26.5t-26.5 63.5q0 38 26.5 64.5t63.5 26.5zM352 849q19 0 32.5 13t13.5 32t-13.5 32.5t-32.5 13.5
q-18 0 -31.5 -13.5t-13.5 -32.5t13.5 -32t31.5 -13z" />
    <glyph glyph-name="Ccedilla" unicode="&#xc7;" horiz-adv-x="661" 
d="M621 719v-109q-83 74 -199 74q-125 0 -211.5 -90.5t-86.5 -217.5q0 -125 85.5 -215.5t210.5 -90.5q114 0 201 78v-111q-90 -53 -198 -53q-162 0 -277.5 113t-115.5 276q0 167 117 282t284 115q107 0 190 -51zM410 -46l-105 -135l-53 27l87 137z" />
    <glyph glyph-name="Eacute" unicode="&#xc9;" horiz-adv-x="521" 
d="M72 0v754h405v-86h-311v-211h302v-86h-302v-285h311v-86h-405zM322 995l83 -44l-164 -149l-44 27z" />
    <glyph glyph-name="Ntilde" unicode="&#xd1;" horiz-adv-x="785" 
d="M63 0v790l566 -593v557h94v-785l-566 593v-562h-94zM249 834v0l-47 40l3 5q46 76 108 76q38 0 89.5 -26.5t71.5 -26.5q35 0 64 48l47 -39q-40 -82 -118 -82q-28 0 -81.5 25.5t-79.5 25.5q-35 0 -57 -46z" />
    <glyph glyph-name="Odieresis" unicode="&#xd6;" horiz-adv-x="828" 
d="M414 770q162 0 278.5 -115.5t116.5 -277.5q0 -167 -115 -280t-280 -113t-280 113t-115 280q0 162 116.5 277.5t278.5 115.5zM414 72q123 0 212 88.5t89 216.5q0 127 -84 215q-87 90 -217 90t-215.5 -89t-85.5 -216q0 -128 89 -216.5t212 -88.5zM309 955q25 0 42.5 -17.5
t17.5 -42.5t-17.5 -43t-42.5 -18t-43 18t-18 43t18 42.5t43 17.5zM520 955q25 0 42.5 -17.5t17.5 -42.5t-17.5 -43t-42.5 -18t-43 18t-18 43t18 42.5t43 17.5z" />
    <glyph glyph-name="Udieresis" unicode="&#xdc;" horiz-adv-x="669" 
d="M59 754h94v-445q0 -237 182 -237t182 237v445h94v-477q0 -128 -73 -209q-76 -84 -203 -84t-203 84q-73 81 -73 209v477zM230 955q25 0 42.5 -17.5t17.5 -42.5t-17.5 -43t-42.5 -18t-43 18t-18 43t18 42.5t43 17.5zM441 955q25 0 42.5 -17.5t17.5 -42.5t-17.5 -43
t-42.5 -18t-43 18t-18 43t18 42.5t43 17.5z" />
    <glyph glyph-name="aacute" unicode="&#xe1;" horiz-adv-x="556" 
d="M264 64q71 0 113 51q39 47 39 119q0 71 -41 119.5t-111 48.5q-67 0 -107.5 -49.5t-40.5 -118.5q0 -70 38 -118q42 -52 110 -52zM501 468v-468h-90v73h-2q-60 -89 -159 -89q-103 0 -166 76q-58 71 -58 177q0 100 61 172.5t160 72.5q101 0 162 -92h2v78h90zM339 734l83 -44
l-164 -149l-44 27z" />
    <glyph glyph-name="agrave" unicode="&#xe0;" horiz-adv-x="556" 
d="M264 64q71 0 113 51q39 47 39 119q0 71 -41 119.5t-111 48.5q-67 0 -107.5 -49.5t-40.5 -118.5q0 -70 38 -118q42 -52 110 -52zM501 468v-468h-90v73h-2q-60 -89 -159 -89q-103 0 -166 76q-58 71 -58 177q0 100 61 172.5t160 72.5q101 0 162 -92h2v78h90zM159 690l83 44
l125 -166l-44 -27z" />
    <glyph glyph-name="acircumflex" unicode="&#xe2;" horiz-adv-x="556" 
d="M264 64q71 0 113 51q39 47 39 119q0 71 -41 119.5t-111 48.5q-67 0 -107.5 -49.5t-40.5 -118.5q0 -70 38 -118q42 -52 110 -52zM501 468v-468h-90v73h-2q-60 -89 -159 -89q-103 0 -166 76q-58 71 -58 177q0 100 61 172.5t160 72.5q101 0 162 -92h2v78h90zM118 589
l159 145l161 -145l-59 -46l-102 96l-101 -96z" />
    <glyph glyph-name="adieresis" unicode="&#xe4;" horiz-adv-x="556" 
d="M264 64q71 0 113 51q39 47 39 119q0 71 -41 119.5t-111 48.5q-67 0 -107.5 -49.5t-40.5 -118.5q0 -70 38 -118q42 -52 110 -52zM501 468v-468h-90v73h-2q-60 -89 -159 -89q-103 0 -166 76q-58 71 -58 177q0 100 61 172.5t160 72.5q101 0 162 -92h2v78h90zM173 694
q25 0 42.5 -17.5t17.5 -42.5t-17.5 -43t-42.5 -18t-43 18t-18 43t18 42.5t43 17.5zM384 694q25 0 42.5 -17.5t17.5 -42.5t-17.5 -43t-42.5 -18t-43 18t-18 43t18 42.5t43 17.5z" />
    <glyph glyph-name="atilde" unicode="&#xe3;" horiz-adv-x="556" 
d="M264 64q71 0 113 51q39 47 39 119q0 71 -41 119.5t-111 48.5q-67 0 -107.5 -49.5t-40.5 -118.5q0 -70 38 -118q42 -52 110 -52zM501 468v-468h-90v73h-2q-60 -89 -159 -89q-103 0 -166 76q-58 71 -58 177q0 100 61 172.5t160 72.5q101 0 162 -92h2v78h90zM134 573v0
l-47 40l3 5q46 76 108 76q38 0 89.5 -26.5t71.5 -26.5q35 0 64 48l47 -39q-40 -82 -118 -82q-28 0 -81.5 25.5t-79.5 25.5q-35 0 -57 -46z" />
    <glyph glyph-name="aring" unicode="&#xe5;" horiz-adv-x="556" 
d="M264 64q71 0 113 51q39 47 39 119q0 71 -41 119.5t-111 48.5q-67 0 -107.5 -49.5t-40.5 -118.5q0 -70 38 -118q42 -52 110 -52zM501 468v-468h-90v73h-2q-60 -89 -159 -89q-103 0 -166 76q-58 71 -58 177q0 100 61 172.5t160 72.5q101 0 162 -92h2v78h90zM278 734
q38 0 64.5 -26.5t26.5 -64.5t-26.5 -64t-64.5 -26q-37 0 -63.5 26.5t-26.5 63.5q0 38 26.5 64.5t63.5 26.5zM278 598q19 0 32.5 13t13.5 32t-13.5 32.5t-32.5 13.5q-18 0 -31.5 -13.5t-13.5 -32.5t13.5 -32t31.5 -13z" />
    <glyph glyph-name="ccedilla" unicode="&#xe7;" horiz-adv-x="441" 
d="M406 451v-116q-55 63 -134 63q-65 0 -110.5 -49t-45.5 -115q0 -72 45.5 -119t116.5 -47q73 0 128 62v-115q-58 -31 -129 -31q-104 0 -177.5 71t-73.5 175q0 108 73.5 180t182.5 72q71 0 124 -31zM300 -46l-105 -135l-53 27l87 137z" />
    <glyph glyph-name="eacute" unicode="&#xe9;" horiz-adv-x="488" 
d="M473 219h-357q1 -63 39 -107q40 -48 102 -48q85 0 140 91l76 -43q-33 -60 -90.5 -94t-126.5 -34q-105 0 -167.5 70t-62.5 176q0 112 57 180q61 72 171 72q107 0 165 -72q54 -67 54 -177v-14zM121 287h262q-8 54 -42 85.5t-87 31.5q-52 0 -88.5 -33t-44.5 -84zM305 734
l83 -44l-164 -149l-44 27z" />
    <glyph glyph-name="egrave" unicode="&#xe8;" horiz-adv-x="488" 
d="M473 219h-357q1 -63 39 -107q40 -48 102 -48q85 0 140 91l76 -43q-33 -60 -90.5 -94t-126.5 -34q-105 0 -167.5 70t-62.5 176q0 112 57 180q61 72 171 72q107 0 165 -72q54 -67 54 -177v-14zM121 287h262q-8 54 -42 85.5t-87 31.5q-52 0 -88.5 -33t-44.5 -84zM125 690
l83 44l125 -166l-44 -27z" />
    <glyph glyph-name="ecircumflex" unicode="&#xea;" horiz-adv-x="488" 
d="M473 219h-357q1 -63 39 -107q40 -48 102 -48q85 0 140 91l76 -43q-33 -60 -90.5 -94t-126.5 -34q-105 0 -167.5 70t-62.5 176q0 112 57 180q61 72 171 72q107 0 165 -72q54 -67 54 -177v-14zM121 287h262q-8 54 -42 85.5t-87 31.5q-52 0 -88.5 -33t-44.5 -84zM84 589
l159 145l161 -145l-59 -46l-102 96l-101 -96z" />
    <glyph glyph-name="edieresis" unicode="&#xeb;" horiz-adv-x="488" 
d="M473 219h-357q1 -63 39 -107q40 -48 102 -48q85 0 140 91l76 -43q-33 -60 -90.5 -94t-126.5 -34q-105 0 -167.5 70t-62.5 176q0 112 57 180q61 72 171 72q107 0 165 -72q54 -67 54 -177v-14zM121 287h262q-8 54 -42 85.5t-87 31.5q-52 0 -88.5 -33t-44.5 -84zM139 694
q25 0 42.5 -17.5t17.5 -42.5t-17.5 -43t-42.5 -18t-43 18t-18 43t18 42.5t43 17.5zM350 694q25 0 42.5 -17.5t17.5 -42.5t-17.5 -43t-42.5 -18t-43 18t-18 43t18 42.5t43 17.5z" />
    <glyph glyph-name="iacute" unicode="&#xed;" horiz-adv-x="254" 
d="M172 468v-468h-90v468h90zM178 734l83 -44l-164 -149l-44 27z" />
    <glyph glyph-name="igrave" unicode="&#xec;" horiz-adv-x="254" 
d="M172 468v-468h-90v468h90zM-7 690l83 44l125 -166l-44 -27z" />
    <glyph glyph-name="icircumflex" unicode="&#xee;" horiz-adv-x="254" 
d="M172 468v-468h-90v468h90zM-33 589l159 145l161 -145l-59 -46l-102 96l-101 -96z" />
    <glyph glyph-name="idieresis" unicode="&#xef;" horiz-adv-x="254" 
d="M172 468v-468h-90v468h90zM22 694q25 0 42.5 -17.5t17.5 -42.5t-17.5 -43t-42.5 -18t-43 18t-18 43t18 42.5t43 17.5zM233 694q25 0 42.5 -17.5t17.5 -42.5t-17.5 -43t-42.5 -18t-43 18t-18 43t18 42.5t43 17.5z" />
    <glyph glyph-name="ntilde" unicode="&#xf1;" horiz-adv-x="523" 
d="M152 468v-63h2q43 77 141 77q166 0 166 -203v-279h-90v268q0 69 -17 97q-22 37 -86 37q-77 0 -101 -62q-15 -36 -15 -125v-215h-90v468h90zM118 573v0l-47 40l3 5q46 76 108 76q38 0 89.5 -26.5t71.5 -26.5q35 0 64 48l47 -39q-40 -82 -118 -82q-28 0 -81.5 25.5
t-79.5 25.5q-35 0 -57 -46z" />
    <glyph glyph-name="oacute" unicode="&#xf3;" horiz-adv-x="540" 
d="M270 482q105 0 177.5 -72t72.5 -177t-72.5 -177t-177.5 -72t-177.5 72t-72.5 177t72.5 177t177.5 72zM270 396q-66 0 -113 -48t-47 -115q0 -66 47 -114.5t113 -48.5t113 48.5t47 114.5q0 67 -47 115t-113 48zM331 734l83 -44l-164 -149l-44 27z" />
    <glyph glyph-name="ograve" unicode="&#xf2;" horiz-adv-x="540" 
d="M270 482q105 0 177.5 -72t72.5 -177t-72.5 -177t-177.5 -72t-177.5 72t-72.5 177t72.5 177t177.5 72zM270 396q-66 0 -113 -48t-47 -115q0 -66 47 -114.5t113 -48.5t113 48.5t47 114.5q0 67 -47 115t-113 48zM126 690l83 44l125 -166l-44 -27z" />
    <glyph glyph-name="ocircumflex" unicode="&#xf4;" horiz-adv-x="540" 
d="M270 482q105 0 177.5 -72t72.5 -177t-72.5 -177t-177.5 -72t-177.5 72t-72.5 177t72.5 177t177.5 72zM270 396q-66 0 -113 -48t-47 -115q0 -66 47 -114.5t113 -48.5t113 48.5t47 114.5q0 67 -47 115t-113 48zM110 589l159 145l161 -145l-59 -46l-102 96l-101 -96z" />
    <glyph glyph-name="odieresis" unicode="&#xf6;" horiz-adv-x="540" 
d="M270 482q105 0 177.5 -72t72.5 -177t-72.5 -177t-177.5 -72t-177.5 72t-72.5 177t72.5 177t177.5 72zM270 396q-66 0 -113 -48t-47 -115q0 -66 47 -114.5t113 -48.5t113 48.5t47 114.5q0 67 -47 115t-113 48zM165 694q25 0 42.5 -17.5t17.5 -42.5t-17.5 -43t-42.5 -18
t-43 18t-18 43t18 42.5t43 17.5zM376 694q25 0 42.5 -17.5t17.5 -42.5t-17.5 -43t-42.5 -18t-43 18t-18 43t18 42.5t43 17.5z" />
    <glyph glyph-name="otilde" unicode="&#xf5;" horiz-adv-x="540" 
d="M270 482q105 0 177.5 -72t72.5 -177t-72.5 -177t-177.5 -72t-177.5 72t-72.5 177t72.5 177t177.5 72zM270 396q-66 0 -113 -48t-47 -115q0 -66 47 -114.5t113 -48.5t113 48.5t47 114.5q0 67 -47 115t-113 48zM126 573v0l-47 40l3 5q46 76 108 76q38 0 89.5 -26.5
t71.5 -26.5q35 0 64 48l47 -39q-40 -82 -118 -82q-28 0 -81.5 25.5t-79.5 25.5q-35 0 -57 -46z" />
    <glyph glyph-name="uacute" unicode="&#xfa;" horiz-adv-x="512" 
d="M58 468h90v-259q0 -141 108 -141t108 141v259h90v-269q0 -100 -47 -155q-51 -60 -151 -60t-151 60q-47 55 -47 155v269zM317 734l83 -44l-164 -149l-44 27z" />
    <glyph glyph-name="ugrave" unicode="&#xf9;" horiz-adv-x="512" 
d="M58 468h90v-259q0 -141 108 -141t108 141v259h90v-269q0 -100 -47 -155q-51 -60 -151 -60t-151 60q-47 55 -47 155v269zM112 690l83 44l125 -166l-44 -27z" />
    <glyph glyph-name="ucircumflex" unicode="&#xfb;" horiz-adv-x="512" 
d="M58 468h90v-259q0 -141 108 -141t108 141v259h90v-269q0 -100 -47 -155q-51 -60 -151 -60t-151 60q-47 55 -47 155v269zM96 589l159 145l161 -145l-59 -46l-102 96l-101 -96z" />
    <glyph glyph-name="udieresis" unicode="&#xfc;" horiz-adv-x="512" 
d="M58 468h90v-259q0 -141 108 -141t108 141v259h90v-269q0 -100 -47 -155q-51 -60 -151 -60t-151 60q-47 55 -47 155v269zM151 694q25 0 42.5 -17.5t17.5 -42.5t-17.5 -43t-42.5 -18t-43 18t-18 43t18 42.5t43 17.5zM362 694q25 0 42.5 -17.5t17.5 -42.5t-17.5 -43
t-42.5 -18t-43 18t-18 43t18 42.5t43 17.5z" />
    <glyph glyph-name="dagger" unicode="&#x2020;" 
d="M244 868h90v-275h181v-86h-181v-595h-90v595h-181v86h181v275z" />
    <glyph glyph-name="degree" unicode="&#xb0;" horiz-adv-x="400" 
d="M350 620q0 -62 -44 -106t-106 -44t-106 44t-44 106t44 106t106 44t106 -44t44 -106zM199 720q-42 0 -70.5 -29t-28.5 -71q0 -43 28.5 -71.5t71.5 -28.5q42 0 71 28.5t29 71.5q0 42 -29 71t-72 29z" />
    <glyph glyph-name="cent" unicode="&#xa2;" 
d="M356 704v-76q74 -4 122 -31v-115h-2q-47 61 -120 63v-328q73 10 122 62v-117q-53 -25 -105 -28l-17 -1v-85h-48v89q-91 14 -149.5 81t-58.5 159q0 94 58 164.5t150 84.5v78h48zM308 220v319q-51 -6 -87 -58q-33 -48 -33 -100q0 -56 33 -103t87 -58z" />
    <glyph glyph-name="sterling" unicode="&#xa3;" 
d="M90 -16l-79 40q31 54 61 79q39 32 93 34q14 47 14 82q0 44 -22 82h-129v58h100q-58 110 -58 180q0 95 77 164q74 67 170 67q105 0 170 -64.5t70 -169.5l-90 -34v28q0 63 -41.5 107.5t-104.5 44.5q-61 0 -111 -47.5t-50 -103.5q0 -43 25 -93l46 -79h148v-58h-124
q14 -45 14 -85q0 -39 -14 -87l74 -26l46 -18q29 -11 48 -11q41 0 83 74l75 -46q-50 -118 -156 -118q-46 0 -128.5 32.5t-118.5 32.5q-62 0 -88 -65z" />
    <glyph glyph-name="section" unicode="&#xa7;" 
d="M214 335l175 -87q60 38 60 105q0 32 -24 55q-15 14 -52 33l-184 93q-60 -38 -60 -106q0 -34 27 -58q17 -14 58 -35zM310 192l-141 69q-67 33 -92 58q-37 37 -37 99q0 90 96 162q-44 50 -44 111q0 75 59 127q56 50 132 50q80 0 135 -44q59 -46 64 -124h-87q-2 41 -35.5 65
t-76.5 24q-42 0 -71.5 -29t-29.5 -71q0 -58 85 -101l133 -67q65 -33 92 -57q46 -40 46 -92q0 -104 -89 -169q53 -50 53 -122q0 -86 -63 -139.5t-150 -53.5q-99 0 -161 57q-65 59 -65 158v15h89q-2 -62 36 -105t100 -43q49 0 86.5 32t37.5 81q0 39 -34 68q-19 17 -68 41z" />
    <glyph glyph-name="bullet" unicode="&#x2022;" 
d="M289 189q-78 0 -133 55t-55 133q0 79 54.5 134t133.5 55t134 -55t55 -134q0 -78 -55.5 -133t-133.5 -55z" />
    <glyph glyph-name="paragraph" unicode="&#xb6;" 
d="M538 754v-84h-61v-823h-84v823h-62v-823h-84v436q-86 0 -142.5 57t-63.5 157q-7 95 55 174q65 83 160 83h282z" />
    <glyph glyph-name="germandbls" unicode="&#xdf;" horiz-adv-x="580" 
d="M282 -16v84q78 0 136.5 56t58.5 134q0 84 -57 133q-52 46 -138 52v88q57 -1 96 39.5t39 98.5q0 55 -38 91t-92 36q-86 0 -114 -82q-15 -45 -15 -155v-559h-90v386h-40v84h40v148q0 262 222 262q93 0 155 -61t62 -155q0 -111 -96 -167q72 -23 115 -94q41 -66 41 -145
q0 -117 -84.5 -198t-200.5 -76z" />
    <glyph glyph-name="registered" unicode="&#xae;" horiz-adv-x="800" 
d="M400 -16q-165 0 -279.5 114.5t-114.5 278.5t114.5 278.5t279.5 114.5t279.5 -114.5t114.5 -278.5t-114.5 -278.5t-279.5 -114.5zM400 706q-136 0 -233 -95.5t-97 -233.5t97 -233.5t233 -95.5t233 95.5t97 233.5t-97 233.5t-233 95.5zM468 357l112 -204h-73l-113 204h-82
v-204h-64v442h186q152 0 152 -117q0 -60 -37 -92q-31 -27 -81 -29zM422 531h-110v-110h68q80 0 94 3q48 8 48 47q0 38 -30 51q-21 9 -70 9z" />
    <glyph glyph-name="copyright" unicode="&#xa9;" horiz-adv-x="800" 
d="M400 -16q-165 0 -279.5 114.5t-114.5 278.5t114.5 278.5t279.5 114.5t279.5 -114.5t114.5 -278.5t-114.5 -278.5t-279.5 -114.5zM400 706q-136 0 -233 -95.5t-97 -233.5t97 -233.5t233 -95.5t233 95.5t97 233.5t-97 233.5t-233 95.5zM600 458h-61q-19 85 -125 85
q-76 0 -117 -51q-36 -44 -36 -110q0 -72 41 -118t114 -46q102 0 123 89h61q-9 -69 -61.5 -111t-122.5 -42q-98 0 -158.5 65t-60.5 161q0 100 59 163.5t159 63.5q71 0 121.5 -40t63.5 -109z" />
    <glyph glyph-name="trademark" unicode="&#x2122;" horiz-adv-x="940" 
d="M906 754v-421h-64v357h-2l-144 -357h-39l-140 357h-2v-357h-64v421h105l121 -297l125 297h104zM374 754v-64h-138v-357h-64v357h-138v64h340z" />
    <glyph glyph-name="acute" unicode="&#xb4;" horiz-adv-x="360" 
d="M201 734l83 -44l-164 -149l-44 27z" />
    <glyph glyph-name="dieresis" unicode="&#xa8;" horiz-adv-x="470" 
d="M130 694q25 0 42.5 -17.5t17.5 -42.5t-17.5 -43t-42.5 -18t-43 18t-18 43t18 42.5t43 17.5zM341 694q25 0 42.5 -17.5t17.5 -42.5t-17.5 -43t-42.5 -18t-43 18t-18 43t18 42.5t43 17.5z" />
    <glyph glyph-name="AE" unicode="&#xc6;" horiz-adv-x="997" 
d="M532 189h-343l-86 -189h-103l362 754h330l38 -86h-309l91 -211h301l40 -86h-302l121 -285h311l38 -86h-406zM497 275l-130 292l-138 -292h268z" />
    <glyph glyph-name="Oslash" unicode="&#xd8;" horiz-adv-x="828" 
d="M659 557l-428 -422q81 -63 183 -63q123 0 212 88.5t89 216.5q0 102 -56 180zM178 189l430 423q-80 70 -194 70q-130 0 -215.5 -89t-85.5 -216q0 -107 65 -188zM7 21l104 102q-92 108 -92 254q0 162 116.5 277.5t278.5 115.5q146 0 257 -96l96 95l54 -53l-98 -96
q86 -108 86 -243q0 -167 -115 -280t-280 -113q-141 0 -249 86l-104 -102z" />
    <glyph glyph-name="plusminus" unicode="&#xb1;" 
d="M33 0v86h512v-86h-512zM246 562h86v-173h213v-86h-213v-173h-86v173h-213v86h213v173z" />
    <glyph glyph-name="yen" unicode="&#xa5;" 
d="M336 260v-260h-94v260h-236v58h236v10l-54 94h-182v58h148l-158 274h108l185 -322l185 322h108l-158 -274h148v-58h-181l-55 -94v-10h236v-58h-236z" />
    <glyph glyph-name="mu" unicode="&#xb5;" horiz-adv-x="512" 
d="M58 468h90v-259q0 -141 108 -141t108 141v259h90v-269q0 -100 -47 -155q-51 -60 -151 -60q-56 0 -108 44v-296h-90v736z" />
    <glyph glyph-name="mu" unicode="&#x3bc;" horiz-adv-x="512" 
d="M58 468h90v-259q0 -141 108 -141t108 141v259h90v-269q0 -100 -47 -155q-51 -60 -151 -60q-56 0 -108 44v-296h-90v736z" />
    <glyph glyph-name="ordfeminine" unicode="&#xaa;" horiz-adv-x="334" 
d="M167 519q46 0 74 30q25 29 25 72t-26.5 72t-72.5 29q-43 0 -69.5 -30t-26.5 -71q0 -42 26 -72t70 -30zM322 761v-280h-59v43h-2q-39 -53 -103 -53q-67 0 -108 46q-38 42 -38 106q0 60 40 103.5t104 43.5t106 -55h1v46h59z" />
    <glyph glyph-name="ordmasculine" unicode="&#xba;" horiz-adv-x="324" 
d="M162 770q68 0 115.5 -43t47.5 -107q0 -63 -47.5 -106t-115.5 -43t-115 43t-47 106q0 64 47 107t115 43zM162 718q-43 0 -73 -28.5t-30 -69.5q0 -39 30 -68t73 -29t73.5 29t30.5 68q0 41 -30.5 69.5t-73.5 28.5z" />
    <glyph glyph-name="ae" unicode="&#xe6;" horiz-adv-x="807" 
d="M442 287h262q-8 54 -42 85.5t-87 31.5q-52 0 -88.5 -33t-44.5 -84zM221 218q-41 0 -73 -19q-38 -22 -38 -60t40 -58q32 -17 74 -17q43 0 76 18q40 21 40 60q0 38 -43 59q-33 17 -76 17zM792 219h-357q1 -63 39 -107q40 -48 102 -48q85 0 140 91l76 -43q-33 -60 -90.5 -94
t-126.5 -34q-105 0 -180 87q-58 -87 -179 -87q-76 0 -129 37q-61 42 -61 116q0 73 53 117q49 40 124 40q90 0 142 -43v32q0 121 -123 121q-81 0 -128 -15v80q66 13 141 13q48 0 91 -18q48 -21 69 -59q62 77 178 77q107 0 165 -72q54 -67 54 -177v-14z" />
    <glyph glyph-name="oslash" unicode="&#xf8;" horiz-adv-x="540" 
d="M139 141l223 225q-42 30 -92 30q-66 0 -113 -48t-47 -115q0 -50 29 -92zM405 319l-221 -223q38 -26 86 -26q66 0 113 48.5t47 114.5q0 49 -25 86zM8 9l67 67q-55 66 -55 157q0 105 72.5 177t177.5 72q87 0 155 -52l61 61l46 -43l-62 -63q50 -66 50 -152
q0 -105 -72.5 -177t-177.5 -72q-85 0 -149 48l-69 -70z" />
    <glyph glyph-name="questiondown" unicode="&#xbf;" horiz-adv-x="453" 
d="M152 157h-91q-3 64 47 112.5t115 48.5q67 0 114 -46.5t47 -113.5q0 -80 -65 -120l-121 -50q-65 -28 -65 -82q0 -41 26 -65t66 -24q35 0 60.5 25.5t25.5 60.5q0 10 -6 32h94l2 -33q4 -71 -51 -120.5t-128 -49.5q-76 0 -128 51t-52 126q0 77 54 124q32 28 124 56
q73 22 73 73q0 30 -20 51t-50 21q-32 0 -52 -22.5t-19 -54.5zM223 508q24 0 41 -17.5t17 -40.5q0 -24 -17 -41t-41 -17t-41 17t-17 41q0 23 17 40.5t41 17.5z" />
    <glyph glyph-name="exclamdown" unicode="&#xa1;" horiz-adv-x="321" 
d="M161 508q24 0 41 -17.5t17 -40.5q0 -24 -17 -41t-41 -17t-41 17t-17 41q0 23 17 40.5t41 17.5zM116 323h90v-581h-90v581z" />
    <glyph glyph-name="logicalnot" unicode="&#xac;" 
d="M459 115v184h-426v86h512v-270h-86z" />
    <glyph glyph-name="florin" unicode="&#x192;" 
d="M355 505h129l-9 -68h-131l-55 -303q-27 -148 -64 -202q-56 -81 -187 -81h-24l15 86h19q77 0 111 59q19 34 36 133l53 308h-65l9 68h70l21 124q17 100 55 148q48 59 142 59q33 0 60 -7l-16 -84q-18 7 -41 7q-54 0 -78 -42q-15 -24 -28 -92z" />
    <glyph glyph-name="guillemotleft" unicode="&#xab;" horiz-adv-x="523" 
d="M311 320l149 -191l-56 -41l-182 232l182 240l56 -41zM119 320l149 -191l-56 -41l-182 232l182 240l56 -41z" />
    <glyph glyph-name="guillemotright" unicode="&#xbb;" horiz-adv-x="523" 
d="M63 129l149 191l-149 199l56 41l182 -240l-182 -232zM255 129l149 191l-149 199l56 41l182 -240l-182 -232z" />
    <glyph glyph-name="ellipsis" unicode="&#x2026;" horiz-adv-x="1000" 
d="M500 100q24 0 41 -17.5t17 -40.5q0 -24 -17 -41t-41 -17t-41 17t-17 41q0 23 17 40.5t41 17.5zM834 100q24 0 41 -17.5t17 -40.5q0 -24 -17 -41t-41 -17t-41 17t-17 41q0 23 17 40.5t41 17.5zM166 100q24 0 41 -17.5t17 -40.5q0 -24 -17 -41t-41 -17t-41 17t-17 41
q0 23 17 40.5t41 17.5z" />
    <glyph glyph-name="Agrave" unicode="&#xc0;" horiz-adv-x="703" 
d="M525 189h-346l-86 -189h-101l360 786l360 -786h-101zM486 275l-134 305l-134 -305h268zM208 951l83 44l125 -166l-44 -27z" />
    <glyph glyph-name="Atilde" unicode="&#xc3;" horiz-adv-x="703" 
d="M525 189h-346l-86 -189h-101l360 786l360 -786h-101zM486 275l-134 305l-134 -305h268zM208 834v0l-47 40l3 5q46 76 108 76q38 0 89.5 -26.5t71.5 -26.5q35 0 64 48l47 -39q-40 -82 -118 -82q-28 0 -81.5 25.5t-79.5 25.5q-35 0 -57 -46z" />
    <glyph glyph-name="Otilde" unicode="&#xd5;" horiz-adv-x="828" 
d="M414 770q162 0 278.5 -115.5t116.5 -277.5q0 -167 -115 -280t-280 -113t-280 113t-115 280q0 162 116.5 277.5t278.5 115.5zM414 72q123 0 212 88.5t89 216.5q0 127 -84 215q-87 90 -217 90t-215.5 -89t-85.5 -216q0 -128 89 -216.5t212 -88.5zM270 834v0l-47 40l3 5
q46 76 108 76q38 0 89.5 -26.5t71.5 -26.5q35 0 64 48l47 -39q-40 -82 -118 -82q-28 0 -81.5 25.5t-79.5 25.5q-35 0 -57 -46z" />
    <glyph glyph-name="OE" unicode="&#x152;" horiz-adv-x="1143" 
d="M718 0v126h-2q-50 -68 -130 -105t-172 -37q-164 0 -279.5 113t-115.5 280q0 162 116.5 278.5t278.5 114.5q89 -1 169 -39q84 -40 133 -109h2v132h395v-86h-310v-211h301v-86h-301v-285h310v-86h-395zM414 72q123 0 212 88.5t89 216.5q0 127 -84 215q-87 90 -217 90
t-215.5 -89t-85.5 -216q0 -128 89 -216.5t212 -88.5z" />
    <glyph glyph-name="oe" unicode="&#x153;" horiz-adv-x="897" 
d="M529 287h262q-8 54 -42 85.5t-87 31.5q-52 0 -88.5 -33t-44.5 -84zM270 396q-66 0 -113 -48t-47 -115q0 -66 47 -114.5t113 -48.5t113 48.5t47 114.5q0 67 -47 115t-113 48zM882 219h-357q1 -63 39 -107q40 -48 102 -48q85 0 140 91l76 -43q-33 -60 -90.5 -94t-126.5 -34
q-60 0 -113 27t-82 76q-33 -49 -87 -76t-113 -27q-105 0 -177.5 72t-72.5 177q0 106 72.5 178t177.5 71q58 -1 113 -29t87 -76q65 103 193 105q107 1 165 -72q54 -67 54 -177v-14z" />
    <glyph glyph-name="endash" unicode="&#x2013;" horiz-adv-x="500" 
d="M0 358h500v-75h-500v75z" />
    <glyph glyph-name="emdash" unicode="&#x2014;" horiz-adv-x="1000" 
d="M130 358h740v-75h-740v75z" />
    <glyph glyph-name="quotedblleft" unicode="&#x201c;" horiz-adv-x="439" 
d="M305 472l-79 31l133 267l56 -23zM139 472l-79 31l133 267l56 -23z" />
    <glyph glyph-name="quotedblright" unicode="&#x201d;" horiz-adv-x="439" 
d="M134 770l79 -31l-133 -267l-56 23zM300 770l79 -31l-133 -267l-56 23z" />
    <glyph glyph-name="quoteleft" unicode="&#x2018;" horiz-adv-x="277" 
d="M139 472l-79 31l133 267l56 -23z" />
    <glyph glyph-name="quoteright" unicode="&#x2019;" horiz-adv-x="277" 
d="M138 770l79 -31l-133 -267l-56 23z" />
    <glyph glyph-name="divide" unicode="&#xf7;" 
d="M33 213v86h512v-86h-512zM289 124q26 0 44 -18.5t18 -44.5q0 -25 -18 -43t-44 -18t-44 18t-18 43q0 26 18 44.5t44 18.5zM289 512q26 0 44 -18.5t18 -44.5q0 -25 -18 -43t-44 -18t-44 18t-18 43q0 26 18 44.5t44 18.5z" />
    <glyph glyph-name="ydieresis" unicode="&#xff;" horiz-adv-x="484" 
d="M201 80l-214 388h105l158 -297l147 297h101l-379 -736h-102zM147 694q25 0 42.5 -17.5t17.5 -42.5t-17.5 -43t-42.5 -18t-43 18t-18 43t18 42.5t43 17.5zM358 694q25 0 42.5 -17.5t17.5 -42.5t-17.5 -43t-42.5 -18t-43 18t-18 43t18 42.5t43 17.5z" />
    <glyph glyph-name="Ydieresis" unicode="&#x178;" horiz-adv-x="573" 
d="M240 328l-246 426h108l185 -322l185 322h108l-246 -426v-328h-94v328zM194 955q25 0 42.5 -17.5t17.5 -42.5t-17.5 -43t-42.5 -18t-43 18t-18 43t18 42.5t43 17.5zM405 955q25 0 42.5 -17.5t17.5 -42.5t-17.5 -43t-42.5 -18t-43 18t-18 43t18 42.5t43 17.5z" />
    <glyph glyph-name="currency" unicode="&#xa4;" 
d="M483 546l60 -60l-41 -44q42 -66 42 -142t-42 -142l41 -44l-60 -60l-46 44q-63 -48 -148 -48t-148 48l-46 -44l-60 60l41 44q-42 66 -42 142t42 142l-41 44l60 60l46 -44q63 48 148 48t148 -48zM289 130q72 0 123 50t52 120q1 74 -49 122t-126 48t-126.5 -48t-48.5 -122
q1 -70 52 -120t123 -50z" />
    <glyph glyph-name="guilsinglleft" unicode="&#x2039;" horiz-adv-x="336" 
d="M111 320l149 -191l-56 -41l-182 232l182 240l56 -41z" />
    <glyph glyph-name="guilsinglright" unicode="&#x203a;" horiz-adv-x="336" 
d="M76 129l149 191l-149 199l56 41l182 -240l-182 -232z" />
    <glyph glyph-name="daggerdbl" unicode="&#x2021;" 
d="M244 868h90v-239h181v-86h-181v-122h181v-86h-181v-422h-90v422h-181v86h181v122h-181v86h181v239z" />
    <glyph glyph-name="periodcentered" unicode="&#xb7;" horiz-adv-x="289" 
d="M145 314q24 0 41 -17.5t17 -40.5q0 -24 -17 -41t-41 -17t-41 17t-17 41q0 23 17 40.5t41 17.5z" />
    <glyph glyph-name="periodcentered" unicode="&#x2219;" horiz-adv-x="289" 
d="M145 314q24 0 41 -17.5t17 -40.5q0 -24 -17 -41t-41 -17t-41 17t-17 41q0 23 17 40.5t41 17.5z" />
    <glyph glyph-name="quotesinglbase" unicode="&#x201a;" horiz-adv-x="277" 
d="M164 119l78 -31l-133 -267l-55 23z" />
    <glyph glyph-name="quotedblbase" unicode="&#x201e;" horiz-adv-x="439" 
d="M160 119l78 -31l-133 -267l-55 23zM326 119l78 -31l-133 -267l-55 23z" />
    <glyph glyph-name="perthousand" unicode="&#x2030;" horiz-adv-x="1110" 
d="M198 770q72 0 124 -50.5t52 -121.5t-52.5 -121t-123.5 -50t-123.5 50t-52.5 121t52 121.5t124 50.5zM198 710q-47 0 -81.5 -33t-34.5 -79q0 -45 34.5 -78t81.5 -33t81.5 33t34.5 78q0 46 -34.5 79t-81.5 33zM557 770l45 -26l-440 -760l-46 25zM521 327q72 0 124 -50.5
t52 -121.5t-52.5 -121t-123.5 -50t-123.5 50t-52.5 121t52 121.5t124 50.5zM521 267q-47 0 -81.5 -33t-34.5 -79q0 -45 34.5 -78t81.5 -33t81.5 33t34.5 78q0 46 -34.5 79t-81.5 33zM913 327q72 0 124 -50.5t52 -121.5t-52.5 -121t-123.5 -50t-123.5 50t-52.5 121t52 121.5
t124 50.5zM913 267q-47 0 -81.5 -33t-34.5 -79q0 -45 34.5 -78t81.5 -33t81.5 33t34.5 78q0 46 -34.5 79t-81.5 33z" />
    <glyph glyph-name="Acircumflex" unicode="&#xc2;" horiz-adv-x="703" 
d="M525 189h-346l-86 -189h-101l360 786l360 -786h-101zM486 275l-134 305l-134 -305h268zM192 850l159 145l161 -145l-59 -46l-102 96l-101 -96z" />
    <glyph glyph-name="Ecircumflex" unicode="&#xca;" horiz-adv-x="521" 
d="M72 0v754h405v-86h-311v-211h302v-86h-302v-285h311v-86h-405zM113 850l159 145l161 -145l-59 -46l-102 96l-101 -96z" />
    <glyph glyph-name="Aacute" unicode="&#xc1;" horiz-adv-x="703" 
d="M525 189h-346l-86 -189h-101l360 786l360 -786h-101zM486 275l-134 305l-134 -305h268zM413 995l83 -44l-164 -149l-44 27z" />
    <glyph glyph-name="Edieresis" unicode="&#xcb;" horiz-adv-x="521" 
d="M72 0v754h405v-86h-311v-211h302v-86h-302v-285h311v-86h-405zM168 955q25 0 42.5 -17.5t17.5 -42.5t-17.5 -43t-42.5 -18t-43 18t-18 43t18 42.5t43 17.5zM379 955q25 0 42.5 -17.5t17.5 -42.5t-17.5 -43t-42.5 -18t-43 18t-18 43t18 42.5t43 17.5z" />
    <glyph glyph-name="Egrave" unicode="&#xc8;" horiz-adv-x="521" 
d="M72 0v754h405v-86h-311v-211h302v-86h-302v-285h311v-86h-405zM137 951l83 44l125 -166l-44 -27z" />
    <glyph glyph-name="Iacute" unicode="&#xcd;" horiz-adv-x="232" 
d="M163 754v-754h-94v754h94zM167 995l83 -44l-164 -149l-44 27z" />
    <glyph glyph-name="Icircumflex" unicode="&#xce;" horiz-adv-x="232" 
d="M163 754v-754h-94v754h94zM-44 850l159 145l161 -145l-59 -46l-102 96l-101 -96z" />
    <glyph glyph-name="Idieresis" unicode="&#xcf;" horiz-adv-x="232" 
d="M163 754v-754h-94v754h94zM11 955q25 0 42.5 -17.5t17.5 -42.5t-17.5 -43t-42.5 -18t-43 18t-18 43t18 42.5t43 17.5zM222 955q25 0 42.5 -17.5t17.5 -42.5t-17.5 -43t-42.5 -18t-43 18t-18 43t18 42.5t43 17.5z" />
    <glyph glyph-name="Igrave" unicode="&#xcc;" horiz-adv-x="232" 
d="M163 754v-754h-94v754h94zM-18 951l83 44l125 -166l-44 -27z" />
    <glyph glyph-name="Oacute" unicode="&#xd3;" horiz-adv-x="828" 
d="M414 770q162 0 278.5 -115.5t116.5 -277.5q0 -167 -115 -280t-280 -113t-280 113t-115 280q0 162 116.5 277.5t278.5 115.5zM414 72q123 0 212 88.5t89 216.5q0 127 -84 215q-87 90 -217 90t-215.5 -89t-85.5 -216q0 -128 89 -216.5t212 -88.5zM465 995l83 -44l-164 -149
l-44 27z" />
    <glyph glyph-name="Ocircumflex" unicode="&#xd4;" horiz-adv-x="828" 
d="M414 770q162 0 278.5 -115.5t116.5 -277.5q0 -167 -115 -280t-280 -113t-280 113t-115 280q0 162 116.5 277.5t278.5 115.5zM414 72q123 0 212 88.5t89 216.5q0 127 -84 215q-87 90 -217 90t-215.5 -89t-85.5 -216q0 -128 89 -216.5t212 -88.5zM254 850l159 145l161 -145
l-59 -46l-102 96l-101 -96z" />
    <glyph glyph-name="Ograve" unicode="&#xd2;" horiz-adv-x="828" 
d="M414 770q162 0 278.5 -115.5t116.5 -277.5q0 -167 -115 -280t-280 -113t-280 113t-115 280q0 162 116.5 277.5t278.5 115.5zM414 72q123 0 212 88.5t89 216.5q0 127 -84 215q-87 90 -217 90t-215.5 -89t-85.5 -216q0 -128 89 -216.5t212 -88.5zM280 951l83 44l125 -166
l-44 -27z" />
    <glyph glyph-name="Uacute" unicode="&#xda;" horiz-adv-x="669" 
d="M59 754h94v-445q0 -237 182 -237t182 237v445h94v-477q0 -128 -73 -209q-76 -84 -203 -84t-203 84q-73 81 -73 209v477zM386 995l83 -44l-164 -149l-44 27z" />
    <glyph glyph-name="Ucircumflex" unicode="&#xdb;" horiz-adv-x="669" 
d="M59 754h94v-445q0 -237 182 -237t182 237v445h94v-477q0 -128 -73 -209q-76 -84 -203 -84t-203 84q-73 81 -73 209v477zM175 850l159 145l161 -145l-59 -46l-102 96l-101 -96z" />
    <glyph glyph-name="Ugrave" unicode="&#xd9;" horiz-adv-x="669" 
d="M59 754h94v-445q0 -237 182 -237t182 237v445h94v-477q0 -128 -73 -209q-76 -84 -203 -84t-203 84q-73 81 -73 209v477zM201 951l83 44l125 -166l-44 -27z" />
    <glyph glyph-name="circumflex" unicode="&#x2c6;" horiz-adv-x="470" 
d="M75 589l159 145l161 -145l-59 -46l-102 96l-101 -96z" />
    <glyph glyph-name="tilde" unicode="&#x2dc;" horiz-adv-x="510" 
d="M111 573v0l-47 40l3 5q46 76 108 76q38 0 89.5 -26.5t71.5 -26.5q35 0 64 48l47 -39q-40 -82 -118 -82q-28 0 -81.5 25.5t-79.5 25.5q-35 0 -57 -46z" />
    <glyph glyph-name="macron" unicode="&#xaf;" horiz-adv-x="500" 
d="M70 694h361v-68h-361v68z" />
    <glyph glyph-name="macron" unicode="&#x2c9;" horiz-adv-x="500" 
d="M70 694h361v-68h-361v68z" />
    <glyph glyph-name="cedilla" unicode="&#xb8;" horiz-adv-x="330" 
d="M244 -46l-105 -135l-53 27l87 137z" />
    <glyph glyph-name="Scaron" unicode="&#x160;" horiz-adv-x="537" 
d="M482 656l-75 -45q-42 71 -121 71q-48 0 -85 -29q-41 -31 -41 -78q0 -67 105 -108l54 -21q90 -35 134 -82q53 -57 53 -145q0 -102 -69.5 -168.5t-171.5 -66.5q-91 0 -156 59.5t-77 151.5l95 20q-1 -61 41.5 -102t104.5 -41q60 0 99.5 43.5t39.5 103.5q0 55 -41 92
q-28 25 -89 51l-52 22q-77 33 -114 70q-50 49 -50 121q0 88 68 143q64 52 154 52q130 0 194 -114zM119 949l58 46l101 -96l102 96l59 -46l-161 -145z" />
    <glyph glyph-name="scaron" unicode="&#x161;" horiz-adv-x="384" 
d="M323 400l-73 -39q-20 41 -60 41q-19 0 -34 -13.5t-15 -32.5q0 -33 56 -60q95 -46 105 -53q56 -40 56 -104q0 -66 -47.5 -110.5t-113.5 -44.5q-53 0 -97 28q-47 29 -65 77l77 35q33 -60 85 -60q29 0 50 18.5t21 47.5t-33 51l-88 47q-46 25 -65 45q-25 29 -25 73
q0 57 40.5 96.5t97.5 39.5q88 0 128 -82zM32 688l58 46l101 -96l102 96l59 -46l-161 -145z" />
    <glyph glyph-name="brokenbar" unicode="&#xa6;" horiz-adv-x="570" 
d="M328 161v-250h-86v250h86zM328 661v-250h-86v250h86z" />
    <glyph glyph-name="Eth" unicode="&#xd0;" horiz-adv-x="665" 
d="M64 442v312h156q183 0 298 -92q125 -101 125 -281q0 -185 -124 -287q-114 -94 -302 -94h-153v362h-64v80h64zM158 668v-226h134v-80h-134v-276h33q160 0 251 63q107 74 107 228t-107 228q-91 63 -251 63h-33z" />
    <glyph glyph-name="eth" unicode="&#xf0;" horiz-adv-x="540" 
d="M270 396q-66 0 -113 -48t-47 -115q0 -66 47 -114.5t113 -48.5t113 48.5t47 114.5q0 67 -47 115t-113 48zM46 638l145 83q-54 60 -111 105l57 51q62 -43 129 -113l145 83l42 -55l-141 -81q91 -107 146 -223q62 -129 62 -236q0 -124 -72 -198q-70 -70 -178 -70
q-105 0 -177.5 72t-72.5 177t72.5 177t177.5 72q48 0 106 -34q-58 119 -139 220l-147 -84z" />
    <glyph glyph-name="Yacute" unicode="&#xdd;" horiz-adv-x="573" 
d="M240 328l-246 426h108l185 -322l185 322h108l-246 -426v-328h-94v328zM368 995l83 -44l-164 -149l-44 27z" />
    <glyph glyph-name="yacute" unicode="&#xfd;" horiz-adv-x="484" 
d="M201 80l-214 388h105l158 -297l147 297h101l-379 -736h-102zM323 734l83 -44l-164 -149l-44 27z" />
    <glyph glyph-name="Thorn" unicode="&#xde;" horiz-adv-x="495" 
d="M166 176v-176h-94v754h94v-140h14q167 0 239 -57q65 -52 65 -161q0 -112 -78 -170q-69 -50 -186 -50h-54zM166 530v-270h30q200 0 200 138q0 79 -68 110q-47 22 -137 22h-25z" />
    <glyph glyph-name="thorn" unicode="&#xfe;" horiz-adv-x="556" 
d="M145 868v-478h2q61 92 163 92q98 0 161 -74q59 -71 59 -171q0 -106 -58 -177q-62 -76 -166 -76q-99 0 -159 89h-2v-341h-90v1136h90zM288 64q71 0 113 51q39 47 39 119q0 71 -41 119.5t-111 48.5q-67 0 -107.5 -49.5t-40.5 -118.5q0 -70 38 -118q42 -52 110 -52z" />
    <glyph glyph-name="minus" unicode="&#xad;" 
d="M33 213v86h512v-86h-512z" />
    <glyph glyph-name="minus" unicode="&#x2212;" 
d="M33 213v86h512v-86h-512z" />
    <glyph glyph-name="multiply" unicode="&#xd7;" 
d="M33 451l60 61l196 -195l196 195l60 -61l-195 -195l195 -195l-60 -61l-196 195l-196 -195l-60 61l195 195z" />
    <glyph glyph-name="onesuperior" unicode="&#xb9;" horiz-adv-x="346" 
d="M151 696h-86l34 58h116v-452h-64v394z" />
    <glyph glyph-name="twosuperior" unicode="&#xb2;" horiz-adv-x="346" 
d="M144 360h188v-58h-317l215 243q38 43 38 81q0 33 -30 58q-28 22 -61 22q-37 0 -61.5 -21t-26.5 -55h-67q7 61 48 97.5t107 36.5q63 0 109 -39t46 -97q0 -56 -33 -93z" />
    <glyph glyph-name="threesuperior" unicode="&#xb3;" horiz-adv-x="346" 
d="M163 518v58q94 0 94 67q0 33 -25 51t-58 18q-75 0 -75 -56h-67q18 114 144 114q61 0 102 -32q43 -35 43 -90q0 -67 -66 -102q73 -32 73 -112q0 -62 -46 -99t-114 -37q-59 0 -101 33q-45 34 -48 89h64q10 -64 90 -64q37 0 64 22t27 58q0 38 -29 61t-72 21z" />
    <glyph glyph-name="onehalf" unicode="&#xbd;" horiz-adv-x="867" 
d="M126 302v394h-86l34 58h116v-452h-64zM639 58h188v-58h-317l215 243q38 43 38 81q0 33 -30 58q-28 22 -61 22q-37 0 -61.5 -21t-26.5 -55h-67q7 61 48 97.5t107 36.5q63 0 109 -39t46 -97q0 -56 -33 -93zM579 770l51 -26l-440 -760l-51 28z" />
    <glyph glyph-name="onequarter" unicode="&#xbc;" horiz-adv-x="867" 
d="M126 696h-86l34 58h116v-452h-64v394zM778 124h49v-58h-49v-66h-64v66h-243l307 407v-349zM714 124v164h-3l-123 -164h126zM631 770l51 -26l-440 -760l-51 28z" />
    <glyph glyph-name="threequarters" unicode="&#xbe;" horiz-adv-x="867" 
d="M778 124h49v-58h-49v-66h-64v66h-243l307 407v-349zM714 124v164h-3l-123 -164h126zM184 518v58q94 0 94 67q0 33 -25 51t-58 18q-75 0 -75 -56h-67q18 114 144 114q61 0 102 -32q43 -35 43 -90q0 -67 -66 -102q73 -32 73 -112q0 -62 -46 -99t-114 -37q-59 0 -101 33
q-45 34 -48 89h64q10 -64 90 -64q37 0 64 22t27 58q0 38 -29 61t-72 21zM687 770l51 -26l-440 -760l-51 28z" />
    <glyph glyph-name="glyph217" horiz-adv-x="289" 
 />
    <glyph glyph-name="fraction" unicode="&#x2044;" horiz-adv-x="165" 
d="M277 770l51 -26l-440 -760l-51 28z" />
    <glyph glyph-name="fi" unicode="&#xf001;" horiz-adv-x="512" 
d="M430 468v-468h-90v468h90zM385 745q26 0 44 -18.5t18 -44.5q0 -25 -18 -43t-44 -18t-44 18t-18 43q0 26 18 44.5t44 18.5zM294 868v-91q-43 19 -60 19q-42 0 -56 -46q-8 -26 -8 -81v-201h124v-84h-124v-384h-90v384h-41v84h41v228q0 184 151 184q33 0 63 -12z" />
    <glyph glyph-name="fl" unicode="&#xf002;" horiz-adv-x="497" 
d="M431 868v-868h-90v868h90zM294 868v-91q-43 19 -60 19q-42 0 -56 -46q-8 -26 -8 -81v-201h124v-84h-124v-384h-90v384h-41v84h41v228q0 184 151 184q33 0 63 -12z" />
    <glyph glyph-name="breve" unicode="&#x2d8;" horiz-adv-x="490" 
d="M71 694h72q32 -75 102 -75q69 0 103 75h71q-11 -62 -60.5 -101.5t-113.5 -39.5q-63 0 -112.5 39.5t-61.5 101.5z" />
    <glyph glyph-name="dotaccent" unicode="&#x2d9;" horiz-adv-x="360" 
d="M181 694q25 0 42.5 -17.5t17.5 -42.5t-17.5 -43t-42.5 -18t-43 18t-18 43t18 42.5t43 17.5z" />
    <glyph glyph-name="ring" unicode="&#x2da;" horiz-adv-x="360" 
d="M180 734q38 0 64.5 -26.5t26.5 -64.5t-26.5 -64t-64.5 -26q-37 0 -63.5 26.5t-26.5 63.5q0 38 26.5 64.5t63.5 26.5zM180 598q19 0 32.5 13t13.5 32t-13.5 32.5t-32.5 13.5q-18 0 -31.5 -13.5t-13.5 -32.5t13.5 -32t31.5 -13z" />
    <glyph glyph-name="hungarumlaut" unicode="&#x2dd;" horiz-adv-x="470" 
d="M349 725l83 -44l-164 -149l-44 27zM163 734l83 -44l-164 -149l-44 27z" />
    <glyph glyph-name="ogonek" unicode="&#x2db;" horiz-adv-x="340" 
d="M165 -16h46v-2q-61 -41 -61 -85q0 -47 56 -47q31 0 50 13l-7 -58q-27 -17 -64 -17q-40 0 -69 21q-32 23 -32 61q0 65 81 114z" />
    <glyph glyph-name="caron" unicode="&#x2c7;" horiz-adv-x="472" 
d="M76 688l58 46l101 -96l102 96l59 -46l-161 -145z" />
    <glyph glyph-name="Lslash" unicode="&#x141;" horiz-adv-x="385" 
d="M166 754v-288l118 83v-90l-118 -79v-294h229v-86h-323v322l-81 -58v91l81 54v345h94z" />
    <glyph glyph-name="dotlessi" unicode="&#x131;" horiz-adv-x="254" 
d="M172 468v-468h-90v468h90z" />
    <glyph glyph-name="lslash" unicode="&#x142;" horiz-adv-x="255" 
d="M82 0v412l-81 -55v81l81 55v375h90v-314l82 56v-82l-82 -55v-473h-90z" />
    <glyph glyph-name="zcaron" unicode="&#x17e;" horiz-adv-x="495" 
d="M177 84h304v-84h-479l317 384h-263v84h438zM103 688l58 46l101 -96l102 96l59 -46l-161 -145z" />
    <glyph glyph-name="Zcaron" unicode="&#x17d;" horiz-adv-x="552" 
d="M162 86h382v-86h-535l382 668h-328v86h481zM131 949l58 46l101 -96l102 96l59 -46l-161 -145z" />
    </font>
</defs>
</svg>
