<?xml version="1.0" standalone="no"?>
<!DOCTYPE svg PUBLIC "-//W3C//DTD SVG 1.1//EN" "http://www.w3.org/Graphics/SVG/1.1/DTD/svg11.dtd" >
<svg>
<metadata>
Created by FontForge 20090622 at Mon Mar  6 08:06:56 2017
 By deploy user
Copyright (c) 1987, 1991, 1993 Adobe Systems Incorporated.  All Rights Reserved.Futura is a registered trademark of Fundicion Tipografica Neufville S. A.
</metadata>
<defs>
<font id="Futura-Bold" horiz-adv-x="686" >
  <font-face 
    font-family="Futura Bold"
    font-weight="400"
    font-stretch="normal"
    units-per-em="1000"
    panose-1="0 0 9 0 0 0 0 0 0 0"
    ascent="800"
    descent="-200"
    x-height="513"
    cap-height="754"
    bbox="-171 -264 1441 1040"
    underline-thickness="50"
    underline-position="-75"
    unicode-range="U+0020-U+F002"
  />
<missing-glyph horiz-adv-x="500" 
d="M63 0v773h375v-773h-375zM125 63h250v648h-250v-648z" />
    <glyph glyph-name=".notdef" horiz-adv-x="500" 
d="M63 0v773h375v-773h-375zM125 63h250v648h-250v-648z" />
    <glyph glyph-name=".null" horiz-adv-x="0" 
 />
    <glyph glyph-name="nonmarkingreturn" horiz-adv-x="343" 
 />
    <glyph glyph-name="space" unicode=" " horiz-adv-x="343" 
 />
    <glyph glyph-name="exclam" unicode="!" horiz-adv-x="384" 
d="M192 214q49 0 83 -34t34 -83q0 -48 -34 -82.5t-83 -34.5t-83 34.5t-34 82.5q0 49 34 83t83 34zM98 256v498h189v-498h-189z" />
    <glyph glyph-name="quotedbl" unicode="&#x22;" horiz-adv-x="500" 
d="M47 754h170l-27 -331h-116zM283 754h170l-27 -331h-116z" />
    <glyph glyph-name="numbersign" unicode="#" 
d="M265 726h106l-39 -203h101l39 203h105l-39 -203h80v-113h-98l-24 -124h94v-113h-118l-33 -173h-106l33 173h-101l-33 -173h-106l33 173h-91v113h113l24 124h-96v113h117zM311 410l-24 -124h102l26 124h-104z" />
    <glyph glyph-name="dollar" unicode="$" 
d="M68 87l82 151q90 -84 181 -84q35 0 64.5 19.5t29.5 53.5q0 36 -49 58l-108 37q-72 27 -108 63q-49 50 -49 133q0 91 57.5 160t146.5 75v121h93v-121q108 -10 182 -58l-74 -145q-61 49 -128 49q-85 0 -85 -56q0 -45 98 -78q107 -36 151 -72q66 -53 66 -147
q0 -192 -210 -244v-125h-93v119q-63 0 -129 25q-80 31 -118 66z" />
    <glyph glyph-name="percent" unicode="%" horiz-adv-x="975" 
d="M225 764q88 0 145 -46q61 -51 61 -137q0 -88 -60 -139q-56 -47 -146 -47t-146 47q-60 51 -60 139q0 86 61 137q57 46 145 46zM225 664q-35 0 -60 -25t-25 -60t25 -59.5t60 -24.5t60 24.5t25 59.5t-25 60t-60 25zM657 754h98l-438 -754h-98zM750 359q88 0 145 -46
q61 -51 61 -137q0 -88 -60 -139q-56 -47 -146 -47t-146 47q-60 51 -60 139q0 86 61 137q57 46 145 46zM750 259q-35 0 -60 -25t-25 -60t25 -59.5t60 -24.5t60 24.5t25 59.5t-25 60t-60 25z" />
    <glyph glyph-name="ampersand" unicode="&#x26;" horiz-adv-x="848" 
d="M431 187l-119 128q-71 -44 -71 -90q0 -32 28 -51q24 -18 57 -18q52 0 105 31zM393 479q70 39 70 92q0 29 -18.5 49.5t-47.5 20.5q-27 0 -45 -17.5t-18 -44.5q0 -34 59 -100zM603 0l-65 70q-132 -90 -258 -90q-102 0 -170 56q-72 60 -72 160q0 79 45 132q38 43 117 78
l18 8l-16 22q-28 38 -36 55q-18 35 -18 76q0 94 72 152q67 55 162 55t163 -54q73 -58 73 -151q0 -65 -41 -111q-32 -36 -99 -70l95 -100q64 57 99 107l111 -106l-104 -111l169 -178h-245z" />
    <glyph glyph-name="quotesingle" unicode="'" horiz-adv-x="250" 
d="M40 754h170l-27 -331h-116z" />
    <glyph glyph-name="parenleft" unicode="(" horiz-adv-x="352" 
d="M194 790l109 -62q-115 -185 -115 -454q0 -117 28 -234q31 -133 87 -218l-109 -62q-73 96 -112 251q-33 134 -33 275q0 131 36 263q39 144 109 241z" />
    <glyph glyph-name="parenright" unicode=")" horiz-adv-x="352" 
d="M49 728l109 62q70 -97 109 -241q36 -132 36 -263q0 -141 -33 -275q-39 -155 -112 -251l-109 62q56 85 88 218q27 117 27 234q0 269 -115 454z" />
    <glyph glyph-name="asterisk" unicode="*" horiz-adv-x="483" 
d="M196 754h90l-5 -107l89 56l45 -76l-95 -50l94 -52l-45 -75l-88 57l4 -101h-90l6 100l-85 -54l-45 76l90 50l-93 51l46 76l87 -55z" />
    <glyph glyph-name="plus" unicode="+" 
d="M268 332v181h150v-181h181v-150h-181v-182h-150v182h-181v150h181z" />
    <glyph glyph-name="comma" unicode="," horiz-adv-x="343" 
d="M152 191h171l-184 -332h-117z" />
    <glyph glyph-name="hyphen" unicode="-" horiz-adv-x="392" 
d="M53 396h286v-150h-286v150z" />
    <glyph glyph-name="hyphen" unicode="&#x2010;" horiz-adv-x="392" 
d="M53 396h286v-150h-286v150z" />
    <glyph glyph-name="period" unicode="." horiz-adv-x="343" 
d="M172 214q49 0 83 -34t34 -83q0 -48 -34 -82.5t-83 -34.5t-83 34.5t-34 82.5q0 49 34 83t83 34z" />
    <glyph glyph-name="slash" unicode="/" horiz-adv-x="579" 
d="M409 830h143l-382 -923h-143z" />
    <glyph glyph-name="zero" unicode="0" 
d="M343 784q156 0 244 -130q76 -113 76 -277t-76 -277q-87 -130 -244 -130t-244 130q-76 113 -76 277t76 277q88 130 244 130zM343 611q-67 0 -100 -89q-25 -65 -25 -144t25 -145q33 -90 100 -90t100 90q25 66 25 145t-25 144q-33 89 -100 89z" />
    <glyph glyph-name="one" unicode="1" 
d="M269 588h-108v166h304v-754h-196v588z" />
    <glyph glyph-name="two" unicode="2" 
d="M392 166h247v-166h-606l308 335q86 94 86 185q0 38 -23 67q-26 31 -63 31q-38 0 -60 -26t-22 -66q0 -15 3 -32h-216q5 131 83.5 210.5t210.5 79.5q122 0 205 -72q86 -76 86 -196q0 -76 -32 -134q-27 -48 -90 -107z" />
    <glyph glyph-name="three" unicode="3" 
d="M255 537h-182q12 116 87.5 181.5t192.5 65.5q105 0 171 -57q70 -59 70 -162q0 -110 -79 -155q57 -15 92 -74q31 -54 31 -116q0 -118 -90 -187q-82 -63 -203 -63q-142 0 -225 85q-36 37 -61 87q-26 56 -25 103h200q0 -46 29.5 -76.5t75.5 -30.5t75.5 28t29.5 73
q0 42 -31 71.5t-73 29.5q-12 0 -34 -6v131h20q38 0 62 22.5t24 60.5q0 34 -22 55t-55 21q-37 0 -59 -24.5t-21 -62.5z" />
    <glyph glyph-name="four" unicode="4" 
d="M564 306h91v-150h-91v-156h-182v156h-366v125l291 473h257v-448zM382 306v290h-2l-176 -290h178z" />
    <glyph glyph-name="five" unicode="5" horiz-adv-x="689" 
d="M565 588h-261l-13 -86l62 5q114 9 190.5 -71t76.5 -199q0 -125 -97 -204q-78 -63 -220 -63q-140 0 -246 68l29 185q97 -87 210 -87q48 0 84 31.5t36 79.5q0 63 -53 99q-46 30 -112 30q-78 0 -144 -31l66 409h392v-166z" />
    <glyph glyph-name="six" unicode="6" 
d="M306 754h222l-214 -255l2 -2q52 23 105 23q107 0 177 -81q65 -76 65 -184q0 -133 -97 -212q-91 -73 -227 -73q-135 0 -215 65q-46 37 -73.5 93t-27.5 114q0 142 121 300zM338 124q51 0 86 36.5t35 88.5q0 51 -35 87t-86 36t-87.5 -36t-36.5 -87q0 -52 36.5 -88.5
t87.5 -36.5z" />
    <glyph glyph-name="seven" unicode="7" 
d="M386 588h-315v166h619l-433 -754h-215z" />
    <glyph glyph-name="eight" unicode="8" 
d="M343 648q-34 0 -58.5 -25t-24.5 -60t24.5 -60t58.5 -25t58.5 25t24.5 60t-24.5 60t-58.5 25zM343 317q-37 0 -63.5 -27.5t-26.5 -66.5q0 -38 26.5 -65t63.5 -27t63.5 27t26.5 65q0 39 -26.5 66.5t-63.5 27.5zM343 784q105 0 177 -53q80 -60 80 -162q0 -59 -33.5 -106.5
t-85.5 -64.5v-2q69 -23 109 -73q41 -53 41 -125q0 -108 -95 -172q-83 -56 -193 -56t-193 56q-95 64 -95 172q0 72 41 125q40 50 109 73v2q-52 17 -85.5 64.5t-33.5 106.5q0 102 80 162q72 53 177 53z" />
    <glyph glyph-name="nine" unicode="9" 
d="M381 0h-223l215 254l-2 2q-52 -23 -106 -23q-107 0 -176 81q-66 76 -66 185q0 133 98 212q90 73 226 73q134 0 215 -65q46 -37 73.5 -93t27.5 -115q0 -141 -121 -300zM348 629q-51 0 -86 -36t-35 -88t35 -88t86 -36q52 0 88.5 36t36.5 88t-36.5 88t-88.5 36z" />
    <glyph glyph-name="colon" unicode=":" horiz-adv-x="343" 
d="M172 214q49 0 83 -34t34 -83q0 -48 -34 -82.5t-83 -34.5t-83 34.5t-34 82.5q0 49 34 83t83 34zM172 551q49 0 83 -34t34 -83q0 -48 -34 -82.5t-83 -34.5t-83 34.5t-34 82.5q0 49 34 83t83 34z" />
    <glyph glyph-name="semicolon" unicode=";" horiz-adv-x="343" 
d="M138 191h171l-184 -332h-117zM218 551q49 0 83 -34t34 -83q0 -48 -34 -82.5t-83 -34.5t-83 34.5t-34 82.5q0 49 34 83t83 34z" />
    <glyph glyph-name="less" unicode="&#x3c;" 
d="M99 197v120l489 182v-150l-274 -91v-2l274 -91v-150z" />
    <glyph glyph-name="equal" unicode="=" 
d="M87 452h512v-150h-512v150zM87 212h512v-150h-512v150z" />
    <glyph glyph-name="greater" unicode="&#x3e;" 
d="M588 317v-120l-489 -182v150l274 91v2l-274 91v150z" />
    <glyph glyph-name="question" unicode="?" horiz-adv-x="595" 
d="M186 252v194q23 -5 42 -5q48 0 86 25q43 28 43 74q0 31 -21 53t-52 22q-33 0 -51.5 -21t-18.5 -55h-199q1 109 85 175q77 60 189 60q102 0 175 -62q86 -73 86 -173q0 -81 -52 -138q-47 -52 -129 -78v-71h-183zM281 214q49 0 83 -34t34 -83q0 -48 -34 -82.5t-83 -34.5
t-83 34.5t-34 82.5q0 49 34 83t83 34z" />
    <glyph glyph-name="at" unicode="@" horiz-adv-x="740" 
d="M280 354q0 -39 20 -64q21 -28 56 -28q42 0 68 36q21 29 26 74q5 43 -15 70t-57 27q-41 0 -69.5 -36t-28.5 -79zM592 570l-50 -260q-7 -35 -7 -44q0 -24 19 -22q29 3 62 57.5t36 116.5q7 122 -73 194q-75 68 -195 68q-125 0 -205 -85.5t-80 -217.5q0 -136 87 -221
q84 -82 215 -82q115 0 179 40l82 -66q-132 -68 -269 -68q-163 0 -275.5 113.5t-112.5 283.5q0 169 110.5 283t271.5 114q138 0 235 -87q112 -100 112 -234q0 -131 -62 -213q-69 -91 -154 -88q-21 1 -38.5 17.5t-23.5 40.5q-50 -58 -128 -58q-67 0 -117.5 55t-50.5 131
q0 96 57 168.5t147 72.5q80 0 123 -62l10 53h95z" />
    <glyph glyph-name="A" unicode="A" horiz-adv-x="781" 
d="M526 131h-270l-52 -131h-208l290 754h214l284 -754h-209zM473 281l-80 240h-2l-81 -240h163z" />
    <glyph glyph-name="B" unicode="B" horiz-adv-x="677" 
d="M260 312v-162h25q70 0 100 9q56 17 56 71q0 59 -56 75q-25 7 -105 7h-20zM366 0h-302v754h280q224 0 224 -196q0 -112 -83 -154v-2q154 -20 154 -192q0 -110 -85 -164q-71 -46 -188 -46zM260 604v-146h22q106 0 106 73q0 46 -37 62q-24 11 -77 11h-14z" />
    <glyph glyph-name="C" unicode="C" horiz-adv-x="660" 
d="M603 736v-235q-61 83 -172 83q-89 0 -145 -60t-56 -149q0 -90 56.5 -147.5t147.5 -57.5q102 0 169 80v-235q-114 -35 -173 -35q-161 0 -282.5 110.5t-121.5 285.5q0 162 111 276q119 122 287 122q87 0 179 -38z" />
    <glyph glyph-name="D" unicode="D" horiz-adv-x="752" 
d="M64 0v754h278q158 0 270.5 -109.5t112.5 -267.5t-112.5 -267.5t-270.5 -109.5h-278zM260 588v-422h44q94 0 152 50q65 56 65 161q0 99 -59 155t-156 56h-46z" />
    <glyph glyph-name="E" unicode="E" horiz-adv-x="550" 
d="M493 588h-233v-126h221v-166h-221v-130h233v-166h-429v754h429v-166z" />
    <glyph glyph-name="F" unicode="F" horiz-adv-x="542" 
d="M497 588h-237v-126h215v-166h-215v-296h-196v754h433v-166z" />
    <glyph glyph-name="G" unicode="G" horiz-adv-x="842" 
d="M427 421h389q-2 -98 -14 -155q-17 -79 -63 -143q-106 -148 -311 -148q-178 0 -290 110.5t-112 287.5q0 183 113 294.5t296 111.5q243 0 340 -211l-186 -78q-45 120 -163 120q-91 0 -146 -76q-50 -68 -50 -162t51 -162q56 -74 148 -74q66 0 109 34t49 97h-160v154z" />
    <glyph glyph-name="H" unicode="H" horiz-adv-x="803" 
d="M260 463h283v291h196v-754h-196v309h-283v-309h-196v754h196v-291z" />
    <glyph glyph-name="I" unicode="I" horiz-adv-x="324" 
d="M260 754v-754h-196v754h196z" />
    <glyph glyph-name="J" unicode="J" horiz-adv-x="489" 
d="M233 754h196v-509q0 -123 -62 -192q-66 -73 -188 -73t-194 111l113 119q47 -64 79 -64q38 0 50 40q6 21 6 71v497z" />
    <glyph glyph-name="K" unicode="K" horiz-adv-x="758" 
d="M262 443l237 311h243l-300 -357l327 -397h-254l-253 327h-2v-327h-196v754h196v-311h2z" />
    <glyph glyph-name="L" unicode="L" horiz-adv-x="495" 
d="M260 754v-588h235v-166h-431v754h196z" />
    <glyph glyph-name="M" unicode="M" horiz-adv-x="983" 
d="M19 0l128 754h193l153 -403l162 403h195l114 -754h-196l-55 434h-2l-181 -434h-78l-173 434h-2l-63 -434h-195z" />
    <glyph glyph-name="N" unicode="N" horiz-adv-x="881" 
d="M64 0v754h196l359 -461h2v461h196v-754h-196l-359 462h-2v-462h-196z" />
    <glyph glyph-name="O" unicode="O" horiz-adv-x="887" 
d="M443 779q168 0 290 -108q127 -113 127 -280q0 -183 -117.5 -299.5t-299.5 -116.5t-299.5 116.5t-117.5 299.5q0 167 127 280q122 108 290 108zM443 589q-87 0 -150 -60t-63 -139q0 -96 62 -160.5t151 -64.5t151 64.5t62 160.5q0 79 -63 139t-150 60z" />
    <glyph glyph-name="P" unicode="P" horiz-adv-x="661" 
d="M64 0v754h300q127 0 198 -59q76 -64 76 -189q0 -256 -267 -256h-111v-250h-196zM260 596v-188h33q71 0 97 12q44 19 44 80q0 64 -42 84q-26 12 -99 12h-33z" />
    <glyph glyph-name="Q" unicode="Q" horiz-adv-x="887" 
d="M568 318l53 -55q35 49 35 111q0 86 -62.5 150.5t-149.5 64.5t-150.5 -60t-63.5 -139q0 -96 62.5 -160.5t151.5 -64.5q31 0 60 10l-121 120zM890 -19l-180 -28l-60 71q-81 -49 -207 -49q-182 0 -299.5 116.5t-117.5 299.5q0 167 127 280q122 108 290 108q179 0 297 -110
q120 -113 120 -294q0 -145 -97 -265z" />
    <glyph glyph-name="R" unicode="R" horiz-adv-x="680" 
d="M454 309l237 -309h-244l-185 290h-2v-290h-196v754h293q118 0 187 -56q75 -60 75 -176q0 -81 -42 -138q-45 -61 -123 -75zM260 604v-188h19q136 0 136 94t-136 94h-19z" />
    <glyph glyph-name="S" unicode="S" horiz-adv-x="616" 
d="M556 712l-78 -152q-60 50 -130 50q-31 0 -55 -16q-29 -18 -29 -47q0 -46 87 -72l50 -15q88 -27 132 -69q54 -52 54 -137q0 -137 -78 -203q-84 -71 -214 -71q-142 0 -265 86l84 158q89 -78 174 -78q38 0 66.5 19.5t28.5 56.5q0 36 -44 59q-21 12 -75 27q-109 31 -148 65
q-56 48 -56 148q0 114 73 183.5t187 69.5q127 0 236 -62z" />
    <glyph glyph-name="T" unicode="T" horiz-adv-x="533" 
d="M364 588v-588h-196v588h-162v166h520v-166h-162z" />
    <glyph glyph-name="U" unicode="U" horiz-adv-x="778" 
d="M522 754h196v-424q0 -92 -11 -142q-18 -75 -68 -124q-86 -84 -250 -84t-250 84q-50 49 -68 124q-11 50 -11 142v424h196v-397q0 -96 19 -139q30 -66 114 -66t114 66q19 43 19 139v397z" />
    <glyph glyph-name="V" unicode="V" horiz-adv-x="761" 
d="M198 754l182 -458l183 458h213l-322 -754h-152l-317 754h213z" />
    <glyph glyph-name="W" unicode="W" horiz-adv-x="1117" 
d="M189 754l131 -487h2l158 487h156l148 -487h2l142 487h204l-241 -754h-200l-132 437h-2l-148 -437h-199l-225 754h204z" />
    <glyph glyph-name="X" unicode="X" horiz-adv-x="789" 
d="M287 403l-241 351h241l115 -195l115 195h241l-241 -351l279 -403h-236l-158 246l-173 -246h-237z" />
    <glyph glyph-name="Y" unicode="Y" horiz-adv-x="714" 
d="M259 362l-278 392h235l141 -205l141 205h235l-278 -392v-362h-196v362z" />
    <glyph glyph-name="Z" unicode="Z" horiz-adv-x="707" 
d="M341 166h316v-166h-646l357 588h-296v166h624z" />
    <glyph glyph-name="bracketleft" unicode="[" horiz-adv-x="350" 
d="M191 684v-818h107v-106h-246v1030h246v-106h-107z" />
    <glyph glyph-name="backslash" unicode="\" horiz-adv-x="579" 
d="M27 830h144l381 -830h-142z" />
    <glyph glyph-name="bracketright" unicode="]" horiz-adv-x="350" 
d="M159 -134v818h-107v106h246v-1030h-246v106h107z" />
    <glyph glyph-name="asciicircum" unicode="^" 
d="M217 340l-114 67l180 377h120l180 -377l-114 -67l-126 269z" />
    <glyph glyph-name="underscore" unicode="_" horiz-adv-x="500" 
d="M500 -125h-500v50h500v-50z" />
    <glyph glyph-name="grave" unicode="`" horiz-adv-x="402" 
d="M75 740l111 80l141 -172l-81 -59z" />
    <glyph glyph-name="a" unicode="a" horiz-adv-x="682" 
d="M328 372q-54 0 -85.5 -33.5t-31.5 -82.5q0 -50 31.5 -82.5t85.5 -32.5t85.5 32.5t31.5 82.5q0 49 -31.5 82.5t-85.5 33.5zM621 513v-513h-182v57h-2q-46 -74 -155 -74q-112 0 -186 82q-73 79 -73 192t72.5 193t184.5 80q102 0 159 -67v50h182z" />
    <glyph glyph-name="b" unicode="b" horiz-adv-x="682" 
d="M54 0v830h182v-367q58 67 159 67q112 0 186 -81q71 -79 71 -192t-72 -192q-74 -82 -187 -82q-107 0 -155 74h-2v-57h-182zM347 372q-54 0 -85.5 -33.5t-31.5 -82.5q0 -50 31.5 -82.5t85.5 -32.5t85.5 32.5t31.5 82.5q0 49 -31.5 82.5t-85.5 33.5z" />
    <glyph glyph-name="c" unicode="c" horiz-adv-x="483" 
d="M430 500v-154q-49 36 -94 36q-53 0 -89 -36t-36 -89q0 -55 36 -90.5t92 -35.5q53 0 91 35v-154q-58 -29 -128 -29q-116 0 -196 76q-83 77 -83 192q0 122 82.5 200.5t204.5 78.5q66 0 120 -30z" />
    <glyph glyph-name="d" unicode="d" horiz-adv-x="682" 
d="M446 0v57h-2q-46 -74 -155 -74q-112 0 -186 82q-73 79 -73 192t72.5 193t184.5 80q102 0 159 -67v367h182v-830h-182zM335 372q-54 0 -85.5 -33.5t-31.5 -82.5q0 -50 31.5 -82.5t85.5 -32.5t85.5 32.5t31.5 82.5q0 49 -31.5 82.5t-85.5 33.5z" />
    <glyph glyph-name="e" unicode="e" horiz-adv-x="610" 
d="M207 331h211q-7 36 -36 58.5t-67 22.5q-91 0 -108 -81zM587 245v-19h-383q0 -114 114 -114q59 0 87 47h175q-21 -86 -97 -133q-70 -43 -164 -43q-132 0 -212 70q-85 74 -85 203q0 127 78.5 200.5t205.5 73.5q133 0 207 -76.5t74 -208.5z" />
    <glyph glyph-name="f" unicode="f" horiz-adv-x="388" 
d="M260 363v-363h-182v363h-64v150h64v65q0 64 7 95q11 46 45 85q71 82 179 82q43 0 78 -18v-157q-40 17 -64 17q-63 0 -63 -86v-83h127v-150h-127z" />
    <glyph glyph-name="g" unicode="g" horiz-adv-x="677" 
d="M623 513v-463q0 -306 -297 -306q-101 0 -184 47q-97 56 -108 149h204q14 -51 86 -51q68 0 95 42q22 34 22 105v24q-70 -70 -163 -70q-111 0 -182 75t-71 187q0 115 74 196.5t189 81.5q101 0 151 -71h2v54h182zM330 376q-54 0 -85.5 -33.5t-31.5 -82.5q0 -50 31.5 -82.5
t85.5 -32.5t85.5 32.5t31.5 82.5q0 49 -31.5 82.5t-85.5 33.5z" />
    <glyph glyph-name="h" unicode="h" horiz-adv-x="661" 
d="M60 830h182v-382h2q62 82 164 82q95 0 144 -58t49 -158v-314h-182v263q0 122 -82 122q-95 0 -95 -122v-263h-182v830z" />
    <glyph glyph-name="i" unicode="i" horiz-adv-x="302" 
d="M242 513v-513h-182v513h182zM151 812q42 0 72 -30t30 -72t-30 -72t-72 -30t-72 30t-30 72t30 72t72 30z" />
    <glyph glyph-name="j" unicode="j" horiz-adv-x="302" 
d="M242 513v-769h-182v769h182zM151 812q42 0 72 -30t30 -72t-30 -72t-72 -30t-72 30t-30 72t30 72t72 30z" />
    <glyph glyph-name="k" unicode="k" horiz-adv-x="688" 
d="M242 830v-502l189 185h249l-257 -237l273 -276h-255l-199 209v-209h-182v830h182z" />
    <glyph glyph-name="l" unicode="l" horiz-adv-x="302" 
d="M242 830v-830h-182v830h182z" />
    <glyph glyph-name="m" unicode="m" horiz-adv-x="989" 
d="M242 513v-64h2q61 81 162 81q122 0 175 -98q26 47 73 72.5t101 25.5q175 0 175 -203v-327h-182v245q0 63 -9 90q-16 50 -66 50q-56 0 -75 -47q-12 -29 -12 -93v-245h-182v245q0 65 -10 93q-18 51 -71 51t-71 -51q-10 -28 -10 -93v-245h-182v513h182z" />
    <glyph glyph-name="n" unicode="n" horiz-adv-x="661" 
d="M242 513v-66h2q56 83 164 83q193 0 193 -213v-317h-182v250q0 64 -7 86q-17 49 -75 49q-95 0 -95 -119v-266h-182v513h182z" />
    <glyph glyph-name="o" unicode="o" horiz-adv-x="662" 
d="M331 530q130 0 216 -71q93 -77 93 -203t-93 -202q-86 -71 -216 -71q-129 0 -216 71q-93 76 -93 202t93 203q86 71 216 71zM331 372q-54 0 -85.5 -33.5t-31.5 -82.5q0 -50 31.5 -82.5t85.5 -32.5t85.5 32.5t31.5 82.5q0 49 -31.5 82.5t-85.5 33.5z" />
    <glyph glyph-name="p" unicode="p" horiz-adv-x="682" 
d="M236 513v-58h2q49 75 155 75q112 0 187 -82q72 -80 72 -193t-71 -191q-74 -81 -186 -81q-102 0 -159 66v-305h-182v769h182zM347 372q-54 0 -85.5 -33.5t-31.5 -82.5q0 -50 31.5 -82.5t85.5 -32.5t85.5 32.5t31.5 82.5q0 49 -31.5 82.5t-85.5 33.5z" />
    <glyph glyph-name="q" unicode="q" horiz-adv-x="682" 
d="M628 513v-769h-182v305q-56 -66 -159 -66q-112 0 -186 81q-71 78 -71 191q0 112 73.5 193.5t185.5 81.5q108 0 155 -75h2v58h182zM335 372q-54 0 -85.5 -33.5t-31.5 -82.5q0 -50 31.5 -82.5t85.5 -32.5t85.5 32.5t31.5 82.5q0 49 -31.5 82.5t-85.5 33.5z" />
    <glyph glyph-name="r" unicode="r" horiz-adv-x="453" 
d="M242 513v-84h2q51 91 166 91h35v-175q-30 17 -77 17q-126 0 -126 -155v-207h-182v513h182z" />
    <glyph glyph-name="s" unicode="s" horiz-adv-x="513" 
d="M460 497l-61 -116q-47 25 -98 25q-20 0 -36 -8q-21 -10 -21 -27q0 -22 32 -34q7 -2 50 -11q149 -30 149 -152q0 -94 -76 -146q-67 -45 -166 -45q-111 0 -207 59l66 127q74 -52 144 -52q21 0 37 9q20 11 20 30q0 30 -59 44q-87 21 -110 34q-59 35 -59 114q0 89 71 138
q63 44 155 44q96 0 169 -33z" />
    <glyph glyph-name="t" unicode="t" horiz-adv-x="360" 
d="M259 363v-363h-182v363h-59v150h59v154h182v-154h103v-150h-103z" />
    <glyph glyph-name="u" unicode="u" horiz-adv-x="659" 
d="M57 513h182v-274q0 -54 17 -80q22 -31 74 -31t74 31q17 26 17 80v274h182v-309q0 -221 -273 -221t-273 221v309z" />
    <glyph glyph-name="v" unicode="v" horiz-adv-x="623" 
d="M189 513l123 -263l122 263h204l-268 -513h-116l-269 513h204z" />
    <glyph glyph-name="w" unicode="w" horiz-adv-x="996" 
d="M187 513l128 -278l129 278h108l129 -278l129 278h201l-268 -513h-118l-127 281l-127 -281h-118l-268 513h202z" />
    <glyph glyph-name="x" unicode="x" horiz-adv-x="712" 
d="M241 278l-208 235h231l92 -106l92 106h235l-212 -235l256 -278h-239l-132 152l-132 -152h-239z" />
    <glyph glyph-name="y" unicode="y" horiz-adv-x="654" 
d="M233 70l-248 443h210l137 -263l134 263h207l-411 -769h-204z" />
    <glyph glyph-name="z" unicode="z" horiz-adv-x="559" 
d="M312 151h216v-151h-520l241 362h-209v151h512z" />
    <glyph glyph-name="braceleft" unicode="{" horiz-adv-x="352" 
d="M36 227v104q30 0 43 5q27 11 27 48v253q0 72 43 117q35 36 70 36h97v-120h-25q-31 0 -40 -19q-6 -11 -6 -40v-225q0 -91 -96 -106v-2q40 -5 60 -20q36 -28 36 -97v-222q0 -29 6 -40q9 -19 40 -19h25v-120h-97q-35 0 -70 36q-43 45 -43 115v253q0 45 -27 58q-12 5 -43 5z
" />
    <glyph glyph-name="bar" unicode="|" horiz-adv-x="579" 
d="M365 786v-1000h-150v1000h150z" />
    <glyph glyph-name="braceright" unicode="}" horiz-adv-x="352" 
d="M316 331v-104q-31 0 -42 -5q-28 -13 -28 -58v-253q0 -70 -43 -115q-35 -36 -70 -36h-97v120h25q31 0 40 19q6 11 6 40v222q0 69 36 97q20 15 60 20v2q-96 15 -96 106v225q0 29 -6 40q-9 19 -40 19h-25v120h97q35 0 70 -36q43 -45 43 -117v-253q0 -37 28 -48q12 -5 42 -5z
" />
    <glyph glyph-name="asciitilde" unicode="~" 
d="M523 373v0l114 -97q-41 -69 -69 -100q-52 -56 -106 -56q-32 0 -67 16l-56 32l-56 35q-37 23 -56 23q-28 0 -65 -84l-113 96l73 98q51 59 103 59q55 0 128 -56q65 -50 108 -50q31 0 62 84z" />
    <glyph glyph-name="Adieresis" unicode="&#xc4;" horiz-adv-x="781" 
d="M526 131h-270l-52 -131h-208l290 754h214l284 -754h-209zM473 281l-80 240h-2l-81 -240h163zM263 1011q41 0 69.5 -28.5t28.5 -69.5t-28.5 -69.5t-69.5 -28.5t-70 28.5t-29 69.5t29 69.5t70 28.5zM519 1011q41 0 69.5 -28.5t28.5 -69.5t-28.5 -69.5t-69.5 -28.5t-70 28.5
t-29 69.5t29 69.5t70 28.5z" />
    <glyph glyph-name="Aring" unicode="&#xc5;" horiz-adv-x="781" 
d="M526 131h-270l-52 -131h-208l290 754h214l284 -754h-209zM473 281l-80 240h-2l-81 -240h163zM389 1011q65 0 106 -25q49 -30 49 -90q0 -59 -48 -89q-41 -26 -104 -26q-64 0 -105 24q-50 30 -50 90t48 90q40 26 104 26zM391 939q-59 0 -59 -43t59 -43q58 0 58 43t-58 43z
" />
    <glyph glyph-name="Ccedilla" unicode="&#xc7;" horiz-adv-x="660" 
d="M603 736v-235q-61 83 -172 83q-89 0 -145 -60t-56 -149q0 -90 56.5 -147.5t147.5 -57.5q102 0 169 80v-235q-114 -35 -173 -35q-161 0 -282.5 110.5t-121.5 285.5q0 162 111 276q119 122 287 122q87 0 179 -38zM469 -94l-151 -143l-78 49l130 158z" />
    <glyph glyph-name="Eacute" unicode="&#xc9;" horiz-adv-x="550" 
d="M493 588h-233v-126h221v-166h-221v-130h233v-166h-429v754h429v-166zM401 951l-171 -151l-81 59l141 172z" />
    <glyph glyph-name="Ntilde" unicode="&#xd1;" horiz-adv-x="881" 
d="M64 0v754h196l359 -461h2v461h196v-754h-196l-359 462h-2v-462h-196zM324 827v0h-82l-1 11q0 51 22 89q33 56 89 56q27 0 85.5 -17t77.5 -17q26 0 40 36h85q-5 -62 -35 -106q-36 -52 -95 -52q-26 0 -77.5 18.5t-74.5 18.5q-22 0 -34 -37z" />
    <glyph glyph-name="Odieresis" unicode="&#xd6;" horiz-adv-x="887" 
d="M443 779q168 0 290 -108q127 -113 127 -280q0 -183 -117.5 -299.5t-299.5 -116.5t-299.5 116.5t-117.5 299.5q0 167 127 280q122 108 290 108zM443 589q-87 0 -150 -60t-63 -139q0 -96 62 -160.5t151 -64.5t151 64.5t62 160.5q0 79 -63 139t-150 60zM316 1011
q41 0 69.5 -28.5t28.5 -69.5t-28.5 -69.5t-69.5 -28.5t-70 28.5t-29 69.5t29 69.5t70 28.5zM572 1011q41 0 69.5 -28.5t28.5 -69.5t-28.5 -69.5t-69.5 -28.5t-70 28.5t-29 69.5t29 69.5t70 28.5z" />
    <glyph glyph-name="Udieresis" unicode="&#xdc;" horiz-adv-x="778" 
d="M522 754h196v-424q0 -92 -11 -142q-18 -75 -68 -124q-86 -84 -250 -84t-250 84q-50 49 -68 124q-11 50 -11 142v424h196v-397q0 -96 19 -139q30 -66 114 -66t114 66q19 43 19 139v397zM261 1011q41 0 69.5 -28.5t28.5 -69.5t-28.5 -69.5t-69.5 -28.5t-70 28.5t-29 69.5
t29 69.5t70 28.5zM517 1011q41 0 69.5 -28.5t28.5 -69.5t-28.5 -69.5t-69.5 -28.5t-70 28.5t-29 69.5t29 69.5t70 28.5z" />
    <glyph glyph-name="aacute" unicode="&#xe1;" horiz-adv-x="682" 
d="M328 372q-54 0 -85.5 -33.5t-31.5 -82.5q0 -50 31.5 -82.5t85.5 -32.5t85.5 32.5t31.5 82.5q0 49 -31.5 82.5t-85.5 33.5zM621 513v-513h-182v57h-2q-46 -74 -155 -74q-112 0 -186 82q-73 79 -73 192t72.5 193t184.5 80q102 0 159 -67v50h182zM487 740l-171 -151l-81 59
l141 172z" />
    <glyph glyph-name="agrave" unicode="&#xe0;" horiz-adv-x="682" 
d="M328 372q-54 0 -85.5 -33.5t-31.5 -82.5q0 -50 31.5 -82.5t85.5 -32.5t85.5 32.5t31.5 82.5q0 49 -31.5 82.5t-85.5 33.5zM621 513v-513h-182v57h-2q-46 -74 -155 -74q-112 0 -186 82q-73 79 -73 192t72.5 193t184.5 80q102 0 159 -67v50h182zM215 740l111 80l141 -172
l-81 -59z" />
    <glyph glyph-name="acircumflex" unicode="&#xe2;" horiz-adv-x="682" 
d="M328 372q-54 0 -85.5 -33.5t-31.5 -82.5q0 -50 31.5 -82.5t85.5 -32.5t85.5 32.5t31.5 82.5q0 49 -31.5 82.5t-85.5 33.5zM621 513v-513h-182v57h-2q-46 -74 -155 -74q-112 0 -186 82q-73 79 -73 192t72.5 193t184.5 80q102 0 159 -67v50h182zM121 665l218 164l221 -164
l-77 -84l-144 111l-144 -111z" />
    <glyph glyph-name="adieresis" unicode="&#xe4;" horiz-adv-x="682" 
d="M328 372q-54 0 -85.5 -33.5t-31.5 -82.5q0 -50 31.5 -82.5t85.5 -32.5t85.5 32.5t31.5 82.5q0 49 -31.5 82.5t-85.5 33.5zM621 513v-513h-182v57h-2q-46 -74 -155 -74q-112 0 -186 82q-73 79 -73 192t72.5 193t184.5 80q102 0 159 -67v50h182zM213 800q41 0 69.5 -28.5
t28.5 -69.5t-28.5 -69.5t-69.5 -28.5t-70 28.5t-29 69.5t29 69.5t70 28.5zM469 800q41 0 69.5 -28.5t28.5 -69.5t-28.5 -69.5t-69.5 -28.5t-70 28.5t-29 69.5t29 69.5t70 28.5z" />
    <glyph glyph-name="atilde" unicode="&#xe3;" horiz-adv-x="682" 
d="M328 372q-54 0 -85.5 -33.5t-31.5 -82.5q0 -50 31.5 -82.5t85.5 -32.5t85.5 32.5t31.5 82.5q0 49 -31.5 82.5t-85.5 33.5zM621 513v-513h-182v57h-2q-46 -74 -155 -74q-112 0 -186 82q-73 79 -73 192t72.5 193t184.5 80q102 0 159 -67v50h182zM225 616v0h-82l-1 11
q0 51 22 89q33 56 89 56q27 0 85.5 -17t77.5 -17q26 0 40 36h85q-5 -62 -35 -106q-36 -52 -95 -52q-26 0 -77.5 18.5t-74.5 18.5q-22 0 -34 -37z" />
    <glyph glyph-name="aring" unicode="&#xe5;" horiz-adv-x="682" 
d="M328 372q-54 0 -85.5 -33.5t-31.5 -82.5q0 -50 31.5 -82.5t85.5 -32.5t85.5 32.5t31.5 82.5q0 49 -31.5 82.5t-85.5 33.5zM621 513v-513h-182v57h-2q-46 -74 -155 -74q-112 0 -186 82q-73 79 -73 192t72.5 193t184.5 80q102 0 159 -67v50h182zM340 815q65 0 106 -25
q49 -30 49 -90q0 -59 -48 -89q-41 -26 -104 -26q-64 0 -105 24q-50 30 -50 90t48 90q40 26 104 26zM342 743q-59 0 -59 -43t59 -43q58 0 58 43t-58 43z" />
    <glyph glyph-name="ccedilla" unicode="&#xe7;" horiz-adv-x="483" 
d="M430 500v-154q-49 36 -94 36q-53 0 -89 -36t-36 -89q0 -55 36 -90.5t92 -35.5q53 0 91 35v-154q-58 -29 -128 -29q-116 0 -196 76q-83 77 -83 192q0 122 82.5 200.5t204.5 78.5q66 0 120 -30zM356 -94l-151 -143l-78 49l130 158z" />
    <glyph glyph-name="eacute" unicode="&#xe9;" horiz-adv-x="610" 
d="M207 331h211q-7 36 -36 58.5t-67 22.5q-91 0 -108 -81zM587 245v-19h-383q0 -114 114 -114q59 0 87 47h175q-21 -86 -97 -133q-70 -43 -164 -43q-132 0 -212 70q-85 74 -85 203q0 127 78.5 200.5t205.5 73.5q133 0 207 -76.5t74 -208.5zM456 740l-171 -151l-81 59
l141 172z" />
    <glyph glyph-name="egrave" unicode="&#xe8;" horiz-adv-x="610" 
d="M207 331h211q-7 36 -36 58.5t-67 22.5q-91 0 -108 -81zM587 245v-19h-383q0 -114 114 -114q59 0 87 47h175q-21 -86 -97 -133q-70 -43 -164 -43q-132 0 -212 70q-85 74 -85 203q0 127 78.5 200.5t205.5 73.5q133 0 207 -76.5t74 -208.5zM154 740l111 80l141 -172l-81 -59
z" />
    <glyph glyph-name="ecircumflex" unicode="&#xea;" horiz-adv-x="610" 
d="M207 331h211q-7 36 -36 58.5t-67 22.5q-91 0 -108 -81zM587 245v-19h-383q0 -114 114 -114q59 0 87 47h175q-21 -86 -97 -133q-70 -43 -164 -43q-132 0 -212 70q-85 74 -85 203q0 127 78.5 200.5t205.5 73.5q133 0 207 -76.5t74 -208.5zM85 665l218 164l221 -164l-77 -84
l-144 111l-144 -111z" />
    <glyph glyph-name="edieresis" unicode="&#xeb;" horiz-adv-x="610" 
d="M207 331h211q-7 36 -36 58.5t-67 22.5q-91 0 -108 -81zM587 245v-19h-383q0 -114 114 -114q59 0 87 47h175q-21 -86 -97 -133q-70 -43 -164 -43q-132 0 -212 70q-85 74 -85 203q0 127 78.5 200.5t205.5 73.5q133 0 207 -76.5t74 -208.5zM177 800q41 0 69.5 -28.5
t28.5 -69.5t-28.5 -69.5t-69.5 -28.5t-70 28.5t-29 69.5t29 69.5t70 28.5zM433 800q41 0 69.5 -28.5t28.5 -69.5t-28.5 -69.5t-69.5 -28.5t-70 28.5t-29 69.5t29 69.5t70 28.5z" />
    <glyph glyph-name="iacute" unicode="&#xed;" horiz-adv-x="302" 
d="M242 513v-513h-182v513h182zM292 740l-171 -151l-81 59l141 172z" />
    <glyph glyph-name="igrave" unicode="&#xec;" horiz-adv-x="302" 
d="M242 513v-513h-182v513h182zM10 740l111 80l141 -172l-81 -59z" />
    <glyph glyph-name="icircumflex" unicode="&#xee;" horiz-adv-x="302" 
d="M242 513v-513h-182v513h182zM-69 665l218 164l221 -164l-77 -84l-144 111l-144 -111z" />
    <glyph glyph-name="idieresis" unicode="&#xef;" horiz-adv-x="302" 
d="M242 513v-513h-182v513h182zM23 800q41 0 69.5 -28.5t28.5 -69.5t-28.5 -69.5t-69.5 -28.5t-70 28.5t-29 69.5t29 69.5t70 28.5zM279 800q41 0 69.5 -28.5t28.5 -69.5t-28.5 -69.5t-69.5 -28.5t-70 28.5t-29 69.5t29 69.5t70 28.5z" />
    <glyph glyph-name="ntilde" unicode="&#xf1;" horiz-adv-x="661" 
d="M242 513v-66h2q56 83 164 83q193 0 193 -213v-317h-182v250q0 64 -7 86q-17 49 -75 49q-95 0 -95 -119v-266h-182v513h182zM214 616v0h-82l-1 11q0 51 22 89q33 56 89 56q27 0 85.5 -17t77.5 -17q26 0 40 36h85q-5 -62 -35 -106q-36 -52 -95 -52q-26 0 -77.5 18.5
t-74.5 18.5q-22 0 -34 -37z" />
    <glyph glyph-name="oacute" unicode="&#xf3;" horiz-adv-x="662" 
d="M331 530q130 0 216 -71q93 -77 93 -203t-93 -202q-86 -71 -216 -71q-129 0 -216 71q-93 76 -93 202t93 203q86 71 216 71zM331 372q-54 0 -85.5 -33.5t-31.5 -82.5q0 -50 31.5 -82.5t85.5 -32.5t85.5 32.5t31.5 82.5q0 49 -31.5 82.5t-85.5 33.5zM482 740l-171 -151
l-81 59l141 172z" />
    <glyph glyph-name="ograve" unicode="&#xf2;" horiz-adv-x="662" 
d="M331 530q130 0 216 -71q93 -77 93 -203t-93 -202q-86 -71 -216 -71q-129 0 -216 71q-93 76 -93 202t93 203q86 71 216 71zM331 372q-54 0 -85.5 -33.5t-31.5 -82.5q0 -50 31.5 -82.5t85.5 -32.5t85.5 32.5t31.5 82.5q0 49 -31.5 82.5t-85.5 33.5zM180 740l111 80
l141 -172l-81 -59z" />
    <glyph glyph-name="ocircumflex" unicode="&#xf4;" horiz-adv-x="662" 
d="M331 530q130 0 216 -71q93 -77 93 -203t-93 -202q-86 -71 -216 -71q-129 0 -216 71q-93 76 -93 202t93 203q86 71 216 71zM331 372q-54 0 -85.5 -33.5t-31.5 -82.5q0 -50 31.5 -82.5t85.5 -32.5t85.5 32.5t31.5 82.5q0 49 -31.5 82.5t-85.5 33.5zM111 665l218 164
l221 -164l-77 -84l-144 111l-144 -111z" />
    <glyph glyph-name="odieresis" unicode="&#xf6;" horiz-adv-x="662" 
d="M331 530q130 0 216 -71q93 -77 93 -203t-93 -202q-86 -71 -216 -71q-129 0 -216 71q-93 76 -93 202t93 203q86 71 216 71zM331 372q-54 0 -85.5 -33.5t-31.5 -82.5q0 -50 31.5 -82.5t85.5 -32.5t85.5 32.5t31.5 82.5q0 49 -31.5 82.5t-85.5 33.5zM203 800
q41 0 69.5 -28.5t28.5 -69.5t-28.5 -69.5t-69.5 -28.5t-70 28.5t-29 69.5t29 69.5t70 28.5zM459 800q41 0 69.5 -28.5t28.5 -69.5t-28.5 -69.5t-69.5 -28.5t-70 28.5t-29 69.5t29 69.5t70 28.5z" />
    <glyph glyph-name="otilde" unicode="&#xf5;" horiz-adv-x="662" 
d="M331 530q130 0 216 -71q93 -77 93 -203t-93 -202q-86 -71 -216 -71q-129 0 -216 71q-93 76 -93 202t93 203q86 71 216 71zM331 372q-54 0 -85.5 -33.5t-31.5 -82.5q0 -50 31.5 -82.5t85.5 -32.5t85.5 32.5t31.5 82.5q0 49 -31.5 82.5t-85.5 33.5zM215 616v0h-82l-1 11
q0 51 22 89q33 56 89 56q27 0 85.5 -17t77.5 -17q26 0 40 36h85q-5 -62 -35 -106q-36 -52 -95 -52q-26 0 -77.5 18.5t-74.5 18.5q-22 0 -34 -37z" />
    <glyph glyph-name="uacute" unicode="&#xfa;" horiz-adv-x="659" 
d="M57 513h182v-274q0 -54 17 -80q22 -31 74 -31t74 31q17 26 17 80v274h182v-309q0 -221 -273 -221t-273 221v309zM486 740l-171 -151l-81 59l141 172z" />
    <glyph glyph-name="ugrave" unicode="&#xf9;" horiz-adv-x="659" 
d="M57 513h182v-274q0 -54 17 -80q22 -31 74 -31t74 31q17 26 17 80v274h182v-309q0 -221 -273 -221t-273 221v309zM174 740l111 80l141 -172l-81 -59z" />
    <glyph glyph-name="ucircumflex" unicode="&#xfb;" horiz-adv-x="659" 
d="M57 513h182v-274q0 -54 17 -80q22 -31 74 -31t74 31q17 26 17 80v274h182v-309q0 -221 -273 -221t-273 221v309zM110 665l218 164l221 -164l-77 -84l-144 111l-144 -111z" />
    <glyph glyph-name="udieresis" unicode="&#xfc;" horiz-adv-x="659" 
d="M57 513h182v-274q0 -54 17 -80q22 -31 74 -31t74 31q17 26 17 80v274h182v-309q0 -221 -273 -221t-273 221v309zM202 800q41 0 69.5 -28.5t28.5 -69.5t-28.5 -69.5t-69.5 -28.5t-70 28.5t-29 69.5t29 69.5t70 28.5zM458 800q41 0 69.5 -28.5t28.5 -69.5t-28.5 -69.5
t-69.5 -28.5t-70 28.5t-29 69.5t29 69.5t70 28.5z" />
    <glyph glyph-name="dagger" unicode="&#x2020;" 
d="M260 754h166v-205h177v-144h-177v-585h-166v585h-176v144h176v205z" />
    <glyph glyph-name="degree" unicode="&#xb0;" horiz-adv-x="400" 
d="M350 623q0 -61 -44.5 -105t-106.5 -44t-105 43.5t-44 105.5t42.5 106.5t106.5 44.5q62 0 106.5 -44.5t44.5 -106.5zM265 624q0 27 -19 46t-47 19q-26 0 -45 -19.5t-19 -45.5q0 -27 19 -46t46 -19t46 19t19 46z" />
    <glyph glyph-name="cent" unicode="&#xa2;" 
d="M394 10v99q-105 4 -179 83.5t-74 184.5q0 112 70.5 187t182.5 86v93h93v-99l58 -17v-163q-40 38 -88 38q-54 0 -90 -34.5t-36 -87.5q0 -51 34.5 -87t85.5 -36q62 0 94 38v-163q-38 -14 -58 -16v-106h-93z" />
    <glyph glyph-name="sterling" unicode="&#xa3;" 
d="M478 300h-142q9 -26 9 -68q0 -41 -9 -66l11 -4q93 -34 148 -34q51 0 51 49h122q-6 -87 -51 -138q-48 -55 -133 -55q-38 0 -138 28q-89 25 -127 25q-53 0 -63 -37h-130q13 70 57 120q49 56 115 57q10 21 10 43q0 38 -28 80h-161v76h108q-36 58 -36 128q0 113 81 191
q76 73 211 73q147 0 213 -68q63 -67 65 -216h-194v35q0 38 -26.5 66.5t-64.5 28.5q-44 0 -69.5 -30.5t-25.5 -75.5q0 -72 41 -132h156v-76z" />
    <glyph glyph-name="section" unicode="&#xa7;" 
d="M285 270l167 -83q26 21 26 54q0 38 -73 75l-164 83q-31 -18 -31 -54q0 -27 25 -47q11 -9 50 -28zM563 589h-157q-14 60 -71 60q-23 0 -39.5 -14t-16.5 -37q0 -32 32 -56q9 -6 61 -32l111 -56q76 -38 104 -68q43 -44 43 -114q0 -90 -84 -157q51 -45 51 -130
q0 -103 -81 -162q-73 -53 -180 -53q-115 0 -193 58q-89 65 -84 175h183q-1 -38 29.5 -64.5t68.5 -26.5q32 0 54 18t22 49t-29 52q-11 9 -55 30l-158 77q-117 57 -117 165q0 91 86 163q-45 43 -45 117q0 90 71 143q64 48 157 48q98 0 161 -43q72 -48 76 -142z" />
    <glyph glyph-name="bullet" unicode="&#x2022;" 
d="M344 566q80 0 134 -55t54 -134q0 -78 -54 -133t-134 -55t-134.5 55t-54.5 133q0 79 54.5 134t134.5 55z" />
    <glyph glyph-name="paragraph" unicode="&#xb6;" 
d="M263 754h377v-91h-66v-833h-101v832h-93v-832h-101v460q-107 10 -167 67q-65 62 -65 168q0 87 66.5 158t149.5 71z" />
    <glyph glyph-name="germandbls" unicode="&#xdf;" horiz-adv-x="651" 
d="M60 442v147q0 129 62 185q73 66 198 66q107 0 176 -56q73 -60 73 -165q0 -90 -89 -157q77 -31 111 -76q38 -51 38 -137q0 -56 -20 -109q-22 -58 -60 -91q-76 -66 -215 -66h-39v155q58 -2 96.5 31t38.5 90q0 56 -39.5 91t-95.5 31v145q99 -4 99 81q0 76 -76 76
q-49 0 -65 -36q-11 -23 -11 -78v-569h-182v297h-52v145h52z" />
    <glyph glyph-name="registered" unicode="&#xae;" horiz-adv-x="800" 
d="M400 -20q-165 0 -280.5 115.5t-115.5 280.5q0 166 115 282t281 116q165 0 280.5 -116t115.5 -282q0 -164 -115.5 -280t-280.5 -116zM400 74q129 0 215.5 85.5t86.5 216.5q0 132 -86.5 218t-215.5 86q-130 0 -216 -85.5t-86 -218.5q0 -131 86 -216.5t216 -85.5zM490 349
l100 -174h-100l-92 174h-64v-174h-92v412h200q81 0 116 -22q44 -28 44 -104q0 -104 -112 -112zM334 411h110q37 0 54.5 12.5t17.5 49.5q0 28 -31 37q-19 5 -62 5h-89v-104z" />
    <glyph glyph-name="copyright" unicode="&#xa9;" horiz-adv-x="800" 
d="M400 -20q-165 0 -280.5 115.5t-115.5 280.5q0 166 115 282t281 116q165 0 280.5 -116t115.5 -282q0 -164 -115.5 -280t-280.5 -116zM400 74q129 0 215.5 85.5t86.5 216.5q0 132 -86.5 218t-215.5 86q-130 0 -216 -85.5t-86 -218.5q0 -131 86 -216.5t216 -85.5zM602 459
h-90q-12 73 -98 73q-57 0 -90 -44t-33 -106q0 -60 34 -105q37 -48 92 -48q37 0 65 21t30 56h90q-8 -70 -61 -112t-124 -42q-98 0 -159 65.5t-61 162.5q0 101 59 165t159 64q72 0 123.5 -40.5t63.5 -109.5z" />
    <glyph glyph-name="trademark" unicode="&#x2122;" horiz-adv-x="940" 
d="M899 754v-404h-88v326h-2l-117 -326h-52l-117 326h-2v-326h-88v404h142l91 -239l91 239h142zM384 754v-78h-123v-326h-97v326h-123v78h343z" />
    <glyph glyph-name="acute" unicode="&#xb4;" horiz-adv-x="402" 
d="M327 740l-171 -151l-81 59l141 172z" />
    <glyph glyph-name="dieresis" unicode="&#xa8;" horiz-adv-x="604" 
d="M174 800q41 0 69.5 -28.5t28.5 -69.5t-28.5 -69.5t-69.5 -28.5t-70 28.5t-29 69.5t29 69.5t70 28.5zM430 800q41 0 69.5 -28.5t28.5 -69.5t-28.5 -69.5t-69.5 -28.5t-70 28.5t-29 69.5t29 69.5t70 28.5z" />
    <glyph glyph-name="AE" unicode="&#xc6;" horiz-adv-x="1026" 
d="M470 281l-81 224l-85 -224h166zM572 0l-49 131h-273l-47 -131h-207l291 754h462l61 -166h-248l46 -126h247l63 -166h-249l49 -130h248l60 -166h-454z" />
    <glyph glyph-name="Oslash" unicode="&#xd8;" horiz-adv-x="887" 
d="M260 275l290 285q-50 29 -107 29q-87 0 -150 -60t-63 -139q0 -65 30 -115zM630 481l-293 -287q47 -29 106 -29q89 0 151 64.5t62 160.5q0 50 -26 91zM21 40l90 89q-85 110 -85 262q0 167 127 280q122 108 290 108q138 0 250 -78l95 93l78 -80l-90 -89q84 -100 84 -234
q0 -183 -117.5 -299.5t-299.5 -116.5q-145 0 -251 77l-93 -92z" />
    <glyph glyph-name="plusminus" unicode="&#xb1;" 
d="M268 512v142h150v-142h181v-150h-181v-142h-150v142h-181v150h181zM87 150h512v-150h-512v150z" />
    <glyph glyph-name="yen" unicode="&#xa5;" 
d="M633 446h-142l-56 -84h198v-76h-198v-286h-184v286h-200v76h199l-57 84h-142v76h92l-154 232h222l132 -205l132 205h222l-155 -232h91v-76z" />
    <glyph glyph-name="mu" unicode="&#xb5;" horiz-adv-x="659" 
d="M57 513h182v-274q0 -54 17 -80q22 -31 74 -31t74 31q17 26 17 80v274h182v-309q0 -117 -81 -176q-63 -45 -152 -45q-80 0 -131 49v-288h-182v769z" />
    <glyph glyph-name="mu" unicode="&#x3bc;" horiz-adv-x="659" 
d="M57 513h182v-274q0 -54 17 -80q22 -31 74 -31t74 31q17 26 17 80v274h182v-309q0 -117 -81 -176q-63 -45 -152 -45q-80 0 -131 49v-288h-182v769z" />
    <glyph glyph-name="ordfeminine" unicode="&#xaa;" horiz-adv-x="409" 
d="M209 540q32 0 54 20.5t22 49.5t-22 49.5t-54 20.5t-54 -20.5t-22 -49.5t22 -49.5t54 -20.5zM281 456v34h-2q-29 -44 -100 -44q-73 0 -120.5 48t-47.5 116t47 116t120 48q66 0 103 -40v30h118v-308h-118z" />
    <glyph glyph-name="ordmasculine" unicode="&#xba;" horiz-adv-x="410" 
d="M205 774q84 0 142.5 -44t58.5 -120t-58.5 -120t-142.5 -44t-140 43q-60 45 -60 121t60 121q56 43 140 43zM205 679q-31 0 -53 -20t-22 -49t21.5 -49t53.5 -20t54 20t22 49t-22.5 49t-53.5 20z" />
    <glyph glyph-name="ae" unicode="&#xe6;" horiz-adv-x="940" 
d="M541 331h211q-7 36 -36 58.5t-67 22.5q-91 0 -108 -81zM274 218q-29 0 -50 -12q-26 -16 -26 -43q0 -28 28 -43q23 -12 54 -12q30 0 57 12q34 15 34 42q0 30 -36 45q-26 11 -61 11zM918 226h-383q0 -114 114 -114q59 0 87 47h175q-21 -86 -97 -133q-70 -43 -164 -43
q-161 0 -206 101q-79 -101 -208 -101q-83 0 -144 40q-71 46 -71 125q0 86 65 131q57 40 146 40q72 0 135 -26v15q0 90 -122 90q-55 0 -143 -28v136q89 24 149 24q146 0 193 -91q29 44 85 69q50 22 108 22q133 0 207 -76.5t74 -208.5v-19z" />
    <glyph glyph-name="oslash" unicode="&#xf8;" horiz-adv-x="662" 
d="M221 214l153 151q-21 7 -43 7q-54 0 -85.5 -33.5t-31.5 -82.5q0 -25 7 -42zM441 299l-153 -151q18 -7 43 -7q54 0 85.5 32.5t31.5 82.5q0 23 -7 43zM21 16l66 65q-65 71 -65 175q0 126 93 203q86 71 216 71q94 0 169 -40l71 70l70 -62l-66 -66q65 -73 65 -176
q0 -126 -93 -202q-86 -71 -216 -71q-95 0 -169 40l-71 -70z" />
    <glyph glyph-name="questiondown" unicode="&#xbf;" horiz-adv-x="595" 
d="M409 258v-194q-23 5 -42 5q-48 0 -86 -25q-43 -28 -43 -74q0 -31 21 -53t52 -22q33 0 51.5 21t18.5 55h199q-1 -109 -84 -175q-78 -60 -190 -60q-102 0 -175 62q-86 73 -86 173q0 81 52 138q47 52 129 78v71h183zM314 532q49 0 83 -34t34 -83q0 -48 -34 -82.5t-83 -34.5
t-83 34.5t-34 82.5q0 49 34 83t83 34z" />
    <glyph glyph-name="exclamdown" unicode="&#xa1;" horiz-adv-x="384" 
d="M192 532q49 0 83 -34t34 -83q0 -48 -34 -82.5t-83 -34.5t-83 34.5t-34 82.5q0 49 34 83t83 34zM98 255h189v-498h-189v498z" />
    <glyph glyph-name="logicalnot" unicode="&#xac;" 
d="M449 141v161h-362v150h512v-311h-150z" />
    <glyph glyph-name="florin" unicode="&#x192;" 
d="M471 505h110l-13 -76h-110l-51 -279q-15 -83 -28 -123q-21 -65 -57 -112q-75 -97 -193 -97q-14 0 -29 1l-106 9l30 165q52 -9 71 -9q75 0 103 68q14 35 34 144l42 233h-86l12 76h88l20 108q18 100 62 148q62 69 162 69q80 0 130 -34l-29 -157q-41 30 -78 30
q-38 0 -56 -38q-8 -18 -18 -71z" />
    <glyph glyph-name="guillemotleft" unicode="&#xab;" horiz-adv-x="603" 
d="M421 320l129 -174l-103 -72l-172 246l172 246l100 -69zM172 320l129 -174l-103 -72l-172 246l172 246l100 -69z" />
    <glyph glyph-name="guillemotright" unicode="&#xbb;" horiz-adv-x="603" 
d="M53 146l129 174l-126 177l100 69l172 -246l-172 -246zM302 146l129 174l-126 177l100 69l172 -246l-172 -246z" />
    <glyph glyph-name="ellipsis" unicode="&#x2026;" horiz-adv-x="1000" 
d="M500 214q49 0 83 -34t34 -83q0 -48 -34 -82.5t-83 -34.5t-83 34.5t-34 82.5q0 49 34 83t83 34zM833 214q49 0 83 -34t34 -83q0 -48 -34 -82.5t-83 -34.5t-83 34.5t-34 82.5q0 49 34 83t83 34zM167 214q49 0 83 -34t34 -83q0 -48 -34 -82.5t-83 -34.5t-83 34.5t-34 82.5
q0 49 34 83t83 34z" />
    <glyph glyph-name="Agrave" unicode="&#xc0;" horiz-adv-x="781" 
d="M526 131h-270l-52 -131h-208l290 754h214l284 -754h-209zM473 281l-80 240h-2l-81 -240h163zM245 951l111 80l141 -172l-81 -59z" />
    <glyph glyph-name="Atilde" unicode="&#xc3;" horiz-adv-x="781" 
d="M526 131h-270l-52 -131h-208l290 754h214l284 -754h-209zM473 281l-80 240h-2l-81 -240h163zM274 827v0h-82l-1 11q0 51 22 89q33 56 89 56q27 0 85.5 -17t77.5 -17q26 0 40 36h85q-5 -62 -35 -106q-36 -52 -95 -52q-26 0 -77.5 18.5t-74.5 18.5q-22 0 -34 -37z" />
    <glyph glyph-name="Otilde" unicode="&#xd5;" horiz-adv-x="887" 
d="M443 779q168 0 290 -108q127 -113 127 -280q0 -183 -117.5 -299.5t-299.5 -116.5t-299.5 116.5t-117.5 299.5q0 167 127 280q122 108 290 108zM443 589q-87 0 -150 -60t-63 -139q0 -96 62 -160.5t151 -64.5t151 64.5t62 160.5q0 79 -63 139t-150 60zM327 827v0h-82l-1 11
q0 51 22 89q33 56 89 56q27 0 85.5 -17t77.5 -17q26 0 40 36h85q-5 -62 -35 -106q-36 -52 -95 -52q-26 0 -77.5 18.5t-74.5 18.5q-22 0 -34 -37z" />
    <glyph glyph-name="OE" unicode="&#x152;" horiz-adv-x="1140" 
d="M660 0v83q-99 -108 -240 -108q-161 0 -277.5 120t-116.5 282t116.5 282t277.5 120q146 0 240 -94v69h424v-166h-229v-126h213v-166h-213v-130h229v-166h-424zM441 589q-87 0 -149 -62t-62 -150q0 -87 62 -149.5t149 -62.5t148.5 62.5t61.5 149.5q0 88 -61 150t-149 62z
" />
    <glyph glyph-name="oe" unicode="&#x153;" horiz-adv-x="1022" 
d="M618 331h211q-7 36 -36 58.5t-67 22.5q-91 0 -108 -81zM330 372q-48 0 -82.5 -34.5t-34.5 -81.5q0 -48 34.5 -81.5t82.5 -33.5t82.5 33.5t34.5 81.5q0 47 -34.5 81.5t-82.5 34.5zM1001 245v-19h-383q0 -114 114 -114q59 0 87 47h175q-21 -86 -97 -133q-70 -43 -164 -43
q-145 0 -208 89q-80 -89 -208 -89q-130 0 -211 71q-85 74 -85 202q0 126 85 202q81 72 209 72q129 0 210 -77q59 77 195 77q133 0 207 -76.5t74 -208.5z" />
    <glyph glyph-name="endash" unicode="&#x2013;" horiz-adv-x="500" 
d="M0 396h500v-150h-500v150z" />
    <glyph glyph-name="emdash" unicode="&#x2014;" horiz-adv-x="1000" 
d="M130 396h740v-150h-740v150z" />
    <glyph glyph-name="quotedblleft" unicode="&#x201c;" horiz-adv-x="628" 
d="M445 423h-170l184 331h116zM189 423h-170l184 331h116z" />
    <glyph glyph-name="quotedblright" unicode="&#x201d;" horiz-adv-x="628" 
d="M183 754h170l-184 -331h-116zM439 754h170l-184 -331h-116z" />
    <glyph glyph-name="quoteleft" unicode="&#x2018;" horiz-adv-x="372" 
d="M189 423h-170l184 331h116z" />
    <glyph glyph-name="quoteright" unicode="&#x2019;" horiz-adv-x="372" 
d="M183 754h170l-184 -331h-116z" />
    <glyph glyph-name="divide" unicode="&#xf7;" 
d="M87 332h512v-150h-512v150zM343 127q30 0 51 -21t21 -51t-21 -51t-51 -21t-51 21t-21 51t21 51t51 21zM343 531q30 0 51 -21t21 -51t-21 -51t-51 -21t-51 21t-21 51t21 51t51 21z" />
    <glyph glyph-name="ydieresis" unicode="&#xff;" horiz-adv-x="654" 
d="M233 70l-248 443h210l137 -263l134 263h207l-411 -769h-204zM214 800q41 0 69.5 -28.5t28.5 -69.5t-28.5 -69.5t-69.5 -28.5t-70 28.5t-29 69.5t29 69.5t70 28.5zM470 800q41 0 69.5 -28.5t28.5 -69.5t-28.5 -69.5t-69.5 -28.5t-70 28.5t-29 69.5t29 69.5t70 28.5z" />
    <glyph glyph-name="Ydieresis" unicode="&#x178;" horiz-adv-x="714" 
d="M259 362l-278 392h235l141 -205l141 205h235l-278 -392v-362h-196v362zM239 1011q41 0 69.5 -28.5t28.5 -69.5t-28.5 -69.5t-69.5 -28.5t-70 28.5t-29 69.5t29 69.5t70 28.5zM495 1011q41 0 69.5 -28.5t28.5 -69.5t-28.5 -69.5t-69.5 -28.5t-70 28.5t-29 69.5t29 69.5
t70 28.5z" />
    <glyph glyph-name="currency" unicode="&#xa4;" 
d="M49 152l66 66q-50 66 -50 160q0 104 50 165l-66 67l62 63l67 -67q68 52 168 52q98 0 160 -52l67 67l62 -62l-62 -63q54 -73 54 -168q0 -98 -56 -161l66 -66l-60 -65l-67 66q-64 -54 -164 -54q-103 0 -169 55l-66 -66zM346 508q-56 0 -93.5 -38.5t-37.5 -94.5t37 -90.5
t94 -34.5t94 34.5t37 90.5t-37.5 94.5t-93.5 38.5z" />
    <glyph glyph-name="guilsinglleft" unicode="&#x2039;" horiz-adv-x="354" 
d="M172 320l129 -174l-103 -72l-172 246l172 246l100 -69z" />
    <glyph glyph-name="guilsinglright" unicode="&#x203a;" horiz-adv-x="354" 
d="M53 146l129 174l-126 177l100 69l172 -246l-172 -246z" />
    <glyph glyph-name="daggerdbl" unicode="&#x2021;" 
d="M261 754h166v-185h176v-144h-176v-142h176v-144h-176v-318h-166v318h-177v144h177v142h-177v144h177v185z" />
    <glyph glyph-name="periodcentered" unicode="&#xb7;" horiz-adv-x="343" 
d="M172 373q49 0 83 -34t34 -83q0 -48 -34 -82.5t-83 -34.5t-83 34.5t-34 82.5q0 49 34 83t83 34z" />
    <glyph glyph-name="periodcentered" unicode="&#x2219;" horiz-adv-x="343" 
d="M172 373q49 0 83 -34t34 -83q0 -48 -34 -82.5t-83 -34.5t-83 34.5t-34 82.5q0 49 34 83t83 34z" />
    <glyph glyph-name="quotesinglbase" unicode="&#x201a;" horiz-adv-x="338" 
d="M149 191h170l-184 -331h-116z" />
    <glyph glyph-name="quotedblbase" unicode="&#x201e;" horiz-adv-x="594" 
d="M149 191h170l-184 -331h-116zM405 191h170l-184 -331h-116z" />
    <glyph glyph-name="perthousand" unicode="&#x2030;" horiz-adv-x="1460" 
d="M225 764q88 0 145 -46q61 -51 61 -137q0 -88 -60 -139q-56 -47 -146 -47t-146 47q-60 51 -60 139q0 86 61 137q57 46 145 46zM225 664q-35 0 -60 -25t-25 -60t25 -59.5t60 -24.5t60 24.5t25 59.5t-25 60t-60 25zM657 754h98l-438 -754h-98zM750 359q88 0 145 -46
q61 -51 61 -137q0 -88 -60 -139q-56 -47 -146 -47t-146 47q-60 51 -60 139q0 86 61 137q57 46 145 46zM750 259q-35 0 -60 -25t-25 -60t25 -59.5t60 -24.5t60 24.5t25 59.5t-25 60t-60 25zM1235 359q88 0 145 -46q61 -51 61 -137q0 -88 -60 -139q-56 -47 -146 -47t-146 47
q-60 51 -60 139q0 86 61 137q57 46 145 46zM1235 259q-35 0 -60 -25t-25 -60t25 -59.5t60 -24.5t60 24.5t25 59.5t-25 60t-60 25z" />
    <glyph glyph-name="Acircumflex" unicode="&#xc2;" horiz-adv-x="781" 
d="M526 131h-270l-52 -131h-208l290 754h214l284 -754h-209zM473 281l-80 240h-2l-81 -240h163zM171 876l218 164l221 -164l-77 -84l-144 111l-144 -111z" />
    <glyph glyph-name="Ecircumflex" unicode="&#xca;" horiz-adv-x="550" 
d="M493 588h-233v-126h221v-166h-221v-130h233v-166h-429v754h429v-166zM55 876l218 164l221 -164l-77 -84l-144 111l-144 -111z" />
    <glyph glyph-name="Aacute" unicode="&#xc1;" horiz-adv-x="781" 
d="M526 131h-270l-52 -131h-208l290 754h214l284 -754h-209zM473 281l-80 240h-2l-81 -240h163zM537 951l-171 -151l-81 59l141 172z" />
    <glyph glyph-name="Edieresis" unicode="&#xcb;" horiz-adv-x="550" 
d="M493 588h-233v-126h221v-166h-221v-130h233v-166h-429v754h429v-166zM147 1011q41 0 69.5 -28.5t28.5 -69.5t-28.5 -69.5t-69.5 -28.5t-70 28.5t-29 69.5t29 69.5t70 28.5zM403 1011q41 0 69.5 -28.5t28.5 -69.5t-28.5 -69.5t-69.5 -28.5t-70 28.5t-29 69.5t29 69.5
t70 28.5z" />
    <glyph glyph-name="Egrave" unicode="&#xc8;" horiz-adv-x="550" 
d="M493 588h-233v-126h221v-166h-221v-130h233v-166h-429v754h429v-166zM149 951l111 80l141 -172l-81 -59z" />
    <glyph glyph-name="Iacute" unicode="&#xcd;" horiz-adv-x="324" 
d="M260 754v-754h-196v754h196zM303 951l-171 -151l-81 59l141 172z" />
    <glyph glyph-name="Icircumflex" unicode="&#xce;" horiz-adv-x="324" 
d="M260 754v-754h-196v754h196zM-43 876l218 164l221 -164l-77 -84l-144 111l-144 -111z" />
    <glyph glyph-name="Idieresis" unicode="&#xcf;" horiz-adv-x="324" 
d="M260 754v-754h-196v754h196zM34 1011q41 0 69.5 -28.5t28.5 -69.5t-28.5 -69.5t-69.5 -28.5t-70 28.5t-29 69.5t29 69.5t70 28.5zM290 1011q41 0 69.5 -28.5t28.5 -69.5t-28.5 -69.5t-69.5 -28.5t-70 28.5t-29 69.5t29 69.5t70 28.5z" />
    <glyph glyph-name="Igrave" unicode="&#xcc;" horiz-adv-x="324" 
d="M260 754v-754h-196v754h196zM21 951l111 80l141 -172l-81 -59z" />
    <glyph glyph-name="Oacute" unicode="&#xd3;" horiz-adv-x="887" 
d="M443 779q168 0 290 -108q127 -113 127 -280q0 -183 -117.5 -299.5t-299.5 -116.5t-299.5 116.5t-117.5 299.5q0 167 127 280q122 108 290 108zM443 589q-87 0 -150 -60t-63 -139q0 -96 62 -160.5t151 -64.5t151 64.5t62 160.5q0 79 -63 139t-150 60zM590 951l-171 -151
l-81 59l141 172z" />
    <glyph glyph-name="Ocircumflex" unicode="&#xd4;" horiz-adv-x="887" 
d="M443 779q168 0 290 -108q127 -113 127 -280q0 -183 -117.5 -299.5t-299.5 -116.5t-299.5 116.5t-117.5 299.5q0 167 127 280q122 108 290 108zM443 589q-87 0 -150 -60t-63 -139q0 -96 62 -160.5t151 -64.5t151 64.5t62 160.5q0 79 -63 139t-150 60zM224 876l218 164
l221 -164l-77 -84l-144 111l-144 -111z" />
    <glyph glyph-name="Ograve" unicode="&#xd2;" horiz-adv-x="887" 
d="M443 779q168 0 290 -108q127 -113 127 -280q0 -183 -117.5 -299.5t-299.5 -116.5t-299.5 116.5t-117.5 299.5q0 167 127 280q122 108 290 108zM443 589q-87 0 -150 -60t-63 -139q0 -96 62 -160.5t151 -64.5t151 64.5t62 160.5q0 79 -63 139t-150 60zM298 951l111 80
l141 -172l-81 -59z" />
    <glyph glyph-name="Uacute" unicode="&#xda;" horiz-adv-x="778" 
d="M522 754h196v-424q0 -92 -11 -142q-18 -75 -68 -124q-86 -84 -250 -84t-250 84q-50 49 -68 124q-11 50 -11 142v424h196v-397q0 -96 19 -139q30 -66 114 -66t114 66q19 43 19 139v397zM535 951l-171 -151l-81 59l141 172z" />
    <glyph glyph-name="Ucircumflex" unicode="&#xdb;" horiz-adv-x="778" 
d="M522 754h196v-424q0 -92 -11 -142q-18 -75 -68 -124q-86 -84 -250 -84t-250 84q-50 49 -68 124q-11 50 -11 142v424h196v-397q0 -96 19 -139q30 -66 114 -66t114 66q19 43 19 139v397zM169 876l218 164l221 -164l-77 -84l-144 111l-144 -111z" />
    <glyph glyph-name="Ugrave" unicode="&#xd9;" horiz-adv-x="778" 
d="M522 754h196v-424q0 -92 -11 -142q-18 -75 -68 -124q-86 -84 -250 -84t-250 84q-50 49 -68 124q-11 50 -11 142v424h196v-397q0 -96 19 -139q30 -66 114 -66t114 66q19 43 19 139v397zM243 951l111 80l141 -172l-81 -59z" />
    <glyph glyph-name="circumflex" unicode="&#x2c6;" horiz-adv-x="590" 
d="M75 665l218 164l221 -164l-77 -84l-144 111l-144 -111z" />
    <glyph glyph-name="tilde" unicode="&#x2dc;" horiz-adv-x="549" 
d="M158 616v0h-82l-1 11q0 51 22 89q33 56 89 56q27 0 85.5 -17t77.5 -17q26 0 40 36h85q-5 -62 -35 -106q-36 -52 -95 -52q-26 0 -77.5 18.5t-74.5 18.5q-22 0 -34 -37z" />
    <glyph glyph-name="macron" unicode="&#xaf;" horiz-adv-x="603" 
d="M75 752h452v-107h-452v107z" />
    <glyph glyph-name="macron" unicode="&#x2c9;" horiz-adv-x="603" 
d="M75 752h452v-107h-452v107z" />
    <glyph glyph-name="cedilla" unicode="&#xb8;" horiz-adv-x="380" 
d="M304 -94l-151 -143l-78 49l130 158z" />
    <glyph glyph-name="Scaron" unicode="&#x160;" horiz-adv-x="616" 
d="M556 712l-78 -152q-60 50 -130 50q-31 0 -55 -16q-29 -18 -29 -47q0 -46 87 -72l50 -15q88 -27 132 -69q54 -52 54 -137q0 -137 -78 -203q-84 -71 -214 -71q-142 0 -265 86l84 158q89 -78 174 -78q38 0 66.5 19.5t28.5 56.5q0 36 -44 59q-21 12 -75 27q-109 31 -148 65
q-56 48 -56 148q0 114 73 183.5t187 69.5q127 0 236 -62zM88 955l74 85l144 -112l144 112l77 -85l-221 -163z" />
    <glyph glyph-name="scaron" unicode="&#x161;" horiz-adv-x="513" 
d="M460 497l-61 -116q-47 25 -98 25q-20 0 -36 -8q-21 -10 -21 -27q0 -22 32 -34q7 -2 50 -11q149 -30 149 -152q0 -94 -76 -146q-67 -45 -166 -45q-111 0 -207 59l66 127q74 -52 144 -52q21 0 37 9q20 11 20 30q0 30 -59 44q-87 21 -110 34q-59 35 -59 114q0 89 71 138
q63 44 155 44q96 0 169 -33zM37 744l74 85l144 -112l144 112l77 -85l-221 -163z" />
    <glyph glyph-name="brokenbar" unicode="&#xa6;" horiz-adv-x="579" 
d="M365 161v-250h-150v250h150zM365 661v-250h-150v250h150z" />
    <glyph glyph-name="Eth" unicode="&#xd0;" horiz-adv-x="752" 
d="M260 588v-125h110v-154h-110v-143h44q94 0 152 50q65 56 65 161q0 99 -59 155t-156 56h-46zM64 0v309h-84v154h84v291h254q178 0 292.5 -106t114.5 -271q0 -164 -116 -270.5t-289 -106.5h-256z" />
    <glyph glyph-name="eth" unicode="&#xf0;" horiz-adv-x="662" 
d="M41 744l106 104q109 -51 158 -83l127 67l65 -73l-104 -55q121 -101 171 -172q76 -107 76 -235q0 -155 -98 -240q-86 -74 -217 -74q-112 0 -199 64q-104 76 -104 208q0 118 87 194q79 69 186 69q25 0 59 -6q-51 63 -113 112l-130 -69l-66 71l109 58q-57 36 -113 60z
M331 372q-54 0 -85.5 -33.5t-31.5 -82.5q0 -50 31.5 -82.5t85.5 -32.5t85.5 32.5t31.5 82.5q0 49 -31.5 82.5t-85.5 33.5z" />
    <glyph glyph-name="Yacute" unicode="&#xdd;" horiz-adv-x="714" 
d="M259 362l-278 392h235l141 -205l141 205h235l-278 -392v-362h-196v362zM523 951l-171 -151l-81 59l141 172z" />
    <glyph glyph-name="yacute" unicode="&#xfd;" horiz-adv-x="654" 
d="M233 70l-248 443h210l137 -263l134 263h207l-411 -769h-204zM493 740l-171 -151l-81 59l141 172z" />
    <glyph glyph-name="Thorn" unicode="&#xde;" horiz-adv-x="661" 
d="M64 0v754h196v-120h104q127 0 198 -59q76 -64 76 -189q0 -256 -267 -256h-111v-130h-196zM260 476v-188h33q71 0 97 12q44 19 44 80q0 64 -42 84q-26 12 -99 12h-33z" />
    <glyph glyph-name="thorn" unicode="&#xfe;" horiz-adv-x="682" 
d="M236 830v-375h2q49 75 155 75q112 0 187 -82q72 -80 72 -193t-71 -191q-74 -81 -186 -81q-102 0 -159 66v-305h-182v1086h182zM347 372q-54 0 -85.5 -33.5t-31.5 -82.5q0 -50 31.5 -82.5t85.5 -32.5t85.5 32.5t31.5 82.5q0 49 -31.5 82.5t-85.5 33.5z" />
    <glyph glyph-name="minus" unicode="&#xad;" 
d="M87 332h512v-150h-512v150z" />
    <glyph glyph-name="minus" unicode="&#x2212;" 
d="M87 332h512v-150h-512v150z" />
    <glyph glyph-name="multiply" unicode="&#xd7;" 
d="M238 256l-151 151l106 106l150 -152l149 152l106 -106l-149 -151l150 -150l-106 -106l-150 150l-150 -150l-106 106z" />
    <glyph glyph-name="onesuperior" unicode="&#xb9;" horiz-adv-x="412" 
d="M163 667h-70v99h197v-452h-127v353z" />
    <glyph glyph-name="twosuperior" unicode="&#xb2;" horiz-adv-x="412" 
d="M313 479l-76 -66h160v-99h-394l201 201q56 56 56 111q0 22 -16 40t-40 18q-54 0 -54 -55q0 -5 2 -19h-140q3 79 54 126.5t137 47.5q80 0 133 -43q56 -46 56 -118q0 -45 -21 -80q-17 -28 -58 -64z" />
    <glyph glyph-name="threesuperior" unicode="&#xb3;" horiz-adv-x="412" 
d="M4 461h130q0 -27 19 -45t49 -18t49 16.5t19 43.5q0 25 -20 42.5t-47 17.5q1 0 -23 -3v78h13q56 0 56 50q0 45 -50 45q-23 0 -37.5 -15t-14.5 -37h-118q7 70 56 109t126 39q68 0 112.5 -35t44.5 -96q0 -66 -52 -93q37 -8 60 -44q20 -33 20 -70q0 -70 -59 -111
q-53 -38 -131 -38q-91 0 -146 51q-59 55 -56 113z" />
    <glyph glyph-name="onehalf" unicode="&#xbd;" horiz-adv-x="1029" 
d="M170 655h-70v99h197v-452h-127v353zM845 165l-76 -66h160v-99h-394l201 201q56 56 56 111q0 22 -16 40t-40 18q-54 0 -54 -55q0 -5 2 -19h-140q3 79 54 126.5t137 47.5q80 0 133 -43q56 -46 56 -118q0 -45 -21 -80q-17 -28 -58 -64zM617 754h98l-438 -754h-98z" />
    <glyph glyph-name="onequarter" unicode="&#xbc;" horiz-adv-x="1029" 
d="M170 655h-70v99h197v-452h-127v353zM870 184h59v-90h-59v-94h-118v94h-238v75l189 283h167v-268zM752 183v174h-2l-114 -174h116zM645 754h98l-438 -754h-98z" />
    <glyph glyph-name="threequarters" unicode="&#xbe;" horiz-adv-x="1029" 
d="M920 184h59v-90h-59v-94h-118v94h-238v75l189 283h167v-268zM802 183v174h-2l-114 -174h116zM731 754h98l-438 -754h-98zM226 563h13q56 0 56 50q0 45 -50 45q-23 0 -37.5 -15t-14.5 -37h-118q7 70 56 109t126 39q68 0 112.5 -35t44.5 -96q0 -66 -52 -93q37 -8 60 -44
q20 -33 20 -70q0 -70 -59 -111q-53 -38 -131 -38q-91 0 -146 51q-59 55 -56 113h130q0 -28 19.5 -45.5t48.5 -17.5q30 0 49 16.5t19 43.5q0 25 -20 42.5t-47 17.5q1 0 -23 -3v78z" />
    <glyph glyph-name="glyph217" horiz-adv-x="343" 
 />
    <glyph glyph-name="fraction" unicode="&#x2044;" horiz-adv-x="194" 
d="M267 754h98l-438 -754h-98z" />
    <glyph glyph-name="fi" unicode="&#xf001;" horiz-adv-x="679" 
d="M254 363v-363h-182v363h-64v150h64v65q0 64 7 95q11 46 45 85q71 82 179 82q43 0 78 -18v-157q-40 17 -64 17q-63 0 -63 -86v-83h127v-150h-127zM619 513v-513h-182v513h182zM528 812q42 0 72 -30t30 -72t-30 -72t-72 -30t-72 30t-30 72t30 72t72 30z" />
    <glyph glyph-name="fl" unicode="&#xf002;" horiz-adv-x="690" 
d="M630 830v-830h-182v830h182zM254 363v-363h-182v363h-64v150h64v65q0 64 7 95q11 46 45 85q71 82 179 82q43 0 78 -18v-157q-40 17 -64 17q-63 0 -63 -86v-83h127v-150h-127z" />
    <glyph glyph-name="breve" unicode="&#x2d8;" horiz-adv-x="539" 
d="M75 784h112q11 -67 82 -67q72 0 83 67h111q-4 -80 -57.5 -124.5t-136.5 -44.5t-135 43q-55 46 -59 126z" />
    <glyph glyph-name="dotaccent" unicode="&#x2d9;" horiz-adv-x="402" 
d="M202 800q41 0 69.5 -28.5t28.5 -69.5t-28.5 -69.5t-69.5 -28.5t-70 28.5t-29 69.5t29 69.5t70 28.5z" />
    <glyph glyph-name="ring" unicode="&#x2da;" horiz-adv-x="457" 
d="M227 815q65 0 106 -25q49 -30 49 -90q0 -59 -48 -89q-41 -26 -104 -26q-64 0 -105 24q-50 30 -50 90t48 90q40 26 104 26zM229 743q-59 0 -59 -43t59 -43q58 0 58 43t-58 43z" />
    <glyph glyph-name="hungarumlaut" unicode="&#x2dd;" horiz-adv-x="539" 
d="M254 814l-50 -214h-93l14 214h129zM428 814l-50 -214h-93l14 214h129z" />
    <glyph glyph-name="ogonek" unicode="&#x2db;" horiz-adv-x="350" 
d="M159 0h75v-2q-60 -34 -60 -74q0 -19 13.5 -32.5t32.5 -13.5q22 0 54 19l-22 -92q-31 -19 -80 -19q-37 0 -67 25t-30 61q0 78 84 128z" />
    <glyph glyph-name="caron" unicode="&#x2c7;" horiz-adv-x="590" 
d="M75 744l74 85l144 -112l144 112l77 -85l-221 -163z" />
    <glyph glyph-name="Lslash" unicode="&#x141;" horiz-adv-x="533" 
d="M19 233v142l83 53v326h196v-200l113 72v-146l-113 -71v-243h235v-166h-431v285z" />
    <glyph glyph-name="dotlessi" unicode="&#x131;" horiz-adv-x="302" 
d="M242 513v-513h-182v513h182z" />
    <glyph glyph-name="lslash" unicode="&#x142;" horiz-adv-x="366" 
d="M92 0v331l-84 -51v124l84 52v374h182v-266l84 51v-125l-84 -51v-439h-182z" />
    <glyph glyph-name="zcaron" unicode="&#x17e;" horiz-adv-x="559" 
d="M312 151h216v-151h-520l241 362h-209v151h512zM60 744l74 85l144 -112l144 112l77 -85l-221 -163z" />
    <glyph glyph-name="Zcaron" unicode="&#x17d;" horiz-adv-x="707" 
d="M341 166h316v-166h-646l357 588h-296v166h624zM144 955l74 85l144 -112l144 112l77 -85l-221 -163z" />
    </font>
</defs>
</svg>
