<?xml version="1.0" standalone="no"?>
<!DOCTYPE svg PUBLIC "-//W3C//DTD SVG 1.1//EN" "http://www.w3.org/Graphics/SVG/1.1/DTD/svg11.dtd" >
<svg>
<metadata>
Created by FontForge 20090622 at Mon Mar  6 08:09:32 2017
 By deploy user
Copyright (c) 1987, 1991, 1993 Adobe Systems Incorporated.  All Rights Reserved.Futura is a registered trademark of Fundicion Tipografica Neufville S. A.
</metadata>
<defs>
<font id="Futura-Light" horiz-adv-x="620" >
  <font-face 
    font-family="Futura Light"
    font-weight="400"
    font-stretch="normal"
    units-per-em="1000"
    panose-1="0 0 4 0 0 0 0 0 0 0"
    ascent="800"
    descent="-200"
    x-height="462"
    cap-height="754"
    bbox="-175 -302 1127 971"
    underline-thickness="50"
    underline-position="-75"
    unicode-range="U+0020-U+F002"
  />
<missing-glyph horiz-adv-x="500" 
d="M63 0v763h375v-763h-375zM125 63h250v638h-250v-638z" />
    <glyph glyph-name=".notdef" horiz-adv-x="500" 
d="M63 0v763h375v-763h-375zM125 63h250v638h-250v-638z" />
    <glyph glyph-name=".null" horiz-adv-x="0" 
 />
    <glyph glyph-name="nonmarkingreturn" horiz-adv-x="310" 
 />
    <glyph glyph-name="space" unicode=" " horiz-adv-x="310" 
 />
    <glyph glyph-name="exclam" unicode="!" horiz-adv-x="320" 
d="M160 72q17 0 29 -12t12 -29t-12 -29t-29 -12t-29 12t-12 29t12 29t29 12zM136 143v611h48v-611h-48z" />
    <glyph glyph-name="quotedbl" unicode="&#x22;" horiz-adv-x="278" 
d="M58 754h48l-11 -240h-27zM172 754h48l-11 -240h-27z" />
    <glyph glyph-name="numbersign" unicode="#" 
d="M536 276v-48h-126l-37 -228h-46l36 228h-135l-33 -228h-48l33 228h-121v48h128l23 162h-123v48h130l32 212h50l-32 -212h136l32 212h50l-33 -212h110v-48h-118l-26 -162h118zM395 438h-136l-24 -162h136z" />
    <glyph glyph-name="dollar" unicode="$" 
d="M347 362v-322q61 15 101.5 63.5t40.5 110.5q0 53 -47 93q-28 23 -95 55zM302 437v279q-53 0 -90.5 -43t-37.5 -98q0 -51 42 -87q21 -17 86 -51zM302 38v346q-90 45 -119 69q-57 49 -57 120q0 80 48.5 132.5t127.5 58.5v105h45v-107q104 -13 153 -104l-37 -30
q-46 80 -116 88v-300q105 -54 130 -75q60 -50 60 -131q0 -79 -55.5 -141t-134.5 -77v-113h-45v111q-162 5 -219 163l41 19q23 -61 68 -97q50 -40 110 -37z" />
    <glyph glyph-name="percent" unicode="%" horiz-adv-x="664" 
d="M180 761q64 0 108 -42t44 -107q0 -63 -44 -105t-108 -42t-108 42t-44 105q0 65 44 107t108 42zM180 719q-45 0 -77.5 -31t-32.5 -76q0 -43 32.5 -74t77.5 -31t77.5 31t32.5 74q0 45 -32.5 76t-77.5 31zM538 771l33 -17l-448 -771l-31 18zM484 289q64 0 108 -42t44 -107
q0 -63 -44 -105t-108 -42t-108 42t-44 105q0 65 44 107t108 42zM484 247q-45 0 -77.5 -31t-32.5 -76q0 -43 32.5 -74t77.5 -31t77.5 31t32.5 74q0 45 -32.5 76t-77.5 31z" />
    <glyph glyph-name="ampersand" unicode="&#x26;" horiz-adv-x="642" 
d="M316 723q-40 0 -68 -32t-28 -73q0 -34 23 -73l44 -66l80 62q41 39 41 88q0 39 -26.5 66.5t-65.5 27.5zM592 0l-95 125q-166 -140 -278 -140q-83 0 -140 58.5t-57 140.5q0 87 76 162q42 42 153 112q-45 63 -53 77q-26 46 -26 88q0 60 43.5 102.5t103.5 42.5q58 0 97.5 -41
t39.5 -99t-43 -106q-28 -32 -98 -80l186 -254l96 105l37 -20l-105 -120l115 -153h-52zM279 420l-48 -32q-78 -52 -107 -82q-54 -54 -54 -117q0 -65 42 -112t107 -47q58 0 132 45q44 27 118 88z" />
    <glyph glyph-name="quotesingle" unicode="'" horiz-adv-x="222" 
d="M87 754h48l-11 -240h-27z" />
    <glyph glyph-name="parenleft" unicode="(" horiz-adv-x="240" 
d="M137 780l37 -26q-63 -223 -63 -459q0 -220 63 -447l-37 -25q-35 90 -55 233q-16 121 -16 239q0 305 71 485z" />
    <glyph glyph-name="parenright" unicode=")" horiz-adv-x="240" 
d="M66 754l37 26q71 -180 71 -485q0 -118 -16 -239q-20 -143 -55 -233l-37 25q63 227 63 447q0 236 -63 459z" />
    <glyph glyph-name="asterisk" unicode="*" horiz-adv-x="619" 
d="M289 604l-4 150h49l-4 -150l142 50l15 -47l-144 -43l92 -119l-40 -29l-85 124l-86 -124l-39 28l91 120l-144 43l15 47z" />
    <glyph glyph-name="plus" unicode="+" 
d="M286 280v232h48v-232h232v-48h-232v-232h-48v232h-232v48h232z" />
    <glyph glyph-name="comma" unicode="," horiz-adv-x="310" 
d="M153 74l45 -14l-83 -226l-30 11z" />
    <glyph glyph-name="hyphen" unicode="-" horiz-adv-x="190" 
d="M0 342h190v-45h-190v45z" />
    <glyph glyph-name="hyphen" unicode="&#x2010;" horiz-adv-x="190" 
d="M0 342h190v-45h-190v45z" />
    <glyph glyph-name="period" unicode="." horiz-adv-x="310" 
d="M155 72q17 0 29 -12t12 -29t-12 -29t-29 -12t-29 12t-12 29t12 29t29 12z" />
    <glyph glyph-name="slash" unicode="/" horiz-adv-x="640" 
d="M570 825l35 -18l-533 -949l-37 19z" />
    <glyph glyph-name="zero" unicode="0" 
d="M310 764q129 0 207 -132q67 -112 67 -250q0 -140 -65 -254q-78 -138 -209 -138t-209 138q-65 114 -65 254q0 138 67 250q78 132 207 132zM310 35q109 0 173 123q53 100 53 224q0 113 -53 213q-65 124 -173 124t-173 -124q-53 -100 -53 -213q0 -124 53 -224
q64 -123 173 -123z" />
    <glyph glyph-name="one" unicode="1" 
d="M308 709h-119l23 45h144v-754h-48v709z" />
    <glyph glyph-name="two" unicode="2" 
d="M176 45h358v-45h-465l281 309q66 73 91 109q48 70 48 128q0 73 -52.5 123t-125.5 50q-78 0 -129 -50.5t-49 -127.5h-48q3 94 47 143q70 80 179 80q94 0 160 -63.5t66 -157.5q0 -66 -47 -138q-24 -37 -95 -116z" />
    <glyph glyph-name="three" unicode="3" 
d="M302 370v45q68 2 114 45.5t46 111.5q0 61 -44 104t-105 43q-64 0 -103 -39t-43 -104h-48q6 87 57 137.5t138 50.5q81 0 138.5 -56.5t57.5 -137.5q0 -58 -30.5 -105t-82.5 -70q56 -21 90 -72t34 -111q0 -94 -63.5 -158t-157.5 -64q-87 0 -147 54q-63 56 -62 141h48
q6 -67 49 -108.5t111 -41.5q71 0 122.5 51.5t51.5 122.5q0 72 -49.5 116.5t-121.5 44.5z" />
    <glyph glyph-name="four" unicode="4" 
d="M467 188h106v-45h-106v-143h-48v143h-407v6l449 631h6v-592zM419 188v446h-6l-313 -446h319z" />
    <glyph glyph-name="five" unicode="5" 
d="M531 709h-252l-63 -204q25 8 57 8q108 0 182 -74.5t74 -182.5q0 -115 -78.5 -190.5t-193.5 -75.5q-68 0 -127.5 33.5t-95.5 91.5l44 18q29 -45 78 -71.5t102 -26.5q95 0 159 63.5t64 158.5q0 89 -65 150t-155 61q-58 0 -115 -34l98 320h287v-45z" />
    <glyph glyph-name="six" unicode="6" 
d="M340 764l39 -29l-166 -235l2 -2q48 20 100 20q108 0 185.5 -78.5t77.5 -186.5q0 -100 -75.5 -181.5t-193.5 -81.5q-110 0 -188.5 76.5t-78.5 186.5q0 88 55 166zM310 35q90 0 155 64.5t65 154.5t-65 154.5t-155 64.5q-91 0 -155.5 -64.5t-64.5 -154.5q0 -91 64.5 -155
t155.5 -64z" />
    <glyph glyph-name="seven" unicode="7" 
d="M528 709h-458v45h547l-540 -762l-37 29z" />
    <glyph glyph-name="eight" unicode="8" 
d="M310 369q-70 0 -120.5 -49t-50.5 -118t50.5 -118t120.5 -49t120.5 49t50.5 118t-50.5 118t-120.5 49zM310 -10q-90 0 -154.5 59t-64.5 148q0 137 123 196q-48 24 -77 71t-29 101q0 85 58 142t144 57t144 -57t58 -142q0 -54 -29 -101t-77 -71q123 -59 123 -196
q0 -89 -64.5 -148t-154.5 -59zM310 719q-63 0 -108.5 -45t-45.5 -108t45 -107.5t109 -44.5q63 0 108.5 44.5t45.5 107.5t-45.5 108t-108.5 45z" />
    <glyph glyph-name="nine" unicode="9" 
d="M280 -8l-39 29l167 235l-2 2q-49 -20 -101 -20q-108 0 -185.5 78t-77.5 186q0 109 79.5 185.5t189.5 76.5q113 0 190 -77t77 -190q0 -83 -55 -161zM311 719q-90 0 -155.5 -64t-65.5 -154t65.5 -154t155.5 -64t154.5 64t64.5 154t-64.5 154t-154.5 64z" />
    <glyph glyph-name="colon" unicode=":" horiz-adv-x="310" 
d="M155 72q17 0 29 -12t12 -29t-12 -29t-29 -12t-29 12t-12 29t12 29t29 12zM155 472q17 0 29 -12t12 -29t-12 -29t-29 -12t-29 12t-12 29t12 29t29 12z" />
    <glyph glyph-name="semicolon" unicode=";" horiz-adv-x="310" 
d="M153 74l45 -14l-83 -226l-30 11zM161 472q17 0 29 -12t12 -29t-12 -29t-29 -12t-29 12t-12 29t12 29t29 12z" />
    <glyph glyph-name="less" unicode="&#x3c;" 
d="M106 256l460 -215v-46l-512 235v53l512 223v-46z" />
    <glyph glyph-name="equal" unicode="=" 
d="M566 365v-48h-512v48h512zM566 195v-48h-512v48h512z" />
    <glyph glyph-name="greater" unicode="&#x3e;" 
d="M54 41l460 215l-460 204v46l512 -223v-53l-512 -235v46z" />
    <glyph glyph-name="question" unicode="?" horiz-adv-x="491" 
d="M354 303h48q3 -69 -41 -115t-115 -46q-66 0 -112 42.5t-46 106.5q0 116 143 153q78 20 104 40q42 31 42 98q0 57 -37.5 97t-95.5 40q-56 0 -93.5 -36.5t-36.5 -90.5q0 -33 5 -53h-46q-7 37 -7 64q0 70 54 117q52 44 125 44q80 0 130 -50.5t50 -129.5t-46 -122
q-37 -36 -120 -57q-62 -16 -85 -32q-38 -26 -38 -79q0 -47 31.5 -77t80.5 -30t79 36q28 33 27 80zM243 72q17 0 29 -12t12 -29t-12 -29t-29 -12t-29 12t-12 29t12 29t29 12z" />
    <glyph glyph-name="at" unicode="@" horiz-adv-x="800" 
d="M337 193q46 1 88 40q39 35 53 79l47 147q2 6 2 13q0 32 -28 61q-31 33 -76 33q-74 0 -135 -93q-57 -85 -57 -169q0 -47 27 -78q30 -34 79 -33zM551 541l15 47h44l-103 -324q-9 -27 -9 -40q0 -31 43 -31q61 0 119 84.5t58 167.5q0 120 -94 201q-89 76 -207 76
q-137 0 -236 -104.5t-99 -244.5q0 -138 101 -239.5t236 -101.5q86 0 157 34q75 36 116 102h56q-43 -81 -128 -129q-89 -49 -201 -49q-160 0 -269.5 114t-109.5 276q0 159 111 271.5t264 112.5q145 0 245 -92t100 -231q0 -116 -76 -205q-73 -85 -157 -85q-60 0 -75 49
q-57 -49 -130 -49q-63 0 -98 41.5t-35 105.5q0 112 66 206q72 104 176 104q76 0 120 -67z" />
    <glyph glyph-name="A" unicode="A" horiz-adv-x="641" 
d="M486 248h-331l-101 -248h-49l316 779l315 -779h-49zM468 293l-147 364l-148 -364h295z" />
    <glyph glyph-name="B" unicode="B" horiz-adv-x="565" 
d="M129 367v-322h115q57 0 80 3q44 6 74 26q74 50 74 134q0 96 -78 135q-49 24 -159 24h-106zM274 0h-193v754h151q106 0 156 -44q63 -55 63 -156q0 -105 -87 -154q70 -14 113 -66t43 -124q0 -97 -70 -156q-64 -54 -176 -54zM129 709v-297h83q54 0 71 2q36 5 64 26
q56 40 56 121q0 85 -62 124q-38 24 -129 24h-83z" />
    <glyph glyph-name="C" unicode="C" horiz-adv-x="739" 
d="M680 666v-66q-44 53 -113.5 86t-139.5 33q-140 0 -241.5 -103.5t-101.5 -243.5q0 -135 101 -233q107 -104 242 -104q66 0 139 32.5t114 82.5v-66q-113 -94 -251 -94q-158 0 -275.5 114.5t-117.5 271.5q0 160 116.5 274t277.5 114q144 0 250 -98z" />
    <glyph glyph-name="D" unicode="D" horiz-adv-x="652" 
d="M81 0v754h136q90 0 150 -19q71 -21 130 -76q120 -112 120 -283q0 -164 -116 -276q-59 -57 -131 -80q-62 -20 -153 -20h-136zM129 45h87q161 0 253 91q100 99 100 240q0 152 -109 251q-90 82 -244 82h-87v-664z" />
    <glyph glyph-name="E" unicode="E" horiz-adv-x="507" 
d="M441 709h-312v-274h304v-45h-304v-345h312v-45h-360v754h360v-45z" />
    <glyph glyph-name="F" unicode="F" horiz-adv-x="444" 
d="M385 709h-256v-274h249v-45h-249v-390h-48v754h304v-45z" />
    <glyph glyph-name="G" unicode="G" horiz-adv-x="824" 
d="M470 363h318q3 -161 -79 -251q-53 -58 -129.5 -90t-156.5 -32q-157 0 -272 114t-115 270q0 162 115.5 276t277.5 114q198 0 327 -176l-39 -31q-109 162 -291 162q-137 0 -239.5 -103t-102.5 -239q0 -140 100.5 -241t241.5 -101q122 0 222 83q87 72 92 200h-270v45z" />
    <glyph glyph-name="H" unicode="H" horiz-adv-x="716" 
d="M129 434h458v320h48v-754h-48v389h-458v-389h-48v754h48v-320z" />
    <glyph glyph-name="I" unicode="I" horiz-adv-x="210" 
d="M129 754v-754h-48v754h48z" />
    <glyph glyph-name="J" unicode="J" horiz-adv-x="218" 
d="M89 754h48v-740q0 -81 -25 -121q-32 -51 -108 -51q-87 0 -125 82l36 27q30 -64 93 -64q50 0 69 42q12 28 12 85v740z" />
    <glyph glyph-name="K" unicode="K" horiz-adv-x="569" 
d="M129 402l358 352h64l-369 -363l392 -391h-63l-362 360l-20 -20v-340h-48v754h48v-352z" />
    <glyph glyph-name="L" unicode="L" horiz-adv-x="327" 
d="M129 754v-709h192v-45h-240v754h48z" />
    <glyph glyph-name="M" unicode="M" horiz-adv-x="897" 
d="M842 0l-129 624h-2l-263 -649l-262 649h-2l-129 -624h-46l162 779l277 -686l278 686l162 -779h-46z" />
    <glyph glyph-name="N" unicode="N" horiz-adv-x="843" 
d="M762 754v-779l-633 673v-648h-48v764l633 -668v658h48z" />
    <glyph glyph-name="O" unicode="O" horiz-adv-x="854" 
d="M427 764q159 0 275 -114t116 -273t-116 -273t-275 -114t-275 114t-116 273t115.5 273t275.5 114zM427 719q-141 0 -242 -101t-101 -241t101 -241t242 -101q140 0 241.5 101.5t101.5 240.5q0 140 -101.5 241t-241.5 101z" />
    <glyph glyph-name="P" unicode="P" horiz-adv-x="472" 
d="M129 358v-358h-48v754h133q111 0 163 -44q68 -58 68 -155q0 -95 -63 -149q-56 -48 -168 -48h-85zM129 403h87q87 0 132 41q49 44 49 113q0 79 -57 122q-40 30 -132 30h-79v-306z" />
    <glyph glyph-name="Q" unicode="Q" horiz-adv-x="854" 
d="M520 309l153 -166q97 105 97 228q0 143 -99 245.5t-243 102.5q-140 0 -242 -101.5t-102 -240.5q0 -142 101.5 -242t244.5 -100q111 0 210 79l-188 195h68zM742 0l-68 80q-109 -90 -247 -90q-162 0 -276.5 113t-114.5 274q0 160 115.5 273.5t276.5 113.5q159 0 274.5 -113
t115.5 -271q0 -147 -110 -273l99 -107h-65z" />
    <glyph glyph-name="R" unicode="R" horiz-adv-x="488" 
d="M207 357l247 -357h-55l-246 357h-24v-357h-48v754h94q119 0 172 -38q76 -54 76 -162q0 -96 -59.5 -147.5t-156.5 -49.5zM129 402h61q90 0 132 35q53 44 53 119q0 99 -80 136q-37 17 -135 17h-31v-307z" />
    <glyph glyph-name="S" unicode="S" horiz-adv-x="544" 
d="M464 658l-34 -28q-56 89 -153 89q-60 0 -101 -42t-41 -102q0 -52 46 -88q18 -16 90 -53l144 -75q86 -45 86 -150q0 -92 -71 -155.5t-165 -63.5q-77 0 -136 44t-86 118l42 19q54 -136 182 -136q75 0 130.5 52t55.5 126q0 55 -52 96q-18 13 -100 57l-136 72q-78 41 -78 135
q0 84 54 137.5t139 53.5q57 0 107 -28.5t77 -77.5z" />
    <glyph glyph-name="T" unicode="T" horiz-adv-x="450" 
d="M249 709v-709h-48v709h-195v45h438v-45h-195z" />
    <glyph glyph-name="U" unicode="U" horiz-adv-x="660" 
d="M538 298v456h48v-470q0 -76 -6 -109q-10 -56 -45 -97q-74 -88 -205 -88t-205 88q-35 41 -45 97q-6 33 -6 109v470h48v-456q0 -69 5 -102q8 -55 34.5 -88.5t76.5 -53.5q46 -19 92 -19t92 19q50 20 76.5 53.5t34.5 88.5q5 33 5 102z" />
    <glyph glyph-name="V" unicode="V" horiz-adv-x="555" 
d="M53 754l224 -644h2l223 644h48l-274 -779l-271 779h48z" />
    <glyph glyph-name="W" unicode="W" horiz-adv-x="1105" 
d="M60 754l212 -648l282 686l282 -686l209 648h48l-254 -779l-288 697l-287 -697l-252 779h48z" />
    <glyph glyph-name="X" unicode="X" horiz-adv-x="494" 
d="M218 385l-198 369h53l173 -324l173 324h53l-197 -369l207 -385h-52l-184 341l-182 -341h-52z" />
    <glyph glyph-name="Y" unicode="Y" horiz-adv-x="559" 
d="M255 322l-251 432h53l222 -382l222 382h53l-251 -432v-322h-48v322z" />
    <glyph glyph-name="Z" unicode="Z" horiz-adv-x="568" 
d="M96 45h447v-45h-531l460 709h-416v45h500z" />
    <glyph glyph-name="bracketleft" unicode="[" horiz-adv-x="300" 
d="M113 703v-855h122v-51h-170v957h170v-51h-122z" />
    <glyph glyph-name="backslash" unicode="\" horiz-adv-x="640" 
d="M35 807l35 18l535 -806l-37 -19z" />
    <glyph glyph-name="bracketright" unicode="]" horiz-adv-x="300" 
d="M187 -152v855h-122v51h170v-957h-170v51h122z" />
    <glyph glyph-name="asciicircum" unicode="^" 
d="M101 301h-47l230 453h52l230 -453h-46l-210 408z" />
    <glyph glyph-name="underscore" unicode="_" horiz-adv-x="500" 
d="M500 -125h-500v50h500v-50z" />
    <glyph glyph-name="grave" unicode="`" horiz-adv-x="313" 
d="M75 695l61 19l101 -147l-38 -17z" />
    <glyph glyph-name="a" unicode="a" horiz-adv-x="560" 
d="M256 430q-77 0 -128 -59t-51 -137q0 -83 49 -141q52 -61 133 -61q85 0 135 62q47 57 47 145q0 82 -51 136.5t-134 54.5zM483 462v-462h-45v83h-2q-25 -43 -74 -68t-102 -25q-103 0 -165.5 70t-62.5 174q0 103 62 170.5t164 67.5q117 0 178 -90h2v80h45z" />
    <glyph glyph-name="b" unicode="b" horiz-adv-x="560" 
d="M301 32q82 0 133 61q49 58 49 141q0 79 -51 137.5t-129 58.5q-85 0 -134.5 -56t-49.5 -141q0 -84 48 -141q51 -60 134 -60zM77 0v825h45v-443h2q61 90 178 90q102 0 164 -67.5t62 -170.5q0 -104 -61 -173q-64 -71 -167 -71q-53 0 -102 25t-74 68h-2v-83h-45z" />
    <glyph glyph-name="c" unicode="c" horiz-adv-x="477" 
d="M431 415v-60q-69 75 -163 75q-80 0 -135.5 -59t-55.5 -139t55 -140t135 -60q102 0 170 83v-61q-73 -64 -168 -64q-102 0 -169.5 70t-67.5 172q0 101 68.5 170.5t169.5 69.5q94 0 161 -57z" />
    <glyph glyph-name="d" unicode="d" horiz-adv-x="560" 
d="M259 32q85 0 135 62q47 57 47 145q0 82 -51 136.5t-134 54.5q-77 0 -128 -59t-51 -137q0 -83 49 -141q52 -61 133 -61zM438 0v83h-2q-25 -43 -74 -68t-102 -25q-103 0 -165.5 70t-62.5 174q0 103 62 170.5t164 67.5q117 0 178 -90h2v443h45v-825h-45z" />
    <glyph glyph-name="e" unicode="e" horiz-adv-x="510" 
d="M478 227h-401q-2 -87 51 -141t134 -54q107 0 163 105l38 -22q-66 -125 -207 -125q-100 0 -163 72q-61 69 -61 170q0 100 61 168q64 72 163 72q102 0 164 -73q59 -69 58 -172zM77 269h356q-9 66 -56 112q-51 49 -120 49q-70 0 -122 -47.5t-58 -113.5z" />
    <glyph glyph-name="f" unicode="f" horiz-adv-x="240" 
d="M122 420v-420h-45v420h-51v42h51v207q0 81 18 113q32 56 103 56q22 0 40 -7v-41q-36 6 -37 6q-51 0 -69 -46q-10 -28 -10 -90v-198h116v-42h-116z" />
    <glyph glyph-name="g" unicode="g" horiz-adv-x="567" 
d="M263 430q-77 0 -128 -59t-51 -137q0 -83 49 -141q52 -61 133 -61q85 0 135 62q47 57 47 145q0 82 -51 136.5t-134 54.5zM490 462v-440q0 -67 -6 -102q-10 -53 -40 -94q-65 -89 -184 -89q-94 0 -157 51q-66 55 -71 147h45q4 -70 57 -114q50 -42 122 -42q101 0 148 69
q41 60 41 175v57h-2q-67 -90 -180 -90q-98 0 -162 73q-62 69 -62 169q0 101 65 170.5t165 69.5q107 0 174 -90h2v80h45z" />
    <glyph glyph-name="h" unicode="h" horiz-adv-x="490" 
d="M77 825h45v-435h2q43 82 137 82q85 0 121 -52q31 -45 31 -141v-279h-45v279q0 75 -18 107q-24 44 -93 44q-135 0 -135 -202v-228h-45v825z" />
    <glyph glyph-name="i" unicode="i" horiz-adv-x="234" 
d="M139 462v-462h-45v462h45zM117 657q17 0 29 -12t12 -29t-12 -29t-29 -12t-29 12t-12 29t12 29t29 12z" />
    <glyph glyph-name="j" unicode="j" horiz-adv-x="234" 
d="M139 462v-732h-45v732h45zM117 657q17 0 29 -12t12 -29t-12 -29t-29 -12t-29 12t-12 29t12 29t29 12z" />
    <glyph glyph-name="k" unicode="k" horiz-adv-x="427" 
d="M122 825v-559l190 196h58l-194 -200l259 -262h-59l-229 231l-25 -26v-205h-45v825h45z" />
    <glyph glyph-name="l" unicode="l" horiz-adv-x="199" 
d="M122 825v-825h-45v825h45z" />
    <glyph glyph-name="m" unicode="m" horiz-adv-x="725" 
d="M122 462v-58h2q33 68 116 68q93 0 130 -84q38 84 135 84q82 0 116 -53q27 -42 27 -129v-290h-45v296q0 64 -16 94q-23 40 -83 40q-119 0 -119 -164v-266h-45v285q0 145 -103 145q-115 0 -115 -176v-254h-45v462h45z" />
    <glyph glyph-name="n" unicode="n" horiz-adv-x="490" 
d="M122 462v-72h2q43 82 137 82q85 0 121 -52q31 -45 31 -141v-279h-45v279q0 75 -18 107q-24 44 -93 44q-135 0 -135 -202v-228h-45v462h45z" />
    <glyph glyph-name="o" unicode="o" horiz-adv-x="547" 
d="M272 472q102 0 172.5 -69.5t70.5 -171.5t-70.5 -171.5t-172.5 -69.5q-99 0 -169.5 70.5t-70.5 169.5q0 100 70 171t170 71zM269 430q-81 0 -136.5 -59t-55.5 -141q0 -80 55.5 -139t136.5 -59q85 0 143 57t58 141q0 85 -57.5 142.5t-143.5 57.5z" />
    <glyph glyph-name="p" unicode="p" horiz-adv-x="560" 
d="M301 430q-85 0 -135 -63q-47 -58 -47 -146q0 -82 51 -135.5t133 -53.5q79 0 131 58q49 56 49 136q0 83 -50 143.5t-132 60.5zM122 462v-83h2q25 43 74 68t102 25q103 0 167 -72q61 -69 61 -173q0 -103 -62 -170t-164 -67q-120 0 -178 90h-2v-350h-45v732h45z" />
    <glyph glyph-name="q" unicode="q" horiz-adv-x="560" 
d="M259 430q-85 0 -135 -63q-47 -58 -47 -146q0 -82 51 -135.5t133 -53.5q79 0 131 58q49 56 49 136q0 83 -50 143.5t-132 60.5zM483 462v-732h-45v350h-2q-58 -90 -178 -90q-102 0 -165 68q-61 65 -61 168q0 105 62.5 175.5t165.5 70.5q53 0 102 -25t74 -68h2v83h45z" />
    <glyph glyph-name="r" unicode="r" horiz-adv-x="278" 
d="M122 462v-60h2q30 70 100 70q24 0 49 -11l-24 -40q-16 9 -32 9q-65 0 -85 -71q-10 -35 -10 -123v-236h-45v462h45z" />
    <glyph glyph-name="s" unicode="s" horiz-adv-x="375" 
d="M310 398l-39 -20q-24 52 -81 52q-30 0 -54.5 -21.5t-24.5 -50.5q0 -45 58 -70l109 -46q58 -37 58 -108q0 -63 -43 -103.5t-106 -40.5q-58 0 -101.5 33t-57.5 89l44 14q29 -94 115 -94q44 0 74 30.5t30 73.5q0 38 -28 61q-18 14 -62 30q-64 23 -91 43q-44 33 -44 85
q0 51 37 84t89 33q36 0 69.5 -21t48.5 -53z" />
    <glyph glyph-name="t" unicode="t" horiz-adv-x="209" 
d="M127 420v-420h-45v420h-51v42h51v165h45v-165h81v-42h-81z" />
    <glyph glyph-name="u" unicode="u" horiz-adv-x="472" 
d="M357 462h45v-277q0 -96 -28 -133q-47 -62 -138 -62t-138 62q-28 37 -28 133v277h45v-261q0 -82 19 -118q27 -51 102 -51t102 51q19 36 19 118v261z" />
    <glyph glyph-name="v" unicode="v" horiz-adv-x="433" 
d="M51 462l167 -381l164 381h46l-211 -487l-212 487h46z" />
    <glyph glyph-name="w" unicode="w" horiz-adv-x="752" 
d="M51 462l163 -379l163 404l164 -404l160 379h46l-209 -487l-163 399l-162 -399l-208 487h46z" />
    <glyph glyph-name="x" unicode="x" horiz-adv-x="443" 
d="M192 244l-172 218h54l147 -187l148 187h54l-172 -218l188 -244h-53l-165 212l-164 -212h-53z" />
    <glyph glyph-name="y" unicode="y" horiz-adv-x="460" 
d="M215 -8l-222 470h47l197 -418l177 418h46l-310 -732h-46z" />
    <glyph glyph-name="z" unicode="z" horiz-adv-x="480" 
d="M98 42h375v-42h-470l378 420h-317v42h411z" />
    <glyph glyph-name="braceleft" unicode="{" horiz-adv-x="300" 
d="M41 255v44q39 27 54 48q19 27 19 67v176q0 89 30.5 125.5t114.5 38.5v-46q-97 0 -97 -80v-186q0 -71 -18 -107q-15 -30 -55 -56v-5q39 -25 55 -57q18 -38 18 -111v-185q0 -80 97 -80v-44q-84 3 -114.5 39t-30.5 124v176q0 41 -19 69q-16 22 -54 50z" />
    <glyph glyph-name="bar" unicode="|" horiz-adv-x="320" 
d="M136 -214v1000h48v-1000h-48z" />
    <glyph glyph-name="braceright" unicode="}" horiz-adv-x="300" 
d="M259 299v-44q-38 -28 -54 -50q-19 -28 -19 -69v-176q0 -88 -30.5 -124t-114.5 -39v44q97 0 97 80v185q0 73 19 111q15 32 54 57v5q-40 26 -54 56q-19 36 -19 107v186q0 80 -97 80v46q84 -2 114.5 -38.5t30.5 -125.5v-176q0 -40 19 -67q15 -21 54 -48z" />
    <glyph glyph-name="asciitilde" unicode="~" 
d="M201 314q38 0 117 -36l57.5 -26.5t45.5 -13.5q53 0 97 80l48 -23q-69 -109 -146 -109q-37 0 -109.5 38t-109.5 38q-50 0 -100 -74l-47 23q43 53 60 68q41 35 87 35z" />
    <glyph glyph-name="Adieresis" unicode="&#xc4;" horiz-adv-x="641" 
d="M486 248h-331l-101 -248h-49l316 779l315 -779h-49zM468 293l-147 364l-148 -364h295zM227 931q17 0 28.5 -11.5t11.5 -28.5q0 -16 -11.5 -28t-28.5 -12q-16 0 -28 12t-12 28q0 17 12 28.5t28 11.5zM414 931q17 0 28.5 -11.5t11.5 -28.5q0 -16 -11.5 -28t-28.5 -12
q-16 0 -28 12t-12 28q0 17 12 28.5t28 11.5z" />
    <glyph glyph-name="Aring" unicode="&#xc5;" horiz-adv-x="641" 
d="M486 248h-331l-101 -248h-49l316 779l315 -779h-49zM468 293l-147 364l-148 -364h295zM321 971q36 0 61.5 -25.5t25.5 -61.5t-25.5 -61.5t-61.5 -25.5t-61.5 25.5t-25.5 61.5t25.5 61.5t61.5 25.5zM321 931q-19 0 -33 -13.5t-14 -33.5q0 -19 14 -33t33 -14q20 0 33.5 14
t13.5 33q0 20 -13.5 33.5t-33.5 13.5z" />
    <glyph glyph-name="Ccedilla" unicode="&#xc7;" horiz-adv-x="739" 
d="M680 666v-66q-44 53 -113.5 86t-139.5 33q-140 0 -241.5 -103.5t-101.5 -243.5q0 -135 101 -233q107 -104 242 -104q66 0 139 32.5t114 82.5v-66q-113 -94 -251 -94q-158 0 -275.5 114.5t-117.5 271.5q0 160 116.5 274t277.5 114q144 0 250 -98zM444 -42l-111 -141
l-38 19l93 144z" />
    <glyph glyph-name="Eacute" unicode="&#xc9;" horiz-adv-x="507" 
d="M441 709h-312v-274h304v-45h-304v-345h312v-45h-360v754h360v-45zM293 971l61 -19l-124 -145l-38 17z" />
    <glyph glyph-name="Ntilde" unicode="&#xd1;" horiz-adv-x="843" 
d="M762 754v-779l-633 673v-648h-48v764l633 -668v658h48zM307 843v0l-30 22q26 64 78 64q25 0 70.5 -19.5t62.5 -19.5q34 0 48 41l29 -22q-7 -27 -30 -46t-51 -19q-20 0 -65.5 20t-67.5 20q-30 0 -44 -41z" />
    <glyph glyph-name="Odieresis" unicode="&#xd6;" horiz-adv-x="854" 
d="M427 764q159 0 275 -114t116 -273t-116 -273t-275 -114t-275 114t-116 273t115.5 273t275.5 114zM427 719q-141 0 -242 -101t-101 -241t101 -241t242 -101q140 0 241.5 101.5t101.5 240.5q0 140 -101.5 241t-241.5 101zM334 931q17 0 28.5 -11.5t11.5 -28.5
q0 -16 -11.5 -28t-28.5 -12q-16 0 -28 12t-12 28q0 17 12 28.5t28 11.5zM521 931q17 0 28.5 -11.5t11.5 -28.5q0 -16 -11.5 -28t-28.5 -12q-16 0 -28 12t-12 28q0 17 12 28.5t28 11.5z" />
    <glyph glyph-name="Udieresis" unicode="&#xdc;" horiz-adv-x="660" 
d="M538 298v456h48v-470q0 -76 -6 -109q-10 -56 -45 -97q-74 -88 -205 -88t-205 88q-35 41 -45 97q-6 33 -6 109v470h48v-456q0 -69 5 -102q8 -55 34.5 -88.5t76.5 -53.5q46 -19 92 -19t92 19q50 20 76.5 53.5t34.5 88.5q5 33 5 102zM237 931q17 0 28.5 -11.5t11.5 -28.5
q0 -16 -11.5 -28t-28.5 -12q-16 0 -28 12t-12 28q0 17 12 28.5t28 11.5zM424 931q17 0 28.5 -11.5t11.5 -28.5q0 -16 -11.5 -28t-28.5 -12q-16 0 -28 12t-12 28q0 17 12 28.5t28 11.5z" />
    <glyph glyph-name="aacute" unicode="&#xe1;" horiz-adv-x="560" 
d="M256 430q-77 0 -128 -59t-51 -137q0 -83 49 -141q52 -61 133 -61q85 0 135 62q47 57 47 145q0 82 -51 136.5t-134 54.5zM483 462v-462h-45v83h-2q-25 -43 -74 -68t-102 -25q-103 0 -165.5 70t-62.5 174q0 103 62 170.5t164 67.5q117 0 178 -90h2v80h45zM315 714l61 -19
l-124 -145l-38 17z" />
    <glyph glyph-name="agrave" unicode="&#xe0;" horiz-adv-x="560" 
d="M256 430q-77 0 -128 -59t-51 -137q0 -83 49 -141q52 -61 133 -61q85 0 135 62q47 57 47 145q0 82 -51 136.5t-134 54.5zM483 462v-462h-45v83h-2q-25 -43 -74 -68t-102 -25q-103 0 -165.5 70t-62.5 174q0 103 62 170.5t164 67.5q117 0 178 -90h2v80h45zM184 695l61 19
l101 -147l-38 -17z" />
    <glyph glyph-name="acircumflex" unicode="&#xe2;" horiz-adv-x="560" 
d="M256 430q-77 0 -128 -59t-51 -137q0 -83 49 -141q52 -61 133 -61q85 0 135 62q47 57 47 145q0 82 -51 136.5t-134 54.5zM483 462v-462h-45v83h-2q-25 -43 -74 -68t-102 -25q-103 0 -165.5 70t-62.5 174q0 103 62 170.5t164 67.5q117 0 178 -90h2v80h45zM142 588l138 106
l138 -106l-38 -29l-100 77l-102 -77z" />
    <glyph glyph-name="adieresis" unicode="&#xe4;" horiz-adv-x="560" 
d="M256 430q-77 0 -128 -59t-51 -137q0 -83 49 -141q52 -61 133 -61q85 0 135 62q47 57 47 145q0 82 -51 136.5t-134 54.5zM483 462v-462h-45v83h-2q-25 -43 -74 -68t-102 -25q-103 0 -165.5 70t-62.5 174q0 103 62 170.5t164 67.5q117 0 178 -90h2v80h45zM187 674
q17 0 28.5 -11.5t11.5 -28.5q0 -16 -11.5 -28t-28.5 -12q-16 0 -28 12t-12 28q0 17 12 28.5t28 11.5zM374 674q17 0 28.5 -11.5t11.5 -28.5q0 -16 -11.5 -28t-28.5 -12q-16 0 -28 12t-12 28q0 17 12 28.5t28 11.5z" />
    <glyph glyph-name="atilde" unicode="&#xe3;" horiz-adv-x="560" 
d="M256 430q-77 0 -128 -59t-51 -137q0 -83 49 -141q52 -61 133 -61q85 0 135 62q47 57 47 145q0 82 -51 136.5t-134 54.5zM483 462v-462h-45v83h-2q-25 -43 -74 -68t-102 -25q-103 0 -165.5 70t-62.5 174q0 103 62 170.5t164 67.5q117 0 178 -90h2v80h45zM166 586v0l-30 22
q26 64 78 64q25 0 70.5 -19.5t62.5 -19.5q34 0 48 41l29 -22q-7 -27 -30 -46t-51 -19q-20 0 -65.5 20t-67.5 20q-30 0 -44 -41z" />
    <glyph glyph-name="aring" unicode="&#xe5;" horiz-adv-x="560" 
d="M256 430q-77 0 -128 -59t-51 -137q0 -83 49 -141q52 -61 133 -61q85 0 135 62q47 57 47 145q0 82 -51 136.5t-134 54.5zM483 462v-462h-45v83h-2q-25 -43 -74 -68t-102 -25q-103 0 -165.5 70t-62.5 174q0 103 62 170.5t164 67.5q117 0 178 -90h2v80h45zM280 714
q36 0 61.5 -25.5t25.5 -61.5t-25.5 -61.5t-61.5 -25.5t-61.5 25.5t-25.5 61.5t25.5 61.5t61.5 25.5zM280 674q-19 0 -33 -13.5t-14 -33.5q0 -19 14 -33t33 -14q20 0 33.5 14t13.5 33q0 20 -13.5 33.5t-33.5 13.5z" />
    <glyph glyph-name="ccedilla" unicode="&#xe7;" horiz-adv-x="477" 
d="M431 415v-60q-69 75 -163 75q-80 0 -135.5 -59t-55.5 -139t55 -140t135 -60q102 0 170 83v-61q-73 -64 -168 -64q-102 0 -169.5 70t-67.5 172q0 101 68.5 170.5t169.5 69.5q94 0 161 -57zM313 -42l-111 -141l-38 19l93 144z" />
    <glyph glyph-name="eacute" unicode="&#xe9;" horiz-adv-x="510" 
d="M478 227h-401q-2 -87 51 -141t134 -54q107 0 163 105l38 -22q-66 -125 -207 -125q-100 0 -163 72q-61 69 -61 170q0 100 61 168q64 72 163 72q102 0 164 -73q59 -69 58 -172zM77 269h356q-9 66 -56 112q-51 49 -120 49q-70 0 -122 -47.5t-58 -113.5zM290 714l61 -19
l-124 -145l-38 17z" />
    <glyph glyph-name="egrave" unicode="&#xe8;" horiz-adv-x="510" 
d="M478 227h-401q-2 -87 51 -141t134 -54q107 0 163 105l38 -22q-66 -125 -207 -125q-100 0 -163 72q-61 69 -61 170q0 100 61 168q64 72 163 72q102 0 164 -73q59 -69 58 -172zM77 269h356q-9 66 -56 112q-51 49 -120 49q-70 0 -122 -47.5t-58 -113.5zM159 695l61 19
l101 -147l-38 -17z" />
    <glyph glyph-name="ecircumflex" unicode="&#xea;" horiz-adv-x="510" 
d="M478 227h-401q-2 -87 51 -141t134 -54q107 0 163 105l38 -22q-66 -125 -207 -125q-100 0 -163 72q-61 69 -61 170q0 100 61 168q64 72 163 72q102 0 164 -73q59 -69 58 -172zM77 269h356q-9 66 -56 112q-51 49 -120 49q-70 0 -122 -47.5t-58 -113.5zM117 588l138 106
l138 -106l-38 -29l-100 77l-102 -77z" />
    <glyph glyph-name="edieresis" unicode="&#xeb;" horiz-adv-x="510" 
d="M478 227h-401q-2 -87 51 -141t134 -54q107 0 163 105l38 -22q-66 -125 -207 -125q-100 0 -163 72q-61 69 -61 170q0 100 61 168q64 72 163 72q102 0 164 -73q59 -69 58 -172zM77 269h356q-9 66 -56 112q-51 49 -120 49q-70 0 -122 -47.5t-58 -113.5zM162 674
q17 0 28.5 -11.5t11.5 -28.5q0 -16 -11.5 -28t-28.5 -12q-16 0 -28 12t-12 28q0 17 12 28.5t28 11.5zM349 674q17 0 28.5 -11.5t11.5 -28.5q0 -16 -11.5 -28t-28.5 -12q-16 0 -28 12t-12 28q0 17 12 28.5t28 11.5z" />
    <glyph glyph-name="iacute" unicode="&#xed;" horiz-adv-x="234" 
d="M139 462v-462h-45v462h45zM152 714l61 -19l-124 -145l-38 17z" />
    <glyph glyph-name="igrave" unicode="&#xec;" horiz-adv-x="234" 
d="M139 462v-462h-45v462h45zM21 695l61 19l101 -147l-38 -17z" />
    <glyph glyph-name="icircumflex" unicode="&#xee;" horiz-adv-x="234" 
d="M139 462v-462h-45v462h45zM-21 588l138 106l138 -106l-38 -29l-100 77l-102 -77z" />
    <glyph glyph-name="idieresis" unicode="&#xef;" horiz-adv-x="234" 
d="M139 462v-462h-45v462h45zM24 674q17 0 28.5 -11.5t11.5 -28.5q0 -16 -11.5 -28t-28.5 -12q-16 0 -28 12t-12 28q0 17 12 28.5t28 11.5zM211 674q17 0 28.5 -11.5t11.5 -28.5q0 -16 -11.5 -28t-28.5 -12q-16 0 -28 12t-12 28q0 17 12 28.5t28 11.5z" />
    <glyph glyph-name="ntilde" unicode="&#xf1;" horiz-adv-x="490" 
d="M122 462v-72h2q43 82 137 82q85 0 121 -52q31 -45 31 -141v-279h-45v279q0 75 -18 107q-24 44 -93 44q-135 0 -135 -202v-228h-45v462h45zM131 586v0l-30 22q26 64 78 64q25 0 70.5 -19.5t62.5 -19.5q34 0 48 41l29 -22q-7 -27 -30 -46t-51 -19q-20 0 -65.5 20t-67.5 20
q-30 0 -44 -41z" />
    <glyph glyph-name="oacute" unicode="&#xf3;" horiz-adv-x="547" 
d="M272 472q102 0 172.5 -69.5t70.5 -171.5t-70.5 -171.5t-172.5 -69.5q-99 0 -169.5 70.5t-70.5 169.5q0 100 70 171t170 71zM269 430q-81 0 -136.5 -59t-55.5 -141q0 -80 55.5 -139t136.5 -59q85 0 143 57t58 141q0 85 -57.5 142.5t-143.5 57.5zM308 714l61 -19l-124 -145
l-38 17z" />
    <glyph glyph-name="ograve" unicode="&#xf2;" horiz-adv-x="547" 
d="M272 472q102 0 172.5 -69.5t70.5 -171.5t-70.5 -171.5t-172.5 -69.5q-99 0 -169.5 70.5t-70.5 169.5q0 100 70 171t170 71zM269 430q-81 0 -136.5 -59t-55.5 -141q0 -80 55.5 -139t136.5 -59q85 0 143 57t58 141q0 85 -57.5 142.5t-143.5 57.5zM177 695l61 19l101 -147
l-38 -17z" />
    <glyph glyph-name="ocircumflex" unicode="&#xf4;" horiz-adv-x="547" 
d="M272 472q102 0 172.5 -69.5t70.5 -171.5t-70.5 -171.5t-172.5 -69.5q-99 0 -169.5 70.5t-70.5 169.5q0 100 70 171t170 71zM269 430q-81 0 -136.5 -59t-55.5 -141q0 -80 55.5 -139t136.5 -59q85 0 143 57t58 141q0 85 -57.5 142.5t-143.5 57.5zM136 588l138 106l138 -106
l-38 -29l-100 77l-102 -77z" />
    <glyph glyph-name="odieresis" unicode="&#xf6;" horiz-adv-x="547" 
d="M272 472q102 0 172.5 -69.5t70.5 -171.5t-70.5 -171.5t-172.5 -69.5q-99 0 -169.5 70.5t-70.5 169.5q0 100 70 171t170 71zM269 430q-81 0 -136.5 -59t-55.5 -141q0 -80 55.5 -139t136.5 -59q85 0 143 57t58 141q0 85 -57.5 142.5t-143.5 57.5zM180 674q17 0 28.5 -11.5
t11.5 -28.5q0 -16 -11.5 -28t-28.5 -12q-16 0 -28 12t-12 28q0 17 12 28.5t28 11.5zM367 674q17 0 28.5 -11.5t11.5 -28.5q0 -16 -11.5 -28t-28.5 -12q-16 0 -28 12t-12 28q0 17 12 28.5t28 11.5z" />
    <glyph glyph-name="otilde" unicode="&#xf5;" horiz-adv-x="547" 
d="M272 472q102 0 172.5 -69.5t70.5 -171.5t-70.5 -171.5t-172.5 -69.5q-99 0 -169.5 70.5t-70.5 169.5q0 100 70 171t170 71zM269 430q-81 0 -136.5 -59t-55.5 -141q0 -80 55.5 -139t136.5 -59q85 0 143 57t58 141q0 85 -57.5 142.5t-143.5 57.5zM159 586v0l-30 22
q26 64 78 64q25 0 70.5 -19.5t62.5 -19.5q34 0 48 41l29 -22q-7 -27 -30 -46t-51 -19q-20 0 -65.5 20t-67.5 20q-30 0 -44 -41z" />
    <glyph glyph-name="uacute" unicode="&#xfa;" horiz-adv-x="472" 
d="M357 462h45v-277q0 -96 -28 -133q-47 -62 -138 -62t-138 62q-28 37 -28 133v277h45v-261q0 -82 19 -118q27 -51 102 -51t102 51q19 36 19 118v261zM281 714l61 -19l-124 -145l-38 17z" />
    <glyph glyph-name="ugrave" unicode="&#xf9;" horiz-adv-x="472" 
d="M357 462h45v-277q0 -96 -28 -133q-47 -62 -138 -62t-138 62q-28 37 -28 133v277h45v-261q0 -82 19 -118q27 -51 102 -51t102 51q19 36 19 118v261zM130 695l61 19l101 -147l-38 -17z" />
    <glyph glyph-name="ucircumflex" unicode="&#xfb;" horiz-adv-x="472" 
d="M357 462h45v-277q0 -96 -28 -133q-47 -62 -138 -62t-138 62q-28 37 -28 133v277h45v-261q0 -82 19 -118q27 -51 102 -51t102 51q19 36 19 118v261zM98 588l138 106l138 -106l-38 -29l-100 77l-102 -77z" />
    <glyph glyph-name="udieresis" unicode="&#xfc;" horiz-adv-x="472" 
d="M357 462h45v-277q0 -96 -28 -133q-47 -62 -138 -62t-138 62q-28 37 -28 133v277h45v-261q0 -82 19 -118q27 -51 102 -51t102 51q19 36 19 118v261zM143 674q17 0 28.5 -11.5t11.5 -28.5q0 -16 -11.5 -28t-28.5 -12q-16 0 -28 12t-12 28q0 17 12 28.5t28 11.5zM330 674
q17 0 28.5 -11.5t11.5 -28.5q0 -16 -11.5 -28t-28.5 -12q-16 0 -28 12t-12 28q0 17 12 28.5t28 11.5z" />
    <glyph glyph-name="dagger" unicode="&#x2020;" 
d="M286 754h48v-199h181v-45h-181v-688h-48v688h-181v45h181v199z" />
    <glyph glyph-name="degree" unicode="&#xb0;" horiz-adv-x="400" 
d="M350 614q0 -62 -44 -106t-106 -44t-106 44t-44 106t44 106t106 44t106 -44t44 -106zM199 722q-45 0 -76 -31.5t-31 -76.5q0 -46 31 -77t77 -31q45 0 76.5 31t31.5 77q0 45 -31.5 76.5t-77.5 31.5z" />
    <glyph glyph-name="cent" unicode="&#xa2;" 
d="M506 568v-60q-63 70 -145 76v-399q90 8 149 83h2v-61q-70 -60 -151 -64v-128h-45v129q-89 9 -149 77t-60 158q0 96 58 166t151 80v117h45v-116q80 -3 145 -58zM316 186v396q-71 -10 -117.5 -67.5t-46.5 -130.5t46.5 -130.5t117.5 -67.5z" />
    <glyph glyph-name="sterling" unicode="&#xa3;" 
d="M91 -10l-27 39q58 67 134 65q64 55 64 119l-3 29h-124v45h112l-81 138q-29 50 -38 72q-16 38 -16 78q0 81 60 135t141 54q83 0 138.5 -58.5t53.5 -140.5h-48q1 67 -41 110.5t-109 43.5q-60 0 -103.5 -44.5t-43.5 -104.5q0 -43 46 -117q44 -70 50 -81q27 -47 43 -85h136
v-45h-127l2 -33q4 -65 -57 -126l10 -3l74 -27q51 -18 72 -18q63 0 106 82l41 -24q-57 -103 -141 -103q-38 0 -110.5 29.5t-104.5 29.5q-50 0 -109 -59z" />
    <glyph glyph-name="section" unicode="&#xa7;" 
d="M310 155q54 0 94 39t40 93t-40 94t-94 40q-55 0 -95 -40t-40 -94t40 -93t95 -39zM144 -11h48v-13q0 -124 117 -124q57 0 93 31t36 86q0 57 -47 90q-27 19 -99 43q-81 27 -117 61q-48 44 -48 121q0 125 113 172q-96 47 -96 150q0 75 51 118q48 40 124 40q89 0 127 -48
q33 -40 40 -133h-48q-2 136 -124 136q-54 0 -88 -32.5t-34 -86.5q0 -74 78 -108l144 -57q78 -46 78 -151q0 -111 -113 -167q107 -41 107 -155q0 -76 -52 -117q-48 -38 -126 -38q-88 0 -127 44q-37 41 -37 128v10z" />
    <glyph glyph-name="bullet" unicode="&#x2022;" 
d="M311 566q80 0 134 -55t54 -134q0 -78 -54 -133t-134 -55t-134.5 55t-54.5 133q0 79 54.5 134t134.5 55z" />
    <glyph glyph-name="paragraph" unicode="&#xb6;" 
d="M282 -178v548q-75 -1 -123.5 55t-48.5 135q0 194 203 194h197v-45h-40v-887h-48v887h-92v-887h-48z" />
    <glyph glyph-name="germandbls" unicode="&#xdf;" horiz-adv-x="534" 
d="M77 0v420h-49v42h49v188q0 89 34 131q46 57 133 57q69 0 114 -46.5t45 -115.5q0 -46 -23.5 -83.5t-64.5 -52.5v-2q83 -23 135 -97.5t52 -162.5q0 -112 -79.5 -192.5t-191.5 -91.5v42q95 14 160.5 81t65.5 161q0 98 -63.5 162t-162.5 74v42q57 1 92 35t35 90
q0 51 -34.5 83t-86.5 32q-68 0 -96 -48q-19 -33 -19 -114v-634h-45z" />
    <glyph glyph-name="registered" unicode="&#xae;" horiz-adv-x="800" 
d="M401 -10q-160 0 -274 114t-114 274t113.5 273t274.5 113q160 0 273 -113t113 -273q0 -161 -113 -274.5t-273 -113.5zM401 38q141 0 239.5 99t98.5 241q0 141 -98.5 239.5t-239.5 98.5q-142 0 -241 -98.5t-99 -239.5q0 -142 99 -241t241 -99zM462 353l128 -195h-62
l-121 195h-99v-195h-48v423h185q150 0 150 -112t-133 -116zM308 401h83q80 0 101 5q55 13 55 64q0 63 -114 63h-125v-132z" />
    <glyph glyph-name="copyright" unicode="&#xa9;" horiz-adv-x="800" 
d="M401 -10q-160 0 -274 114t-114 274t113.5 273t274.5 113q160 0 273 -113t113 -273q0 -161 -113 -274.5t-273 -113.5zM401 38q141 0 239.5 99t98.5 241q0 141 -98.5 239.5t-239.5 98.5q-142 0 -241 -98.5t-99 -239.5q0 -142 99 -241t241 -99zM549 308h48
q-7 -68 -58.5 -109t-120.5 -41q-95 0 -154.5 63.5t-59.5 159.5q0 98 57 160t154 62q71 0 121.5 -39t60.5 -107h-48q-8 44 -46.5 71t-86.5 27q-75 0 -119.5 -49.5t-44.5 -123.5q0 -72 46.5 -124t119.5 -52q48 0 86.5 27.5t44.5 74.5z" />
    <glyph glyph-name="trademark" unicode="&#x2122;" horiz-adv-x="940" 
d="M378 754v-42h-139v-379h-42v379h-139v42h320zM461 754h72l137 -327h2l139 327h72v-421h-42v379h-4l-165 -379h-2l-163 379h-4v-379h-42v421z" />
    <glyph glyph-name="acute" unicode="&#xb4;" horiz-adv-x="313" 
d="M176 714l61 -19l-124 -145l-38 17z" />
    <glyph glyph-name="dieresis" unicode="&#xa8;" horiz-adv-x="421" 
d="M117 674q17 0 28.5 -11.5t11.5 -28.5q0 -16 -11.5 -28t-28.5 -12q-16 0 -28 12t-12 28q0 17 12 28.5t28 11.5zM304 674q17 0 28.5 -11.5t11.5 -28.5q0 -16 -11.5 -28t-28.5 -12q-16 0 -28 12t-12 28q0 17 12 28.5t28 11.5z" />
    <glyph glyph-name="AE" unicode="&#xc6;" horiz-adv-x="942" 
d="M480 248h-323l-98 -248h-54l304 754h329l17 -45h-311l112 -274h303l19 -45h-303l140 -345h312l18 -45h-365zM461 293l-144 355l-141 -355h285z" />
    <glyph glyph-name="Oslash" unicode="&#xd8;" horiz-adv-x="854" 
d="M171 151l481 481q-97 87 -225 87q-141 0 -242 -101t-101 -241q0 -129 87 -226zM680 605l-481 -482q99 -88 228 -88q140 0 241.5 101.5t101.5 240.5q0 132 -90 228zM49 29l90 90q-103 111 -103 258q0 159 115.5 273t275.5 114q146 0 258 -99l91 91l29 -26l-92 -92
q105 -111 105 -261q0 -159 -116 -273t-275 -114q-151 0 -260 101l-91 -91z" />
    <glyph glyph-name="plusminus" unicode="&#xb1;" 
d="M286 320v192h48v-192h232v-48h-232v-192h-48v192h-232v48h232zM54 0v48h512v-48h-512z" />
    <glyph glyph-name="yen" unicode="&#xa5;" 
d="M286 322l-43 75h-161v45h134l-181 312h58l217 -377l217 377h58l-181 -312h134v-45h-160l-44 -75h204v-45h-204v-277h-48v277h-204v45h204z" />
    <glyph glyph-name="mu" unicode="&#xb5;" horiz-adv-x="472" 
d="M115 -270h-45v732h45v-228q0 -202 121 -202q75 0 102 51q19 36 19 118v261h45v-277q0 -96 -28 -133q-47 -62 -138 -62q-34 0 -68 21q-38 23 -51 61h-2v-342z" />
    <glyph glyph-name="mu" unicode="&#x3bc;" horiz-adv-x="472" 
d="M115 -270h-45v732h45v-228q0 -202 121 -202q75 0 102 51q19 36 19 118v261h45v-277q0 -96 -28 -133q-47 -62 -138 -62q-34 0 -68 21q-38 23 -51 61h-2v-342z" />
    <glyph glyph-name="ordfeminine" unicode="&#xaa;" horiz-adv-x="336" 
d="M163 730q-46 0 -76.5 -33t-30.5 -77q0 -45 30 -78t79 -33q53 0 84.5 33t31.5 81q0 45 -33.5 76t-84.5 31zM315 758v-277h-29v50h-2q-34 -56 -114 -56q-67 0 -107.5 42t-40.5 104t40 102.5t107 40.5q76 0 115 -54h2v48h29z" />
    <glyph glyph-name="ordmasculine" unicode="&#xba;" horiz-adv-x="328" 
d="M163 764q66 0 112 -41.5t46 -102.5q0 -62 -46 -103.5t-112 -41.5q-64 0 -110 42.5t-46 101.5q0 60 45.5 102.5t110.5 42.5zM161 730q-48 0 -81.5 -33.5t-33.5 -78.5q0 -44 33.5 -76.5t81.5 -32.5q50 0 85.5 31.5t35.5 77.5q0 47 -35 79.5t-86 32.5z" />
    <glyph glyph-name="ae" unicode="&#xe6;" horiz-adv-x="849" 
d="M416 268h356q-8 65 -59 113.5t-117 48.5q-70 0 -122 -48t-58 -114zM222 237q-61 0 -102 -21q-54 -27 -54 -81q0 -56 50 -82q40 -21 101 -21q56 0 100 23q54 29 54 80q0 53 -50 80q-40 22 -99 22zM763 136l39 -26q-77 -120 -206 -120q-60 0 -113 30.5t-76 83.5h-2
q-15 -57 -75 -88q-51 -26 -117 -26q-74 0 -128 34q-64 40 -64 110q0 72 68 112q56 33 133 33q92 0 149 -49q1 88 -36 140q-43 60 -128 60q-66 0 -155 -42v46q75 38 164 38q135 0 181 -128q25 57 79 92.5t117 35.5q101 0 164 -74q59 -69 60 -172h-401q2 -81 51 -136
q52 -58 131 -58q106 0 165 104z" />
    <glyph glyph-name="oslash" unicode="&#xf8;" horiz-adv-x="547" 
d="M119 108l278 278q-55 44 -128 44q-81 0 -136.5 -59t-55.5 -141q0 -69 42 -122zM425 357l-280 -277q53 -48 124 -48q85 0 143 57t58 141q0 74 -45 127zM28 17l60 60q-56 65 -56 153q0 100 70 171t170 71q90 0 156 -55l63 63l28 -29l-62 -62q58 -64 58 -158
q0 -102 -70.5 -171.5t-172.5 -69.5q-91 0 -157 60l-60 -60z" />
    <glyph glyph-name="questiondown" unicode="&#xbf;" horiz-adv-x="491" 
d="M137 159h-48q-3 69 41 115t115 46q66 0 112 -42.5t46 -106.5q0 -116 -143 -153q-78 -20 -104 -40q-42 -31 -42 -98q0 -57 37.5 -97t95.5 -40q56 0 93.5 36.5t36.5 90.5q0 33 -5 53h46q7 -37 7 -64q0 -70 -53 -115.5t-126 -45.5q-80 0 -130 50.5t-50 129.5t46 122
q37 36 120 57q62 16 85 32q38 26 38 79q0 47 -31.5 77t-80.5 30t-78 -34.5t-28 -81.5zM248 472q17 0 29 -12t12 -29t-12 -29t-29 -12t-29 12t-12 29t12 29t29 12z" />
    <glyph glyph-name="exclamdown" unicode="&#xa1;" horiz-adv-x="320" 
d="M160 472q17 0 29 -12t12 -29t-12 -29t-29 -12t-29 12t-12 29t12 29t29 12zM184 321v-611h-48v611h48z" />
    <glyph glyph-name="logicalnot" unicode="&#xac;" 
d="M518 99v218h-464v48h512v-266h-48z" />
    <glyph glyph-name="florin" unicode="&#x192;" 
d="M369 486h116l-9 -45h-115l-72 -380q-19 -103 -34 -132q-32 -69 -105 -69q-36 0 -80 17l9 42q36 -14 67 -14q44 0 60 26.5t30 98.5l79 411h-69l9 45h68l40 214q12 67 29 92q30 46 94 46q32 0 65 -15l-9 -41q-25 11 -52 11q-50 0 -69 -41q-6 -15 -19 -85z" />
    <glyph glyph-name="guillemotleft" unicode="&#xab;" horiz-adv-x="397" 
d="M209 320l121 -142l-29 -27l-146 169l146 169l29 -27zM89 320l121 -142l-29 -27l-146 169l146 169l29 -27z" />
    <glyph glyph-name="guillemotright" unicode="&#xbb;" horiz-adv-x="397" 
d="M67 178l121 142l-121 142l29 27l146 -169l-146 -169zM187 178l121 142l-121 142l29 27l146 -169l-146 -169z" />
    <glyph glyph-name="ellipsis" unicode="&#x2026;" horiz-adv-x="1000" 
d="M167 75q17 0 29 -12t12 -29t-12 -29t-29 -12t-29 12t-12 29t12 29t29 12zM500 75q17 0 29 -12t12 -29t-12 -29t-29 -12t-29 12t-12 29t12 29t29 12zM833 75q17 0 29 -12t12 -29t-12 -29t-29 -12t-29 12t-12 29t12 29t29 12z" />
    <glyph glyph-name="Agrave" unicode="&#xc0;" horiz-adv-x="641" 
d="M486 248h-331l-101 -248h-49l316 779l315 -779h-49zM468 293l-147 364l-148 -364h295zM239 952l61 19l101 -147l-38 -17z" />
    <glyph glyph-name="Atilde" unicode="&#xc3;" horiz-adv-x="641" 
d="M486 248h-331l-101 -248h-49l316 779l315 -779h-49zM468 293l-147 364l-148 -364h295zM206 843v0l-30 22q26 64 78 64q25 0 70.5 -19.5t62.5 -19.5q34 0 48 41l29 -22q-7 -27 -30 -46t-51 -19q-20 0 -65.5 20t-67.5 20q-30 0 -44 -41z" />
    <glyph glyph-name="Otilde" unicode="&#xd5;" horiz-adv-x="854" 
d="M427 764q159 0 275 -114t116 -273t-116 -273t-275 -114t-275 114t-116 273t115.5 273t275.5 114zM427 719q-141 0 -242 -101t-101 -241t101 -241t242 -101q140 0 241.5 101.5t101.5 240.5q0 140 -101.5 241t-241.5 101zM313 843v0l-30 22q26 64 78 64q25 0 70.5 -19.5
t62.5 -19.5q34 0 48 41l29 -22q-7 -27 -30 -46t-51 -19q-20 0 -65.5 20t-67.5 20q-30 0 -44 -41z" />
    <glyph glyph-name="OE" unicode="&#x152;" horiz-adv-x="1193" 
d="M767 0v194h-2q-45 -94 -138.5 -149t-200.5 -55q-155 0 -270 109q-120 114 -120 278q0 160 116.5 273.5t277.5 113.5q105 0 197 -56.5t138 -149.5h2v196h360v-45h-312v-274h305v-45h-305v-345h312v-45h-360zM429 719q-139 0 -242 -101.5t-103 -240.5q0 -143 105 -244
q102 -98 238 -98q144 0 246 106q93 97 93 236q0 140 -99 241t-238 101z" />
    <glyph glyph-name="oe" unicode="&#x153;" horiz-adv-x="945" 
d="M913 227h-399q-5 -80 49 -137.5t133 -57.5q112 0 163 107l38 -23q-62 -126 -205 -126q-66 0 -121.5 37.5t-79.5 98.5q-29 -61 -88.5 -98.5t-127.5 -37.5q-102 0 -172.5 69.5t-70.5 170.5q0 102 71.5 172t173.5 70q68 0 127.5 -36.5t86.5 -97.5q24 63 78 98.5t122 35.5
q104 0 165 -72q58 -68 57 -173zM514 269h354q-9 66 -56 112q-51 49 -120 49q-70 0 -121 -47.5t-57 -113.5zM276 430q-86 0 -142.5 -58.5t-56.5 -144.5q0 -78 57.5 -136.5t136.5 -58.5q83 0 140.5 58t57.5 140q0 81 -56 140.5t-137 59.5z" />
    <glyph glyph-name="endash" unicode="&#x2013;" horiz-adv-x="500" 
d="M0 342h500v-45h-500v45z" />
    <glyph glyph-name="emdash" unicode="&#x2014;" horiz-adv-x="1000" 
d="M130 342h740v-45h-740v45z" />
    <glyph glyph-name="quotedblleft" unicode="&#x201c;" horiz-adv-x="390" 
d="M249 524l-45 13l83 227l30 -11zM118 524l-45 13l83 227l30 -11z" />
    <glyph glyph-name="quotedblright" unicode="&#x201d;" horiz-adv-x="390" 
d="M141 764l45 -13l-83 -227l-30 11zM272 764l45 -13l-83 -227l-30 11z" />
    <glyph glyph-name="quoteleft" unicode="&#x2018;" horiz-adv-x="259" 
d="M118 524l-45 13l83 227l30 -11z" />
    <glyph glyph-name="quoteright" unicode="&#x2019;" horiz-adv-x="259" 
d="M141 764l45 -13l-83 -227l-30 11z" />
    <glyph glyph-name="divide" unicode="&#xf7;" 
d="M54 232v48h512v-48h-512zM310 82q17 0 29 -12t12 -29t-12 -29t-29 -12t-29 12t-12 29t12 29t29 12zM310 512q17 0 29 -12t12 -29t-12 -29t-29 -12t-29 12t-12 29t12 29t29 12z" />
    <glyph glyph-name="ydieresis" unicode="&#xff;" horiz-adv-x="460" 
d="M215 -8l-222 470h47l197 -418l177 418h46l-310 -732h-46zM142 674q17 0 28.5 -11.5t11.5 -28.5q0 -16 -11.5 -28t-28.5 -12q-16 0 -28 12t-12 28q0 17 12 28.5t28 11.5zM329 674q17 0 28.5 -11.5t11.5 -28.5q0 -16 -11.5 -28t-28.5 -12q-16 0 -28 12t-12 28q0 17 12 28.5
t28 11.5z" />
    <glyph glyph-name="Ydieresis" unicode="&#x178;" horiz-adv-x="559" 
d="M255 322l-251 432h53l222 -382l222 382h53l-251 -432v-322h-48v322zM198 931q17 0 28.5 -11.5t11.5 -28.5q0 -16 -11.5 -28t-28.5 -12q-16 0 -28 12t-12 28q0 17 12 28.5t28 11.5zM385 931q17 0 28.5 -11.5t11.5 -28.5q0 -16 -11.5 -28t-28.5 -12q-16 0 -28 12t-12 28
q0 17 12 28.5t28 11.5z" />
    <glyph glyph-name="currency" unicode="&#xa4;" 
d="M68 498l36 36l42 -42q80 58 164 58t164 -58l42 42l36 -36l-40 -40q53 -82 53 -158t-53 -158l40 -40l-36 -36l-42 42q-80 -58 -164 -58t-164 58l-42 -42l-36 36l40 40q-53 82 -53 158t53 158zM310 502q-88 0 -148.5 -58t-58.5 -144q1 -82 62 -142t145 -60t145 60t62 142
q2 86 -58.5 144t-148.5 58z" />
    <glyph glyph-name="guilsinglleft" unicode="&#x2039;" horiz-adv-x="277" 
d="M89 320l121 -142l-29 -27l-146 169l146 169l29 -27z" />
    <glyph glyph-name="guilsinglright" unicode="&#x203a;" horiz-adv-x="277" 
d="M67 178l121 142l-121 142l29 27l146 -169l-146 -169z" />
    <glyph glyph-name="daggerdbl" unicode="&#x2021;" 
d="M286 754h48v-199h181v-45h-181v-428h181v-45h-181v-215h-48v215h-181v45h181v428h-181v45h181v199z" />
    <glyph glyph-name="periodcentered" unicode="&#xb7;" horiz-adv-x="310" 
d="M155 297q17 0 29 -12t12 -29t-12 -29t-29 -12t-29 12t-12 29t12 29t29 12z" />
    <glyph glyph-name="periodcentered" unicode="&#x2219;" horiz-adv-x="310" 
d="M155 297q17 0 29 -12t12 -29t-12 -29t-29 -12t-29 12t-12 29t12 29t29 12z" />
    <glyph glyph-name="quotesinglbase" unicode="&#x201a;" horiz-adv-x="259" 
d="M141 74l45 -14l-83 -226l-30 11z" />
    <glyph glyph-name="quotedblbase" unicode="&#x201e;" horiz-adv-x="390" 
d="M141 74l45 -14l-83 -226l-30 11zM272 74l45 -14l-83 -226l-30 11z" />
    <glyph glyph-name="perthousand" unicode="&#x2030;" horiz-adv-x="1034" 
d="M854 289q64 0 108 -42t44 -107q0 -63 -44 -105t-108 -42t-108 42t-44 105q0 65 44 107t108 42zM854 247q-45 0 -77.5 -31t-32.5 -76q0 -43 32.5 -74t77.5 -31t77.5 31t32.5 74q0 45 -32.5 76t-77.5 31zM180 761q64 0 108 -42t44 -107q0 -63 -44 -105t-108 -42t-108 42
t-44 105q0 65 44 107t108 42zM180 719q-45 0 -77.5 -31t-32.5 -76q0 -43 32.5 -74t77.5 -31t77.5 31t32.5 74q0 45 -32.5 76t-77.5 31zM538 771l33 -17l-448 -771l-31 18zM484 289q64 0 108 -42t44 -107q0 -63 -44 -105t-108 -42t-108 42t-44 105q0 65 44 107t108 42z
M484 247q-45 0 -77.5 -31t-32.5 -76q0 -43 32.5 -74t77.5 -31t77.5 31t32.5 74q0 45 -32.5 76t-77.5 31z" />
    <glyph glyph-name="Acircumflex" unicode="&#xc2;" horiz-adv-x="641" 
d="M486 248h-331l-101 -248h-49l316 779l315 -779h-49zM468 293l-147 364l-148 -364h295zM183 845l138 106l138 -106l-38 -29l-100 77l-102 -77z" />
    <glyph glyph-name="Ecircumflex" unicode="&#xca;" horiz-adv-x="507" 
d="M441 709h-312v-274h304v-45h-304v-345h312v-45h-360v754h360v-45zM116 845l138 106l138 -106l-38 -29l-100 77l-102 -77z" />
    <glyph glyph-name="Aacute" unicode="&#xc1;" horiz-adv-x="641" 
d="M486 248h-331l-101 -248h-49l316 779l315 -779h-49zM468 293l-147 364l-148 -364h295zM340 971l61 -19l-124 -145l-38 17z" />
    <glyph glyph-name="Edieresis" unicode="&#xcb;" horiz-adv-x="507" 
d="M441 709h-312v-274h304v-45h-304v-345h312v-45h-360v754h360v-45zM160 931q17 0 28.5 -11.5t11.5 -28.5q0 -16 -11.5 -28t-28.5 -12q-16 0 -28 12t-12 28q0 17 12 28.5t28 11.5zM347 931q17 0 28.5 -11.5t11.5 -28.5q0 -16 -11.5 -28t-28.5 -12q-16 0 -28 12t-12 28
q0 17 12 28.5t28 11.5z" />
    <glyph glyph-name="Egrave" unicode="&#xc8;" horiz-adv-x="507" 
d="M441 709h-312v-274h304v-45h-304v-345h312v-45h-360v754h360v-45zM172 952l61 19l101 -147l-38 -17z" />
    <glyph glyph-name="Iacute" unicode="&#xcd;" horiz-adv-x="210" 
d="M129 754v-754h-48v754h48zM125 971l61 -19l-124 -145l-38 17z" />
    <glyph glyph-name="Icircumflex" unicode="&#xce;" horiz-adv-x="210" 
d="M129 754v-754h-48v754h48zM-33 845l138 106l138 -106l-38 -29l-100 77l-102 -77z" />
    <glyph glyph-name="Idieresis" unicode="&#xcf;" horiz-adv-x="210" 
d="M129 754v-754h-48v754h48zM12 931q17 0 28.5 -11.5t11.5 -28.5q0 -16 -11.5 -28t-28.5 -12q-16 0 -28 12t-12 28q0 17 12 28.5t28 11.5zM199 931q17 0 28.5 -11.5t11.5 -28.5q0 -16 -11.5 -28t-28.5 -12q-16 0 -28 12t-12 28q0 17 12 28.5t28 11.5z" />
    <glyph glyph-name="Igrave" unicode="&#xcc;" horiz-adv-x="210" 
d="M129 754v-754h-48v754h48zM24 952l61 19l101 -147l-38 -17z" />
    <glyph glyph-name="Oacute" unicode="&#xd3;" horiz-adv-x="854" 
d="M427 764q159 0 275 -114t116 -273t-116 -273t-275 -114t-275 114t-116 273t115.5 273t275.5 114zM427 719q-141 0 -242 -101t-101 -241t101 -241t242 -101q140 0 241.5 101.5t101.5 240.5q0 140 -101.5 241t-241.5 101zM447 971l61 -19l-124 -145l-38 17z" />
    <glyph glyph-name="Ocircumflex" unicode="&#xd4;" horiz-adv-x="854" 
d="M427 764q159 0 275 -114t116 -273t-116 -273t-275 -114t-275 114t-116 273t115.5 273t275.5 114zM427 719q-141 0 -242 -101t-101 -241t101 -241t242 -101q140 0 241.5 101.5t101.5 240.5q0 140 -101.5 241t-241.5 101zM289 845l138 106l138 -106l-38 -29l-100 77
l-102 -77z" />
    <glyph glyph-name="Ograve" unicode="&#xd2;" horiz-adv-x="854" 
d="M427 764q159 0 275 -114t116 -273t-116 -273t-275 -114t-275 114t-116 273t115.5 273t275.5 114zM427 719q-141 0 -242 -101t-101 -241t101 -241t242 -101q140 0 241.5 101.5t101.5 240.5q0 140 -101.5 241t-241.5 101zM346 952l61 19l101 -147l-38 -17z" />
    <glyph glyph-name="Uacute" unicode="&#xda;" horiz-adv-x="660" 
d="M538 298v456h48v-470q0 -76 -6 -109q-10 -56 -45 -97q-74 -88 -205 -88t-205 88q-35 41 -45 97q-6 33 -6 109v470h48v-456q0 -69 5 -102q8 -55 34.5 -88.5t76.5 -53.5q46 -19 92 -19t92 19q50 20 76.5 53.5t34.5 88.5q5 33 5 102zM365 971l61 -19l-124 -145l-38 17z" />
    <glyph glyph-name="Ucircumflex" unicode="&#xdb;" horiz-adv-x="660" 
d="M538 298v456h48v-470q0 -76 -6 -109q-10 -56 -45 -97q-74 -88 -205 -88t-205 88q-35 41 -45 97q-6 33 -6 109v470h48v-456q0 -69 5 -102q8 -55 34.5 -88.5t76.5 -53.5q46 -19 92 -19t92 19q50 20 76.5 53.5t34.5 88.5q5 33 5 102zM192 845l138 106l138 -106l-38 -29
l-100 77l-102 -77z" />
    <glyph glyph-name="Ugrave" unicode="&#xd9;" horiz-adv-x="660" 
d="M538 298v456h48v-470q0 -76 -6 -109q-10 -56 -45 -97q-74 -88 -205 -88t-205 88q-35 41 -45 97q-6 33 -6 109v470h48v-456q0 -69 5 -102q8 -55 34.5 -88.5t76.5 -53.5q46 -19 92 -19t92 19q50 20 76.5 53.5t34.5 88.5q5 33 5 102zM234 952l61 19l101 -147l-38 -17z" />
    <glyph glyph-name="circumflex" unicode="&#x2c6;" horiz-adv-x="426" 
d="M75 588l138 106l138 -106l-38 -29l-100 77l-102 -77z" />
    <glyph glyph-name="tilde" unicode="&#x2dc;" horiz-adv-x="439" 
d="M105 586v0l-30 22q26 64 78 64q25 0 70.5 -19.5t62.5 -19.5q34 0 48 41l29 -22q-7 -27 -30 -46t-51 -19q-20 0 -65.5 20t-67.5 20q-30 0 -44 -41z" />
    <glyph glyph-name="macron" unicode="&#xaf;" horiz-adv-x="456" 
d="M75 674h305v-45h-305v45z" />
    <glyph glyph-name="macron" unicode="&#x2c9;" horiz-adv-x="456" 
d="M75 674h305v-45h-305v45z" />
    <glyph glyph-name="cedilla" unicode="&#xb8;" horiz-adv-x="299" 
d="M224 -42l-111 -141l-38 19l93 144z" />
    <glyph glyph-name="Scaron" unicode="&#x160;" horiz-adv-x="544" 
d="M464 658l-34 -28q-56 89 -153 89q-60 0 -101 -42t-41 -102q0 -52 46 -88q18 -16 90 -53l144 -75q86 -45 86 -150q0 -92 -71 -155.5t-165 -63.5q-77 0 -136 44t-86 118l42 19q54 -136 182 -136q75 0 130.5 52t55.5 126q0 55 -52 96q-18 13 -100 57l-136 72q-78 41 -78 135
q0 84 54 137.5t139 53.5q57 0 107 -28.5t77 -77.5zM420 923l-138 -107l-138 107l38 28l100 -76l102 76z" />
    <glyph glyph-name="scaron" unicode="&#x161;" horiz-adv-x="375" 
d="M310 398l-39 -20q-24 52 -81 52q-30 0 -54.5 -21.5t-24.5 -50.5q0 -45 58 -70l109 -46q58 -37 58 -108q0 -63 -43 -103.5t-106 -40.5q-58 0 -101.5 33t-57.5 89l44 14q29 -94 115 -94q44 0 74 30.5t30 73.5q0 38 -28 61q-18 14 -62 30q-64 23 -91 43q-44 33 -44 85
q0 51 37 84t89 33q36 0 69.5 -21t48.5 -53zM326 666l-138 -107l-138 107l38 28l100 -76l102 76z" />
    <glyph glyph-name="brokenbar" unicode="&#xa6;" horiz-adv-x="320" 
d="M136 -89v250h48v-250h-48zM136 411v250h48v-250h-48z" />
    <glyph glyph-name="Eth" unicode="&#xd0;" horiz-adv-x="652" 
d="M129 709v-275h173v-45h-173v-344h87q161 0 253 91q100 99 100 240q0 152 -109 251q-90 82 -244 82h-87zM81 0v389h-81v45h81v320h136q90 0 150 -19q71 -21 130 -76q120 -112 120 -283q0 -164 -116 -276q-59 -57 -131 -80q-62 -20 -153 -20h-136z" />
    <glyph glyph-name="eth" unicode="&#xf0;" horiz-adv-x="547" 
d="M89 798l32 30q74 -43 139 -95l155 87l25 -33l-147 -82q222 -195 222 -445q0 -133 -76 -206q-67 -64 -167 -64t-170 71t-70 170q0 98 70.5 170t172.5 72q94 0 169 -70q-28 81 -67 139q-45 68 -124 140l-146 -82l-25 34l137 75q-48 40 -130 89zM269 430q-81 0 -136.5 -59
t-55.5 -141q0 -80 55.5 -139t136.5 -59q85 0 143 57t58 141q0 85 -57.5 142.5t-143.5 57.5z" />
    <glyph glyph-name="Yacute" unicode="&#xdd;" horiz-adv-x="559" 
d="M255 322l-251 432h53l222 -382l222 382h53l-251 -432v-322h-48v322zM329 971l61 -19l-124 -145l-38 17z" />
    <glyph glyph-name="yacute" unicode="&#xfd;" horiz-adv-x="460" 
d="M215 -8l-222 470h47l197 -418l177 418h46l-310 -732h-46zM280 714l61 -19l-124 -145l-38 17z" />
    <glyph glyph-name="Thorn" unicode="&#xde;" horiz-adv-x="472" 
d="M81 0v754h48v-160h85q111 0 163 -44q68 -58 68 -155q0 -95 -63 -149q-56 -48 -168 -48h-85v-198h-48zM129 243h87q87 0 132 41q49 44 49 113q0 79 -57 122q-40 30 -132 30h-79v-306z" />
    <glyph glyph-name="thorn" unicode="&#xfe;" horiz-adv-x="560" 
d="M301 430q-85 0 -135 -63q-47 -58 -47 -146q0 -82 51 -135.5t133 -53.5q79 0 131 58q49 56 49 136q0 83 -50 143.5t-132 60.5zM122 80v-350h-45v1095h45v-446h2q25 43 74 68t102 25q103 0 167 -72q61 -69 61 -173q0 -103 -62 -170t-164 -67q-120 0 -178 90h-2z" />
    <glyph glyph-name="minus" unicode="&#xad;" 
d="M54 232v48h512v-48h-512z" />
    <glyph glyph-name="minus" unicode="&#x2212;" 
d="M54 232v48h512v-48h-512z" />
    <glyph glyph-name="multiply" unicode="&#xd7;" 
d="M279 256l-225 222l30 34l226 -226l226 226l30 -34l-224 -222l224 -224l-30 -32l-226 225l-225 -225l-31 32z" />
    <glyph glyph-name="onesuperior" unicode="&#xb9;" horiz-adv-x="372" 
d="M210 720h-76l15 34h95v-448h-34v414z" />
    <glyph glyph-name="twosuperior" unicode="&#xb2;" horiz-adv-x="372" 
d="M114 340h222v-34h-302l182 185q88 89 88 143q0 43 -32.5 69.5t-80.5 26.5q-51 0 -82 -27t-31 -72h-34q2 54 31 85q45 48 116 48q61 0 104 -38t43 -94q0 -65 -88 -154z" />
    <glyph glyph-name="threesuperior" unicode="&#xb3;" horiz-adv-x="372" 
d="M183 525v34q44 0 73 24.5t29 65.5q0 36 -27 58.5t-68 22.5q-87 0 -92 -78h-34q5 52 38 82t89 30q53 0 90.5 -34t37.5 -82q0 -74 -74 -105q36 -13 58.5 -43.5t22.5 -66.5q0 -56 -41.5 -94.5t-102.5 -38.5q-56 0 -96 33t-40 84h34q10 -83 101 -83q47 0 79 27.5t32 69.5
q0 43 -31 68.5t-78 25.5z" />
    <glyph glyph-name="onehalf" unicode="&#xbd;" horiz-adv-x="930" 
d="M176 720h-76l15 34h95v-448h-34v414zM606 34h222v-34h-302l182 185q88 89 88 143q0 43 -32.5 69.5t-80.5 26.5q-51 0 -82 -27t-31 -72h-34q2 54 31 85q45 48 116 48q61 0 104 -38t43 -94q0 -65 -88 -154zM605 772l32 -18l-447 -771l-32 18z" />
    <glyph glyph-name="onequarter" unicode="&#xbc;" horiz-adv-x="930" 
d="M176 720h-76l15 34h95v-448h-34v414zM764 116h66v-34h-66v-82h-34v82h-259v4l287 382h6v-352zM730 116v251h-5l-186 -251h191zM649 772l32 -18l-447 -771l-32 18z" />
    <glyph glyph-name="threequarters" unicode="&#xbe;" horiz-adv-x="930" 
d="M804 116h66v-34h-66v-82h-34v82h-259v4l287 382h6v-352zM770 116v251h-5l-186 -251h191zM197 525v34q44 0 73 24.5t29 65.5q0 36 -27 58.5t-68 22.5q-87 0 -92 -78h-34q5 52 38 82t89 30q53 0 90.5 -34t37.5 -82q0 -74 -74 -105q36 -13 58.5 -43.5t22.5 -66.5
q0 -56 -41.5 -94.5t-102.5 -38.5q-56 0 -96 33t-40 84h34q10 -83 101 -83q47 0 79 27.5t32 69.5q0 43 -31 68.5t-78 25.5zM702 772l32 -18l-447 -771l-32 18z" />
    <glyph glyph-name="glyph217" horiz-adv-x="310" 
 />
    <glyph glyph-name="fraction" unicode="&#x2044;" horiz-adv-x="129" 
d="M272 772l32 -18l-447 -771l-32 18z" />
    <glyph glyph-name="fi" unicode="&#xf001;" horiz-adv-x="475" 
d="M380 462v-462h-45v462h45zM358 657q17 0 29 -12t12 -29t-12 -29t-29 -12t-29 12t-12 29t12 29t29 12zM122 420v-420h-45v420h-51v42h51v207q0 81 18 113q32 56 103 56q22 0 40 -7v-41q-36 6 -37 6q-51 0 -69 -46q-10 -28 -10 -90v-198h116v-42h-116z" />
    <glyph glyph-name="fl" unicode="&#xf002;" horiz-adv-x="439" 
d="M122 420v-420h-45v420h-51v42h51v207q0 81 18 113q32 56 103 56q22 0 40 -7v-41q-36 6 -37 6q-51 0 -69 -46q-10 -28 -10 -90v-198h116v-42h-116zM362 825v-825h-45v825h45z" />
    <glyph glyph-name="breve" unicode="&#x2d8;" horiz-adv-x="434" 
d="M75 674h44q19 -61 98 -61t98 61h43q-6 -50 -49 -79q-39 -27 -92 -27t-92 27q-44 29 -50 79z" />
    <glyph glyph-name="dotaccent" unicode="&#x2d9;" horiz-adv-x="313" 
d="M157 674q17 0 28.5 -11.5t11.5 -28.5q0 -16 -11.5 -28t-28.5 -12q-16 0 -28 12t-12 28q0 17 12 28.5t28 11.5z" />
    <glyph glyph-name="ring" unicode="&#x2da;" horiz-adv-x="324" 
d="M162 714q36 0 61.5 -25.5t25.5 -61.5t-25.5 -61.5t-61.5 -25.5t-61.5 25.5t-25.5 61.5t25.5 61.5t61.5 25.5zM162 674q-19 0 -33 -13.5t-14 -33.5q0 -19 14 -33t33 -14q20 0 33.5 14t13.5 33q0 20 -13.5 33.5t-33.5 13.5z" />
    <glyph glyph-name="hungarumlaut" unicode="&#x2dd;" horiz-adv-x="446" 
d="M177 714l61 -19l-124 -145l-38 17zM310 714l61 -19l-124 -145l-38 17z" />
    <glyph glyph-name="ogonek" unicode="&#x2db;" horiz-adv-x="321" 
d="M153 2h43v-2q-77 -56 -77 -105q0 -59 68 -59q20 0 58 12l-10 -44q-31 -9 -52 -9q-43 0 -75.5 26.5t-32.5 69.5q0 62 78 111z" />
    <glyph glyph-name="caron" unicode="&#x2c7;" horiz-adv-x="426" 
d="M351 666l-138 -107l-138 107l38 28l100 -76l102 76z" />
    <glyph glyph-name="Lslash" unicode="&#x141;" horiz-adv-x="327" 
d="M81 0v354l-81 -57v49l81 57v351h48v-318l128 89v-49l-128 -89v-342h192v-45h-240z" />
    <glyph glyph-name="dotlessi" unicode="&#x131;" horiz-adv-x="234" 
d="M139 462v-462h-45v462h45z" />
    <glyph glyph-name="lslash" unicode="&#x142;" horiz-adv-x="229" 
d="M92 0v391l-75 -54v45l75 54v389h45v-357l75 53v-45l-75 -53v-423h-45z" />
    <glyph glyph-name="zcaron" unicode="&#x17e;" horiz-adv-x="480" 
d="M98 42h375v-42h-470l378 420h-317v42h411zM403 666l-138 -107l-138 107l38 28l100 -76l102 76z" />
    <glyph glyph-name="Zcaron" unicode="&#x17d;" horiz-adv-x="568" 
d="M96 45h447v-45h-531l460 709h-416v45h500zM434 923l-138 -107l-138 107l38 28l100 -76l102 76z" />
    </font>
</defs>
</svg>
